  0
SECTION
  2
HEADER
  9
$ANGBASE
  50
0.0
  9
$ANGDIR
  70
1
  9
$MEASUREMENT
  70
1
  9
$INSUNITS
  70
4
  0
ENDSEC
  0
SECTION
  2
TABLES
  0
TABLE
  2
LTYPE
  70
4
  0
LTYPE
  5
40F
  2
CONTINUOUS
  70
0
  3
Solid line
  72
65
  73
0
  40
0.0
  0
LTYPE
  5
410
  2
DASHDOT
 70
0
  3
Dash Dot ____ _ ____ _
 72
65
 73
4
 40
2.0
 49
1.25
 49
-0.25
 49
0.25
 49
-0.25
  0
LTYPE
  5
411
  2
DASHED
 70
0
  3
Dashed __ __ __ __ __
 72
65
 73
2
 40
0.75
 49
0.5
 49
-0.25
  0
LTYPE
  5
43B
  2
DOTTED
 70
0
  3
Dotted .  .  .  .
 72
65
 73
2
 40
0.2
 49
0.0
 49
-0.2
  0
ENDTAB
  0
TABLE
  2
STYLE
  70
4
  0
STYLE
  2
KICAD
  70
0
  40
0
  41
1
  42
1
  50
0
  71
0
  3
isocp.shx
  0
STYLE
  2
KICADB
  70
0
  40
0
  41
1
  42
1
  50
0
  71
0
  3
isocp.shx
  0
STYLE
  2
KICADI
  70
0
  40
0
  41
1
  42
1
  50
15
  71
0
  3
isocp.shx
  0
STYLE
  2
KICADBI
  70
0
  40
0
  41
1
  42
1
  50
15
  71
0
  3
isocp.shx
  0
ENDTAB
  0
TABLE
  2
LAYER
  70
1
  0
LAYER
  2
BLACK
  70
0
  62
7
  6
CONTINUOUS
  0
ENDTAB
  0
ENDSEC
  0
SECTION
  2
ENTITIES
0
LINE
8
BLACK
6
CONTINUOUS
10
76.9164420000000035
20
-144.6458209999999838
11
76.945455999999993
21
-144.6496410000000026
0
LINE
8
BLACK
6
CONTINUOUS
10
76.945455999999993
20
-144.6496410000000026
11
76.970798000000002
21
-144.6642729999999801
0
LINE
8
BLACK
6
CONTINUOUS
10
76.970798000000002
20
-144.6642729999999801
11
76.9886130000000009
21
-144.6874889999999994
0
LINE
8
BLACK
6
CONTINUOUS
10
76.9886130000000009
20
-144.6874889999999994
11
76.9886149999999958
21
-144.687498000000005
0
LINE
8
BLACK
6
CONTINUOUS
10
76.9886149999999958
20
-144.687498000000005
11
76.9937910000000016
21
-144.7012499999999875
0
LINE
8
BLACK
6
CONTINUOUS
10
76.9937910000000016
20
-144.7012499999999875
11
80.5654949999999985
21
-158.0310269999999946
0
LINE
8
BLACK
6
CONTINUOUS
10
80.5654949999999985
20
-158.0310269999999946
11
80.5678899999999913
21
-158.045533000000006
0
LINE
8
BLACK
6
CONTINUOUS
10
80.5678899999999913
20
-158.045533000000006
11
80.564070000000001
21
-158.0745469999999955
0
LINE
8
BLACK
6
CONTINUOUS
10
80.564070000000001
20
-158.0745469999999955
11
80.5588369999999969
21
-158.0836099999999931
0
LINE
8
BLACK
6
CONTINUOUS
10
80.5588369999999969
20
-158.0836099999999931
11
80.5494389999999925
21
-158.0998889999999903
0
LINE
8
BLACK
6
CONTINUOUS
10
80.5494389999999925
20
-158.0998889999999903
11
80.5403969999999987
21
-158.1068269999999814
0
LINE
8
BLACK
6
CONTINUOUS
10
80.5403969999999987
20
-158.1068269999999814
11
80.52622199999999
21
-158.1177040000000034
0
LINE
8
BLACK
6
CONTINUOUS
10
80.52622199999999
20
-158.1177040000000034
11
80.526212000000001
21
-158.1177059999999983
0
LINE
8
BLACK
6
CONTINUOUS
10
80.526212000000001
20
-158.1177059999999983
11
80.5124619999999993
21
-158.1228820000000042
0
LINE
8
BLACK
6
CONTINUOUS
10
80.5124619999999993
20
-158.1228820000000042
11
67.1826839999999947
21
-161.6945849999999893
0
LINE
8
BLACK
6
CONTINUOUS
10
67.1826839999999947
20
-161.6945849999999893
11
67.1681779999999975
21
-161.6969809999999939
0
LINE
8
BLACK
6
CONTINUOUS
10
67.1681779999999975
20
-161.6969809999999939
11
67.1391649999999913
21
-161.6931610000000035
0
LINE
8
BLACK
6
CONTINUOUS
10
67.1391649999999913
20
-161.6931610000000035
11
67.1326629999999938
21
-161.6894069999999886
0
LINE
8
BLACK
6
CONTINUOUS
10
67.1326629999999938
20
-161.6894069999999886
11
67.113821999999999
21
-161.678529999999995
0
LINE
8
BLACK
6
CONTINUOUS
10
67.113821999999999
20
-161.678529999999995
11
67.0960079999999977
21
-161.6553130000000067
0
LINE
8
BLACK
6
CONTINUOUS
10
67.0960079999999977
20
-161.6553130000000067
11
67.0908289999999994
21
-161.6415529999999876
0
LINE
8
BLACK
6
CONTINUOUS
10
67.0908289999999994
20
-161.6415529999999876
11
63.519126
21
-148.311774999999983
0
LINE
8
BLACK
6
CONTINUOUS
10
63.519126
20
-148.311774999999983
11
63.5167299999999955
21
-148.297269
0
LINE
8
BLACK
6
CONTINUOUS
10
63.5167299999999955
20
-148.297269
11
63.5205500000000001
21
-148.2682559999999796
0
LINE
8
BLACK
6
CONTINUOUS
10
63.5205500000000001
20
-148.2682559999999796
11
63.5351819999999989
21
-148.2429129999999873
0
LINE
8
BLACK
6
CONTINUOUS
10
63.5351819999999989
20
-148.2429129999999873
11
63.5583979999999968
21
-148.2250990000000002
0
LINE
8
BLACK
6
CONTINUOUS
10
63.5583979999999968
20
-148.2250990000000002
11
63.5721589999999992
21
-148.2199200000000019
0
LINE
8
BLACK
6
CONTINUOUS
10
63.5721589999999992
20
-148.2199200000000019
11
76.9019359999999921
21
-144.6482159999999908
0
LINE
8
BLACK
6
CONTINUOUS
10
76.9019359999999921
20
-144.6482159999999908
11
76.9164420000000035
21
-144.6458209999999838
0
LINE
8
BLACK
6
CONTINUOUS
10
63.6834249999999997
20
-148.3453959999999938
11
67.216306000000003
21
-161.5302849999999921
0
LINE
8
BLACK
6
CONTINUOUS
10
67.216306000000003
20
-161.5302849999999921
11
80.4011939999999896
21
-157.9974039999999889
0
LINE
8
BLACK
6
CONTINUOUS
10
80.4011939999999896
20
-157.9974039999999889
11
76.868313999999998
21
-144.812515999999988
0
LINE
8
BLACK
6
CONTINUOUS
10
76.868313999999998
20
-144.812515999999988
11
63.6834249999999997
21
-148.3453959999999938
0
LINE
8
BLACK
6
CONTINUOUS
10
98.3803920000000005
20
-140.0305899999999895
11
98.4081429999999955
21
-140.039874999999995
0
LINE
8
BLACK
6
CONTINUOUS
10
98.4081429999999955
20
-140.039874999999995
11
98.4302279999999996
21
-140.0590729999999837
0
LINE
8
BLACK
6
CONTINUOUS
10
98.4302279999999996
20
-140.0590729999999837
11
98.4432860000000005
21
-140.0852620000000002
0
LINE
8
BLACK
6
CONTINUOUS
10
98.4432860000000005
20
-140.0852620000000002
11
98.4457439999999906
21
-140.09975799999998
0
LINE
8
BLACK
6
CONTINUOUS
10
98.4457439999999906
20
-140.09975799999998
11
99.4083839999999981
21
-153.8661419999999964
0
LINE
8
BLACK
6
CONTINUOUS
10
99.4083839999999981
20
-153.8661419999999964
11
99.4079669999999993
21
-153.8808389999999804
0
LINE
8
BLACK
6
CONTINUOUS
10
99.4079669999999993
20
-153.8808389999999804
11
99.3986819999999938
21
-153.9085900000000038
0
LINE
8
BLACK
6
CONTINUOUS
10
99.3986819999999938
20
-153.9085900000000038
11
99.3794839999999908
21
-153.9306749999999795
0
LINE
8
BLACK
6
CONTINUOUS
10
99.3794839999999908
20
-153.9306749999999795
11
99.3532949999999886
21
-153.9437329999999804
0
LINE
8
BLACK
6
CONTINUOUS
10
99.3532949999999886
20
-153.9437329999999804
11
99.3532929999999936
21
-153.9437329999999804
0
LINE
8
BLACK
6
CONTINUOUS
10
99.3532929999999936
20
-153.9437329999999804
11
99.3387989999999945
21
-153.9461909999999989
0
LINE
8
BLACK
6
CONTINUOUS
10
99.3387989999999945
20
-153.9461909999999989
11
85.5724149999999923
21
-154.9088309999999922
0
LINE
8
BLACK
6
CONTINUOUS
10
85.5724149999999923
20
-154.9088309999999922
11
85.5577179999999942
21
-154.9084139999999934
0
LINE
8
BLACK
6
CONTINUOUS
10
85.5577179999999942
20
-154.9084139999999934
11
85.5299669999999992
21
-154.8991289999999879
0
LINE
8
BLACK
6
CONTINUOUS
10
85.5299669999999992
20
-154.8991289999999879
11
85.5078819999999951
21
-154.8799309999999991
0
LINE
8
BLACK
6
CONTINUOUS
10
85.5078819999999951
20
-154.8799309999999991
11
85.4948239999999942
21
-154.8537419999999827
0
LINE
8
BLACK
6
CONTINUOUS
10
85.4948239999999942
20
-154.8537419999999827
11
85.4948229999999967
21
-154.8537399999999877
0
LINE
8
BLACK
6
CONTINUOUS
10
85.4948229999999967
20
-154.8537399999999877
11
85.4923659999999899
21
-154.8392460000000028
0
LINE
8
BLACK
6
CONTINUOUS
10
85.4923659999999899
20
-154.8392460000000028
11
84.5297259999999966
21
-141.0728619999999864
0
LINE
8
BLACK
6
CONTINUOUS
10
84.5297259999999966
20
-141.0728619999999864
11
84.5301429999999954
21
-141.0581650000000025
0
LINE
8
BLACK
6
CONTINUOUS
10
84.5301429999999954
20
-141.0581650000000025
11
84.5394280000000009
21
-141.0304140000000075
0
LINE
8
BLACK
6
CONTINUOUS
10
84.5394280000000009
20
-141.0304140000000075
11
84.5586259999999896
21
-141.0083290000000034
0
LINE
8
BLACK
6
CONTINUOUS
10
84.5586259999999896
20
-141.0083290000000034
11
84.5848149999999919
21
-140.9952710000000025
0
LINE
8
BLACK
6
CONTINUOUS
10
84.5848149999999919
20
-140.9952710000000025
11
84.5993110000000001
21
-140.992812999999984
0
LINE
8
BLACK
6
CONTINUOUS
10
84.5993110000000001
20
-140.992812999999984
11
98.3656950000000023
21
-140.0301729999999907
0
LINE
8
BLACK
6
CONTINUOUS
10
98.3656950000000023
20
-140.0301729999999907
11
98.3803920000000005
21
-140.0305899999999895
0
LINE
8
BLACK
6
CONTINUOUS
10
84.6845909999999975
20
-141.1372149999999976
11
85.6367679999999893
21
-154.7539649999999938
0
LINE
8
BLACK
6
CONTINUOUS
10
85.6367679999999893
20
-154.7539649999999938
11
99.2535179999999997
21
-153.8017879999999877
0
LINE
8
BLACK
6
CONTINUOUS
10
99.2535179999999997
20
-153.8017879999999877
11
98.3013409999999936
21
-140.1850379999999916
0
LINE
8
BLACK
6
CONTINUOUS
10
98.3013409999999936
20
-140.1850379999999916
11
84.6845909999999975
21
-141.1372149999999976
0
LINE
8
BLACK
6
CONTINUOUS
10
117.3857199999999921
20
-138.6995430000000056
11
117.4134710000000013
21
-138.7088279999999827
0
LINE
8
BLACK
6
CONTINUOUS
10
117.4134710000000013
20
-138.7088279999999827
11
117.4355559999999912
21
-138.7280259999999998
0
LINE
8
BLACK
6
CONTINUOUS
10
117.4355559999999912
20
-138.7280259999999998
11
117.4486139999999921
21
-138.7542149999999879
0
LINE
8
BLACK
6
CONTINUOUS
10
117.4486139999999921
20
-138.7542149999999879
11
117.4510719999999964
21
-138.7687109999999961
0
LINE
8
BLACK
6
CONTINUOUS
10
117.4510719999999964
20
-138.7687109999999961
11
118.4137119999999896
21
-152.5350949999999841
0
LINE
8
BLACK
6
CONTINUOUS
10
118.4137119999999896
20
-152.5350949999999841
11
118.4132949999999909
21
-152.5497919999999965
0
LINE
8
BLACK
6
CONTINUOUS
10
118.4132949999999909
20
-152.5497919999999965
11
118.4040099999999995
21
-152.5775429999999915
0
LINE
8
BLACK
6
CONTINUOUS
10
118.4040099999999995
20
-152.5775429999999915
11
118.3848119999999966
21
-152.5996279999999956
0
LINE
8
BLACK
6
CONTINUOUS
10
118.3848119999999966
20
-152.5996279999999956
11
118.3586229999999944
21
-152.6126859999999965
0
LINE
8
BLACK
6
CONTINUOUS
10
118.3586229999999944
20
-152.6126859999999965
11
118.3586209999999994
21
-152.6126859999999965
0
LINE
8
BLACK
6
CONTINUOUS
10
118.3586209999999994
20
-152.6126859999999965
11
118.3441270000000003
21
-152.6151439999999866
0
LINE
8
BLACK
6
CONTINUOUS
10
118.3441270000000003
20
-152.6151439999999866
11
104.5777429999999981
21
-153.5777839999999799
0
LINE
8
BLACK
6
CONTINUOUS
10
104.5777429999999981
20
-153.5777839999999799
11
104.5630459999999999
21
-153.5773669999999811
0
LINE
8
BLACK
6
CONTINUOUS
10
104.5630459999999999
20
-153.5773669999999811
11
104.5352949999999908
21
-153.568082000000004
0
LINE
8
BLACK
6
CONTINUOUS
10
104.5352949999999908
20
-153.568082000000004
11
104.5132100000000008
21
-153.5488839999999868
0
LINE
8
BLACK
6
CONTINUOUS
10
104.5132100000000008
20
-153.5488839999999868
11
104.5001519999999999
21
-153.5226949999999988
0
LINE
8
BLACK
6
CONTINUOUS
10
104.5001519999999999
20
-153.5226949999999988
11
104.5001509999999882
21
-153.5226930000000038
0
LINE
8
BLACK
6
CONTINUOUS
10
104.5001509999999882
20
-153.5226930000000038
11
104.4976939999999956
21
-153.5081989999999905
0
LINE
8
BLACK
6
CONTINUOUS
10
104.4976939999999956
20
-153.5081989999999905
11
103.5350540000000024
21
-139.7418150000000026
0
LINE
8
BLACK
6
CONTINUOUS
10
103.5350540000000024
20
-139.7418150000000026
11
103.5354710000000011
21
-139.7271179999999902
0
LINE
8
BLACK
6
CONTINUOUS
10
103.5354710000000011
20
-139.7271179999999902
11
103.5447559999999925
21
-139.6993669999999952
0
LINE
8
BLACK
6
CONTINUOUS
10
103.5447559999999925
20
-139.6993669999999952
11
103.5639539999999954
21
-139.6772819999999911
0
LINE
8
BLACK
6
CONTINUOUS
10
103.5639539999999954
20
-139.6772819999999911
11
103.5901429999999976
21
-139.6642239999999902
0
LINE
8
BLACK
6
CONTINUOUS
10
103.5901429999999976
20
-139.6642239999999902
11
103.6046389999999917
21
-139.6617660000000001
0
LINE
8
BLACK
6
CONTINUOUS
10
103.6046389999999917
20
-139.6617660000000001
11
117.3710229999999939
21
-138.6991260000000068
0
LINE
8
BLACK
6
CONTINUOUS
10
117.3710229999999939
20
-138.6991260000000068
11
117.3857199999999921
21
-138.6995430000000056
0
LINE
8
BLACK
6
CONTINUOUS
10
103.6899189999999891
20
-139.8061679999999853
11
104.6420959999999951
21
-153.4229179999999815
0
LINE
8
BLACK
6
CONTINUOUS
10
104.6420959999999951
20
-153.4229179999999815
11
118.2588459999999912
21
-152.4707410000000039
0
LINE
8
BLACK
6
CONTINUOUS
10
118.2588459999999912
20
-152.4707410000000039
11
117.3066689999999994
21
-138.8539910000000077
0
LINE
8
BLACK
6
CONTINUOUS
10
117.3066689999999994
20
-138.8539910000000077
11
103.6899189999999891
21
-139.8061679999999853
0
LINE
8
BLACK
6
CONTINUOUS
10
186.1719929999999863
20
-136.7810800000000029
11
186.1866609999999866
21
-136.7819450000000074
0
LINE
8
BLACK
6
CONTINUOUS
10
186.1866609999999866
20
-136.7819450000000074
11
199.8167599999999879
21
-138.9407400000000052
0
LINE
8
BLACK
6
CONTINUOUS
10
199.8167599999999879
20
-138.9407400000000052
11
199.8309759999999926
21
-138.9444499999999891
0
LINE
8
BLACK
6
CONTINUOUS
10
199.8309759999999926
20
-138.9444499999999891
11
199.8309859999999958
21
-138.9444519999999841
0
LINE
8
BLACK
6
CONTINUOUS
10
199.8309859999999958
20
-138.9444519999999841
11
199.8559369999999831
21
-138.9597430000000031
0
LINE
8
BLACK
6
CONTINUOUS
10
199.8559369999999831
20
-138.9597430000000031
11
199.8731379999999831
21
-138.9834170000000029
0
LINE
8
BLACK
6
CONTINUOUS
10
199.8731379999999831
20
-138.9834170000000029
11
199.8799699999999859
21
-139.0118719999999826
0
LINE
8
BLACK
6
CONTINUOUS
10
199.8799699999999859
20
-139.0118719999999826
11
199.879967999999991
21
-139.0118819999999857
0
LINE
8
BLACK
6
CONTINUOUS
10
199.879967999999991
20
-139.0118819999999857
11
199.8791039999999839
21
-139.0265489999999886
0
LINE
8
BLACK
6
CONTINUOUS
10
199.8791039999999839
20
-139.0265489999999886
11
197.7203089999999861
21
-152.6566489999999874
0
LINE
8
BLACK
6
CONTINUOUS
10
197.7203089999999861
20
-152.6566489999999874
11
197.7165980000000047
21
-152.6708649999999921
0
LINE
8
BLACK
6
CONTINUOUS
10
197.7165980000000047
20
-152.6708649999999921
11
197.7165969999999788
21
-152.6708749999999952
0
LINE
8
BLACK
6
CONTINUOUS
10
197.7165969999999788
20
-152.6708749999999952
11
197.707084999999978
21
-152.686396000000002
0
LINE
8
BLACK
6
CONTINUOUS
10
197.707084999999978
20
-152.686396000000002
11
197.7013059999999882
21
-152.6958259999999825
0
LINE
8
BLACK
6
CONTINUOUS
10
197.7013059999999882
20
-152.6958259999999825
11
197.6776319999999885
21
-152.7130269999999825
0
LINE
8
BLACK
6
CONTINUOUS
10
197.6776319999999885
20
-152.7130269999999825
11
197.6491769999999804
21
-152.7198579999999879
0
LINE
8
BLACK
6
CONTINUOUS
10
197.6491769999999804
20
-152.7198579999999879
11
197.6345000000000027
21
-152.7189929999999833
0
LINE
8
BLACK
6
CONTINUOUS
10
197.6345000000000027
20
-152.7189929999999833
11
184.004400000000004
21
-150.5601979999999855
0
LINE
8
BLACK
6
CONTINUOUS
10
184.004400000000004
20
-150.5601979999999855
11
183.9901739999999961
21
-150.5564849999999808
0
LINE
8
BLACK
6
CONTINUOUS
10
183.9901739999999961
20
-150.5564849999999808
11
183.9652229999999804
21
-150.5411949999999877
0
LINE
8
BLACK
6
CONTINUOUS
10
183.9652229999999804
20
-150.5411949999999877
11
183.9480219999999804
21
-150.5175209999999879
0
LINE
8
BLACK
6
CONTINUOUS
10
183.9480219999999804
20
-150.5175209999999879
11
183.9411910000000034
21
-150.4890659999999798
0
LINE
8
BLACK
6
CONTINUOUS
10
183.9411910000000034
20
-150.4890659999999798
11
183.9420559999999796
21
-150.4743880000000047
0
LINE
8
BLACK
6
CONTINUOUS
10
183.9420559999999796
20
-150.4743880000000047
11
186.1008509999999774
21
-136.8442890000000034
0
LINE
8
BLACK
6
CONTINUOUS
10
186.1008509999999774
20
-136.8442890000000034
11
186.1045639999999821
21
-136.8300629999999956
0
LINE
8
BLACK
6
CONTINUOUS
10
186.1045639999999821
20
-136.8300629999999956
11
186.1198540000000037
21
-136.8051119999999798
0
LINE
8
BLACK
6
CONTINUOUS
10
186.1198540000000037
20
-136.8051119999999798
11
186.1435280000000034
21
-136.7879109999999798
0
LINE
8
BLACK
6
CONTINUOUS
10
186.1435280000000034
20
-136.7879109999999798
11
186.1719829999999831
21
-136.7810790000000054
0
LINE
8
BLACK
6
CONTINUOUS
10
186.1719829999999831
20
-136.7810790000000054
11
186.1719929999999863
21
-136.7810800000000029
0
LINE
8
BLACK
6
CONTINUOUS
10
184.1019419999999798
20
-150.4237760000000037
11
197.5838870000000043
21
-152.5591059999999857
0
LINE
8
BLACK
6
CONTINUOUS
10
197.5838870000000043
20
-152.5591059999999857
11
199.7192169999999862
21
-139.0771609999999896
0
LINE
8
BLACK
6
CONTINUOUS
10
199.7192169999999862
20
-139.0771609999999896
11
186.2372719999999902
21
-136.9418310000000076
0
LINE
8
BLACK
6
CONTINUOUS
10
186.2372719999999902
20
-136.9418310000000076
11
184.1019419999999798
21
-150.4237760000000037
0
LINE
8
BLACK
6
CONTINUOUS
10
167.3560090000000002
20
-133.8024020000000007
11
167.3706770000000006
21
-133.8032670000000053
0
LINE
8
BLACK
6
CONTINUOUS
10
167.3706770000000006
20
-133.8032670000000053
11
181.0007760000000019
21
-135.9620620000000031
0
LINE
8
BLACK
6
CONTINUOUS
10
181.0007760000000019
20
-135.9620620000000031
11
181.0149919999999781
21
-135.965771999999987
0
LINE
8
BLACK
6
CONTINUOUS
10
181.0149919999999781
20
-135.965771999999987
11
181.0150019999999813
21
-135.9657739999999819
0
LINE
8
BLACK
6
CONTINUOUS
10
181.0150019999999813
20
-135.9657739999999819
11
181.039952999999997
21
-135.981065000000001
0
LINE
8
BLACK
6
CONTINUOUS
10
181.039952999999997
20
-135.981065000000001
11
181.057153999999997
21
-136.0047390000000007
0
LINE
8
BLACK
6
CONTINUOUS
10
181.057153999999997
20
-136.0047390000000007
11
181.0639859999999999
21
-136.0331939999999804
0
LINE
8
BLACK
6
CONTINUOUS
10
181.0639859999999999
20
-136.0331939999999804
11
181.0639840000000049
21
-136.0332039999999836
0
LINE
8
BLACK
6
CONTINUOUS
10
181.0639840000000049
20
-136.0332039999999836
11
181.0631199999999978
21
-136.0478709999999865
0
LINE
8
BLACK
6
CONTINUOUS
10
181.0631199999999978
20
-136.0478709999999865
11
178.904325
21
-149.6779709999999852
0
LINE
8
BLACK
6
CONTINUOUS
10
178.904325
20
-149.6779709999999852
11
178.9006139999999903
21
-149.6921869999999899
0
LINE
8
BLACK
6
CONTINUOUS
10
178.9006139999999903
20
-149.6921869999999899
11
178.9006129999999928
21
-149.6921969999999931
0
LINE
8
BLACK
6
CONTINUOUS
10
178.9006129999999928
20
-149.6921969999999931
11
178.8853220000000022
21
-149.7171479999999804
0
LINE
8
BLACK
6
CONTINUOUS
10
178.8853220000000022
20
-149.7171479999999804
11
178.8616480000000024
21
-149.7343489999999804
0
LINE
8
BLACK
6
CONTINUOUS
10
178.8616480000000024
20
-149.7343489999999804
11
178.8331929999999943
21
-149.7411799999999857
0
LINE
8
BLACK
6
CONTINUOUS
10
178.8331929999999943
20
-149.7411799999999857
11
178.8185159999999883
21
-149.7403149999999812
0
LINE
8
BLACK
6
CONTINUOUS
10
178.8185159999999883
20
-149.7403149999999812
11
165.1884159999999895
21
-147.5815199999999834
0
LINE
8
BLACK
6
CONTINUOUS
10
165.1884159999999895
20
-147.5815199999999834
11
165.1741899999999816
21
-147.5778070000000071
0
LINE
8
BLACK
6
CONTINUOUS
10
165.1741899999999816
20
-147.5778070000000071
11
165.1492389999999943
21
-147.5625169999999855
0
LINE
8
BLACK
6
CONTINUOUS
10
165.1492389999999943
20
-147.5625169999999855
11
165.1320379999999943
21
-147.5388429999999858
0
LINE
8
BLACK
6
CONTINUOUS
10
165.1320379999999943
20
-147.5388429999999858
11
165.125206999999989
21
-147.5103880000000061
0
LINE
8
BLACK
6
CONTINUOUS
10
165.125206999999989
20
-147.5103880000000061
11
165.1260719999999935
21
-147.4957100000000025
0
LINE
8
BLACK
6
CONTINUOUS
10
165.1260719999999935
20
-147.4957100000000025
11
167.2848669999999913
21
-133.8656110000000012
0
LINE
8
BLACK
6
CONTINUOUS
10
167.2848669999999913
20
-133.8656110000000012
11
167.2885799999999961
21
-133.8513849999999934
0
LINE
8
BLACK
6
CONTINUOUS
10
167.2885799999999961
20
-133.8513849999999934
11
167.3038699999999892
21
-133.8264340000000061
0
LINE
8
BLACK
6
CONTINUOUS
10
167.3038699999999892
20
-133.8264340000000061
11
167.327543999999989
21
-133.8092330000000061
0
LINE
8
BLACK
6
CONTINUOUS
10
167.327543999999989
20
-133.8092330000000061
11
167.3559989999999971
21
-133.8024010000000033
0
LINE
8
BLACK
6
CONTINUOUS
10
167.3559989999999971
20
-133.8024010000000033
11
167.3560090000000002
21
-133.8024020000000007
0
LINE
8
BLACK
6
CONTINUOUS
10
165.2859579999999937
20
-147.4450980000000015
11
178.7679029999999898
21
-149.5804279999999835
0
LINE
8
BLACK
6
CONTINUOUS
10
178.7679029999999898
20
-149.5804279999999835
11
180.9032330000000002
21
-136.0984829999999874
0
LINE
8
BLACK
6
CONTINUOUS
10
180.9032330000000002
20
-136.0984829999999874
11
167.4212880000000041
21
-133.9631530000000055
0
LINE
8
BLACK
6
CONTINUOUS
10
167.4212880000000041
20
-133.9631530000000055
11
165.2859579999999937
21
-147.4450980000000015
0
LINE
8
BLACK
6
CONTINUOUS
10
78.7542880000000025
20
-140.567892999999998
11
78.9184499999999929
21
-140.6212329999999895
0
LINE
8
BLACK
6
CONTINUOUS
10
78.9184499999999929
20
-140.6212329999999895
11
79.0722459999999927
21
-140.6995959999999855
0
LINE
8
BLACK
6
CONTINUOUS
10
79.0722459999999927
20
-140.6995959999999855
11
79.2118909999999943
21
-140.801052999999996
0
LINE
8
BLACK
6
CONTINUOUS
10
79.2118909999999943
20
-140.801052999999996
11
79.3339449999999999
21
-140.9231069999999875
0
LINE
8
BLACK
6
CONTINUOUS
10
79.3339449999999999
20
-140.9231069999999875
11
79.4354019999999963
21
-141.062751999999989
0
LINE
8
BLACK
6
CONTINUOUS
10
79.4354019999999963
20
-141.062751999999989
11
79.5137649999999923
21
-141.2165479999999889
0
LINE
8
BLACK
6
CONTINUOUS
10
79.5137649999999923
20
-141.2165479999999889
11
79.567104999999998
21
-141.3807099999999934
0
LINE
8
BLACK
6
CONTINUOUS
10
79.567104999999998
20
-141.3807099999999934
11
79.5941069999999939
21
-141.551195000000007
0
LINE
8
BLACK
6
CONTINUOUS
10
79.5941069999999939
20
-141.551195000000007
11
79.5941069999999939
21
-141.7238049999999987
0
LINE
8
BLACK
6
CONTINUOUS
10
79.5941069999999939
20
-141.7238049999999987
11
79.567104999999998
21
-141.8942899999999838
0
LINE
8
BLACK
6
CONTINUOUS
10
79.567104999999998
20
-141.8942899999999838
11
79.5137649999999923
21
-142.0584519999999884
0
LINE
8
BLACK
6
CONTINUOUS
10
79.5137649999999923
20
-142.0584519999999884
11
79.4354019999999963
21
-142.2122479999999882
0
LINE
8
BLACK
6
CONTINUOUS
10
79.4354019999999963
20
-142.2122479999999882
11
79.3339449999999999
21
-142.3518929999999898
0
LINE
8
BLACK
6
CONTINUOUS
10
79.3339449999999999
20
-142.3518929999999898
11
79.2118909999999943
21
-142.4739469999999812
0
LINE
8
BLACK
6
CONTINUOUS
10
79.2118909999999943
20
-142.4739469999999812
11
79.0722459999999927
21
-142.5754039999999918
0
LINE
8
BLACK
6
CONTINUOUS
10
79.0722459999999927
20
-142.5754039999999918
11
78.9184499999999929
21
-142.6537669999999878
0
LINE
8
BLACK
6
CONTINUOUS
10
78.9184499999999929
20
-142.6537669999999878
11
78.7542880000000025
21
-142.7071070000000077
0
LINE
8
BLACK
6
CONTINUOUS
10
78.7542880000000025
20
-142.7071070000000077
11
78.5838030000000032
21
-142.7341089999999895
0
LINE
8
BLACK
6
CONTINUOUS
10
78.5838030000000032
20
-142.7341089999999895
11
78.4111929999999973
21
-142.7341089999999895
0
LINE
8
BLACK
6
CONTINUOUS
10
78.4111929999999973
20
-142.7341089999999895
11
78.2407079999999979
21
-142.7071070000000077
0
LINE
8
BLACK
6
CONTINUOUS
10
78.2407079999999979
20
-142.7071070000000077
11
78.0765459999999933
21
-142.6537669999999878
0
LINE
8
BLACK
6
CONTINUOUS
10
78.0765459999999933
20
-142.6537669999999878
11
77.9227499999999935
21
-142.5754039999999918
0
LINE
8
BLACK
6
CONTINUOUS
10
77.9227499999999935
20
-142.5754039999999918
11
77.7831049999999919
21
-142.4739469999999812
0
LINE
8
BLACK
6
CONTINUOUS
10
77.7831049999999919
20
-142.4739469999999812
11
77.6610510000000005
21
-142.3518929999999898
0
LINE
8
BLACK
6
CONTINUOUS
10
77.6610510000000005
20
-142.3518929999999898
11
77.5595939999999899
21
-142.2122479999999882
0
LINE
8
BLACK
6
CONTINUOUS
10
77.5595939999999899
20
-142.2122479999999882
11
77.481230999999994
21
-142.0584519999999884
0
LINE
8
BLACK
6
CONTINUOUS
10
77.481230999999994
20
-142.0584519999999884
11
77.4278910000000025
21
-141.8942899999999838
0
LINE
8
BLACK
6
CONTINUOUS
10
77.4278910000000025
20
-141.8942899999999838
11
77.4008889999999923
21
-141.7238049999999987
0
LINE
8
BLACK
6
CONTINUOUS
10
77.4008889999999923
20
-141.7238049999999987
11
77.4008889999999923
21
-141.551195000000007
0
LINE
8
BLACK
6
CONTINUOUS
10
77.4008889999999923
20
-141.551195000000007
11
77.401258999999996
21
-141.5488579999999956
0
LINE
8
BLACK
6
CONTINUOUS
10
77.401258999999996
20
-141.5488579999999956
11
77.4278910000000025
21
-141.3807099999999934
0
LINE
8
BLACK
6
CONTINUOUS
10
77.4278910000000025
20
-141.3807099999999934
11
77.481230999999994
21
-141.2165479999999889
0
LINE
8
BLACK
6
CONTINUOUS
10
77.481230999999994
20
-141.2165479999999889
11
77.5595939999999899
21
-141.062751999999989
0
LINE
8
BLACK
6
CONTINUOUS
10
77.5595939999999899
20
-141.062751999999989
11
77.6610510000000005
21
-140.9231069999999875
0
LINE
8
BLACK
6
CONTINUOUS
10
77.6610510000000005
20
-140.9231069999999875
11
77.7831049999999919
21
-140.801052999999996
0
LINE
8
BLACK
6
CONTINUOUS
10
77.7831049999999919
20
-140.801052999999996
11
77.9227499999999935
21
-140.6995959999999855
0
LINE
8
BLACK
6
CONTINUOUS
10
77.9227499999999935
20
-140.6995959999999855
11
78.0765459999999933
21
-140.6212329999999895
0
LINE
8
BLACK
6
CONTINUOUS
10
78.0765459999999933
20
-140.6212329999999895
11
78.2407079999999979
21
-140.567892999999998
0
LINE
8
BLACK
6
CONTINUOUS
10
78.2407079999999979
20
-140.567892999999998
11
78.4111929999999973
21
-140.5408909999999878
0
LINE
8
BLACK
6
CONTINUOUS
10
78.4111929999999973
20
-140.5408909999999878
11
78.5838030000000032
21
-140.5408909999999878
0
LINE
8
BLACK
6
CONTINUOUS
10
78.5838030000000032
20
-140.5408909999999878
11
78.7542880000000025
21
-140.567892999999998
0
LINE
8
BLACK
6
CONTINUOUS
10
77.5974980000000016
20
-141.7261419999999816
11
77.6320839999999919
21
-141.9000199999999836
0
LINE
8
BLACK
6
CONTINUOUS
10
77.6320839999999919
20
-141.9000199999999836
11
77.6999279999999999
21
-142.0638099999999895
0
LINE
8
BLACK
6
CONTINUOUS
10
77.6999279999999999
20
-142.0638099999999895
11
77.7984220000000022
21
-142.2112170000000049
0
LINE
8
BLACK
6
CONTINUOUS
10
77.7984220000000022
20
-142.2112170000000049
11
77.9237809999999911
21
-142.3365759999999796
0
LINE
8
BLACK
6
CONTINUOUS
10
77.9237809999999911
20
-142.3365759999999796
11
78.0711879999999923
21
-142.4350699999999961
0
LINE
8
BLACK
6
CONTINUOUS
10
78.0711879999999923
20
-142.4350699999999961
11
78.2349779999999981
21
-142.5029140000000041
0
LINE
8
BLACK
6
CONTINUOUS
10
78.2349779999999981
20
-142.5029140000000041
11
78.4088560000000001
21
-142.5374999999999943
0
LINE
8
BLACK
6
CONTINUOUS
10
78.4088560000000001
20
-142.5374999999999943
11
78.5861400000000003
21
-142.5374999999999943
0
LINE
8
BLACK
6
CONTINUOUS
10
78.5861400000000003
20
-142.5374999999999943
11
78.7600180000000023
21
-142.5029140000000041
0
LINE
8
BLACK
6
CONTINUOUS
10
78.7600180000000023
20
-142.5029140000000041
11
78.923807999999994
21
-142.4350699999999961
0
LINE
8
BLACK
6
CONTINUOUS
10
78.923807999999994
20
-142.4350699999999961
11
79.0712149999999951
21
-142.3365759999999796
0
LINE
8
BLACK
6
CONTINUOUS
10
79.0712149999999951
20
-142.3365759999999796
11
79.1965739999999983
21
-142.2112170000000049
0
LINE
8
BLACK
6
CONTINUOUS
10
79.1965739999999983
20
-142.2112170000000049
11
79.2950680000000006
21
-142.0638099999999895
0
LINE
8
BLACK
6
CONTINUOUS
10
79.2950680000000006
20
-142.0638099999999895
11
79.3629119999999944
21
-141.9000199999999836
0
LINE
8
BLACK
6
CONTINUOUS
10
79.3629119999999944
20
-141.9000199999999836
11
79.3974979999999988
21
-141.7261419999999816
0
LINE
8
BLACK
6
CONTINUOUS
10
79.3974979999999988
20
-141.7261419999999816
11
79.3974979999999988
21
-141.5488579999999956
0
LINE
8
BLACK
6
CONTINUOUS
10
79.3974979999999988
20
-141.5488579999999956
11
79.3629119999999944
21
-141.3749799999999937
0
LINE
8
BLACK
6
CONTINUOUS
10
79.3629119999999944
20
-141.3749799999999937
11
79.2950680000000006
21
-141.2111899999999878
0
LINE
8
BLACK
6
CONTINUOUS
10
79.2950680000000006
20
-141.2111899999999878
11
79.1965739999999983
21
-141.0637830000000008
0
LINE
8
BLACK
6
CONTINUOUS
10
79.1965739999999983
20
-141.0637830000000008
11
79.0712149999999951
21
-140.9384239999999977
0
LINE
8
BLACK
6
CONTINUOUS
10
79.0712149999999951
20
-140.9384239999999977
11
78.923807999999994
21
-140.8399299999999812
0
LINE
8
BLACK
6
CONTINUOUS
10
78.923807999999994
20
-140.8399299999999812
11
78.7600180000000023
21
-140.7720860000000016
0
LINE
8
BLACK
6
CONTINUOUS
10
78.7600180000000023
20
-140.7720860000000016
11
78.5861400000000003
21
-140.7374999999999829
0
LINE
8
BLACK
6
CONTINUOUS
10
78.5861400000000003
20
-140.7374999999999829
11
78.4088560000000001
21
-140.7374999999999829
0
LINE
8
BLACK
6
CONTINUOUS
10
78.4088560000000001
20
-140.7374999999999829
11
78.2349779999999981
21
-140.7720860000000016
0
LINE
8
BLACK
6
CONTINUOUS
10
78.2349779999999981
20
-140.7720860000000016
11
78.0711879999999923
21
-140.8399299999999812
0
LINE
8
BLACK
6
CONTINUOUS
10
78.0711879999999923
20
-140.8399299999999812
11
77.9237809999999911
21
-140.9384239999999977
0
LINE
8
BLACK
6
CONTINUOUS
10
77.9237809999999911
20
-140.9384239999999977
11
77.7984220000000022
21
-141.0637830000000008
0
LINE
8
BLACK
6
CONTINUOUS
10
77.7984220000000022
20
-141.0637830000000008
11
77.6999279999999999
21
-141.2111899999999878
0
LINE
8
BLACK
6
CONTINUOUS
10
77.6999279999999999
20
-141.2111899999999878
11
77.6320839999999919
21
-141.3749799999999937
0
LINE
8
BLACK
6
CONTINUOUS
10
77.6320839999999919
20
-141.3749799999999937
11
77.5974980000000016
21
-141.5488579999999956
0
LINE
8
BLACK
6
CONTINUOUS
10
77.5974980000000016
20
-141.5488579999999956
11
77.5974980000000016
21
-141.7261419999999816
0
LINE
8
BLACK
6
CONTINUOUS
10
163.6942880000000002
20
-137.2578929999999957
11
163.8584500000000048
21
-137.3112329999999872
0
LINE
8
BLACK
6
CONTINUOUS
10
163.8584500000000048
20
-137.3112329999999872
11
164.0122460000000046
21
-137.3895959999999832
0
LINE
8
BLACK
6
CONTINUOUS
10
164.0122460000000046
20
-137.3895959999999832
11
164.1518910000000062
21
-137.4910529999999937
0
LINE
8
BLACK
6
CONTINUOUS
10
164.1518910000000062
20
-137.4910529999999937
11
164.2739449999999977
21
-137.6131069999999852
0
LINE
8
BLACK
6
CONTINUOUS
10
164.2739449999999977
20
-137.6131069999999852
11
164.3754019999999798
21
-137.7527519999999868
0
LINE
8
BLACK
6
CONTINUOUS
10
164.3754019999999798
20
-137.7527519999999868
11
164.4537650000000042
21
-137.9065479999999866
0
LINE
8
BLACK
6
CONTINUOUS
10
164.4537650000000042
20
-137.9065479999999866
11
164.5071049999999957
21
-138.0707099999999912
0
LINE
8
BLACK
6
CONTINUOUS
10
164.5071049999999957
20
-138.0707099999999912
11
164.5341070000000059
21
-138.2411950000000047
0
LINE
8
BLACK
6
CONTINUOUS
10
164.5341070000000059
20
-138.2411950000000047
11
164.5341070000000059
21
-138.4138049999999964
0
LINE
8
BLACK
6
CONTINUOUS
10
164.5341070000000059
20
-138.4138049999999964
11
164.5071049999999957
21
-138.5842899999999815
0
LINE
8
BLACK
6
CONTINUOUS
10
164.5071049999999957
20
-138.5842899999999815
11
164.4537650000000042
21
-138.7484519999999861
0
LINE
8
BLACK
6
CONTINUOUS
10
164.4537650000000042
20
-138.7484519999999861
11
164.3754019999999798
21
-138.902247999999986
0
LINE
8
BLACK
6
CONTINUOUS
10
164.3754019999999798
20
-138.902247999999986
11
164.2739449999999977
21
-139.0418929999999875
0
LINE
8
BLACK
6
CONTINUOUS
10
164.2739449999999977
20
-139.0418929999999875
11
164.1518910000000062
21
-139.1639470000000074
0
LINE
8
BLACK
6
CONTINUOUS
10
164.1518910000000062
20
-139.1639470000000074
11
164.0122460000000046
21
-139.2654039999999895
0
LINE
8
BLACK
6
CONTINUOUS
10
164.0122460000000046
20
-139.2654039999999895
11
163.8584500000000048
21
-139.3437669999999855
0
LINE
8
BLACK
6
CONTINUOUS
10
163.8584500000000048
20
-139.3437669999999855
11
163.6942880000000002
21
-139.3971070000000054
0
LINE
8
BLACK
6
CONTINUOUS
10
163.6942880000000002
20
-139.3971070000000054
11
163.5238029999999867
21
-139.4241089999999872
0
LINE
8
BLACK
6
CONTINUOUS
10
163.5238029999999867
20
-139.4241089999999872
11
163.351192999999995
21
-139.4241089999999872
0
LINE
8
BLACK
6
CONTINUOUS
10
163.351192999999995
20
-139.4241089999999872
11
163.1807079999999814
21
-139.3971070000000054
0
LINE
8
BLACK
6
CONTINUOUS
10
163.1807079999999814
20
-139.3971070000000054
11
163.0165460000000053
21
-139.3437669999999855
0
LINE
8
BLACK
6
CONTINUOUS
10
163.0165460000000053
20
-139.3437669999999855
11
162.8627500000000055
21
-139.2654039999999895
0
LINE
8
BLACK
6
CONTINUOUS
10
162.8627500000000055
20
-139.2654039999999895
11
162.7231050000000039
21
-139.1639470000000074
0
LINE
8
BLACK
6
CONTINUOUS
10
162.7231050000000039
20
-139.1639470000000074
11
162.601050999999984
21
-139.0418929999999875
0
LINE
8
BLACK
6
CONTINUOUS
10
162.601050999999984
20
-139.0418929999999875
11
162.4995940000000019
21
-138.902247999999986
0
LINE
8
BLACK
6
CONTINUOUS
10
162.4995940000000019
20
-138.902247999999986
11
162.4212310000000059
21
-138.7484519999999861
0
LINE
8
BLACK
6
CONTINUOUS
10
162.4212310000000059
20
-138.7484519999999861
11
162.367890999999986
21
-138.5842899999999815
0
LINE
8
BLACK
6
CONTINUOUS
10
162.367890999999986
20
-138.5842899999999815
11
162.3408890000000042
21
-138.4138049999999964
0
LINE
8
BLACK
6
CONTINUOUS
10
162.3408890000000042
20
-138.4138049999999964
11
162.3408890000000042
21
-138.2411950000000047
0
LINE
8
BLACK
6
CONTINUOUS
10
162.3408890000000042
20
-138.2411950000000047
11
162.3412589999999796
21
-138.2388579999999934
0
LINE
8
BLACK
6
CONTINUOUS
10
162.3412589999999796
20
-138.2388579999999934
11
162.367890999999986
21
-138.0707099999999912
0
LINE
8
BLACK
6
CONTINUOUS
10
162.367890999999986
20
-138.0707099999999912
11
162.4212310000000059
21
-137.9065479999999866
0
LINE
8
BLACK
6
CONTINUOUS
10
162.4212310000000059
20
-137.9065479999999866
11
162.4995940000000019
21
-137.7527519999999868
0
LINE
8
BLACK
6
CONTINUOUS
10
162.4995940000000019
20
-137.7527519999999868
11
162.601050999999984
21
-137.6131069999999852
0
LINE
8
BLACK
6
CONTINUOUS
10
162.601050999999984
20
-137.6131069999999852
11
162.7231050000000039
21
-137.4910529999999937
0
LINE
8
BLACK
6
CONTINUOUS
10
162.7231050000000039
20
-137.4910529999999937
11
162.8627500000000055
21
-137.3895959999999832
0
LINE
8
BLACK
6
CONTINUOUS
10
162.8627500000000055
20
-137.3895959999999832
11
163.0165460000000053
21
-137.3112329999999872
0
LINE
8
BLACK
6
CONTINUOUS
10
163.0165460000000053
20
-137.3112329999999872
11
163.1807079999999814
21
-137.2578929999999957
0
LINE
8
BLACK
6
CONTINUOUS
10
163.1807079999999814
20
-137.2578929999999957
11
163.351192999999995
21
-137.2308909999999855
0
LINE
8
BLACK
6
CONTINUOUS
10
163.351192999999995
20
-137.2308909999999855
11
163.5238029999999867
21
-137.2308909999999855
0
LINE
8
BLACK
6
CONTINUOUS
10
163.5238029999999867
20
-137.2308909999999855
11
163.6942880000000002
21
-137.2578929999999957
0
LINE
8
BLACK
6
CONTINUOUS
10
162.5374979999999994
20
-138.4161420000000078
11
162.5720839999999896
21
-138.5900199999999813
0
LINE
8
BLACK
6
CONTINUOUS
10
162.5720839999999896
20
-138.5900199999999813
11
162.6399279999999976
21
-138.7538099999999872
0
LINE
8
BLACK
6
CONTINUOUS
10
162.6399279999999976
20
-138.7538099999999872
11
162.7384219999999857
21
-138.9012170000000026
0
LINE
8
BLACK
6
CONTINUOUS
10
162.7384219999999857
20
-138.9012170000000026
11
162.8637809999999888
21
-139.0265760000000057
0
LINE
8
BLACK
6
CONTINUOUS
10
162.8637809999999888
20
-139.0265760000000057
11
163.0111880000000042
21
-139.1250699999999938
0
LINE
8
BLACK
6
CONTINUOUS
10
163.0111880000000042
20
-139.1250699999999938
11
163.1749779999999816
21
-139.1929140000000018
0
LINE
8
BLACK
6
CONTINUOUS
10
163.1749779999999816
20
-139.1929140000000018
11
163.3488559999999836
21
-139.227499999999992
0
LINE
8
BLACK
6
CONTINUOUS
10
163.3488559999999836
20
-139.227499999999992
11
163.5261399999999981
21
-139.227499999999992
0
LINE
8
BLACK
6
CONTINUOUS
10
163.5261399999999981
20
-139.227499999999992
11
163.700018
21
-139.1929140000000018
0
LINE
8
BLACK
6
CONTINUOUS
10
163.700018
20
-139.1929140000000018
11
163.8638080000000059
21
-139.1250699999999938
0
LINE
8
BLACK
6
CONTINUOUS
10
163.8638080000000059
20
-139.1250699999999938
11
164.0112149999999929
21
-139.0265760000000057
0
LINE
8
BLACK
6
CONTINUOUS
10
164.0112149999999929
20
-139.0265760000000057
11
164.136573999999996
21
-138.9012170000000026
0
LINE
8
BLACK
6
CONTINUOUS
10
164.136573999999996
20
-138.9012170000000026
11
164.2350679999999841
21
-138.7538099999999872
0
LINE
8
BLACK
6
CONTINUOUS
10
164.2350679999999841
20
-138.7538099999999872
11
164.3029119999999921
21
-138.5900199999999813
0
LINE
8
BLACK
6
CONTINUOUS
10
164.3029119999999921
20
-138.5900199999999813
11
164.3374979999999823
21
-138.4161420000000078
0
LINE
8
BLACK
6
CONTINUOUS
10
164.3374979999999823
20
-138.4161420000000078
11
164.3374979999999823
21
-138.2388579999999934
0
LINE
8
BLACK
6
CONTINUOUS
10
164.3374979999999823
20
-138.2388579999999934
11
164.3029119999999921
21
-138.0649799999999914
0
LINE
8
BLACK
6
CONTINUOUS
10
164.3029119999999921
20
-138.0649799999999914
11
164.2350679999999841
21
-137.9011899999999855
0
LINE
8
BLACK
6
CONTINUOUS
10
164.2350679999999841
20
-137.9011899999999855
11
164.136573999999996
21
-137.7537829999999985
0
LINE
8
BLACK
6
CONTINUOUS
10
164.136573999999996
20
-137.7537829999999985
11
164.0112149999999929
21
-137.6284239999999954
0
LINE
8
BLACK
6
CONTINUOUS
10
164.0112149999999929
20
-137.6284239999999954
11
163.8638080000000059
21
-137.5299300000000073
0
LINE
8
BLACK
6
CONTINUOUS
10
163.8638080000000059
20
-137.5299300000000073
11
163.700018
21
-137.4620859999999993
0
LINE
8
BLACK
6
CONTINUOUS
10
163.700018
20
-137.4620859999999993
11
163.5261399999999981
21
-137.4274999999999807
0
LINE
8
BLACK
6
CONTINUOUS
10
163.5261399999999981
20
-137.4274999999999807
11
163.3488559999999836
21
-137.4274999999999807
0
LINE
8
BLACK
6
CONTINUOUS
10
163.3488559999999836
20
-137.4274999999999807
11
163.1749779999999816
21
-137.4620859999999993
0
LINE
8
BLACK
6
CONTINUOUS
10
163.1749779999999816
20
-137.4620859999999993
11
163.0111880000000042
21
-137.5299300000000073
0
LINE
8
BLACK
6
CONTINUOUS
10
163.0111880000000042
20
-137.5299300000000073
11
162.8637809999999888
21
-137.6284239999999954
0
LINE
8
BLACK
6
CONTINUOUS
10
162.8637809999999888
20
-137.6284239999999954
11
162.7384219999999857
21
-137.7537829999999985
0
LINE
8
BLACK
6
CONTINUOUS
10
162.7384219999999857
20
-137.7537829999999985
11
162.6399279999999976
21
-137.9011899999999855
0
LINE
8
BLACK
6
CONTINUOUS
10
162.6399279999999976
20
-137.9011899999999855
11
162.5720839999999896
21
-138.0649799999999914
0
LINE
8
BLACK
6
CONTINUOUS
10
162.5720839999999896
20
-138.0649799999999914
11
162.5374979999999994
21
-138.2388579999999934
0
LINE
8
BLACK
6
CONTINUOUS
10
162.5374979999999994
20
-138.2388579999999934
11
162.5374979999999994
21
-138.4161420000000078
0
LINE
8
BLACK
6
CONTINUOUS
10
84.0215740000000011
20
-121.9454349999999891
11
84.0493249999999961
21
-121.9547199999999947
0
LINE
8
BLACK
6
CONTINUOUS
10
84.0493249999999961
20
-121.9547199999999947
11
84.0714100000000002
21
-121.9739179999999976
0
LINE
8
BLACK
6
CONTINUOUS
10
84.0714100000000002
20
-121.9739179999999976
11
84.0844680000000011
21
-122.0001069999999999
0
LINE
8
BLACK
6
CONTINUOUS
10
84.0844680000000011
20
-122.0001069999999999
11
84.0869259999999912
21
-122.0146029999999939
0
LINE
8
BLACK
6
CONTINUOUS
10
84.0869259999999912
20
-122.0146029999999939
11
85.0495659999999987
21
-135.7809869999999819
0
LINE
8
BLACK
6
CONTINUOUS
10
85.0495659999999987
20
-135.7809869999999819
11
85.0491489999999999
21
-135.7956839999999943
0
LINE
8
BLACK
6
CONTINUOUS
10
85.0491489999999999
20
-135.7956839999999943
11
85.0398639999999943
21
-135.8234349999999893
0
LINE
8
BLACK
6
CONTINUOUS
10
85.0398639999999943
20
-135.8234349999999893
11
85.0206659999999914
21
-135.8455199999999934
0
LINE
8
BLACK
6
CONTINUOUS
10
85.0206659999999914
20
-135.8455199999999934
11
84.9944769999999892
21
-135.8585779999999943
0
LINE
8
BLACK
6
CONTINUOUS
10
84.9944769999999892
20
-135.8585779999999943
11
84.9944749999999942
21
-135.8585779999999943
0
LINE
8
BLACK
6
CONTINUOUS
10
84.9944749999999942
20
-135.8585779999999943
11
84.9799809999999951
21
-135.8610359999999844
0
LINE
8
BLACK
6
CONTINUOUS
10
84.9799809999999951
20
-135.8610359999999844
11
71.2135969999999929
21
-136.8236760000000061
0
LINE
8
BLACK
6
CONTINUOUS
10
71.2135969999999929
20
-136.8236760000000061
11
71.1988999999999947
21
-136.8232590000000073
0
LINE
8
BLACK
6
CONTINUOUS
10
71.1988999999999947
20
-136.8232590000000073
11
71.1711489999999998
21
-136.8139740000000018
0
LINE
8
BLACK
6
CONTINUOUS
10
71.1711489999999998
20
-136.8139740000000018
11
71.1490639999999956
21
-136.7947759999999846
0
LINE
8
BLACK
6
CONTINUOUS
10
71.1490639999999956
20
-136.7947759999999846
11
71.1360059999999947
21
-136.7685869999999966
0
LINE
8
BLACK
6
CONTINUOUS
10
71.1360059999999947
20
-136.7685869999999966
11
71.1360049999999973
21
-136.7685850000000016
0
LINE
8
BLACK
6
CONTINUOUS
10
71.1360049999999973
20
-136.7685850000000016
11
71.1335479999999905
21
-136.7540909999999883
0
LINE
8
BLACK
6
CONTINUOUS
10
71.1335479999999905
20
-136.7540909999999883
11
70.1709079999999972
21
-122.9877070000000003
0
LINE
8
BLACK
6
CONTINUOUS
10
70.1709079999999972
20
-122.9877070000000003
11
70.171324999999996
21
-122.9730099999999879
0
LINE
8
BLACK
6
CONTINUOUS
10
70.171324999999996
20
-122.9730099999999879
11
70.1806100000000015
21
-122.945258999999993
0
LINE
8
BLACK
6
CONTINUOUS
10
70.1806100000000015
20
-122.945258999999993
11
70.1998079999999902
21
-122.9231739999999888
0
LINE
8
BLACK
6
CONTINUOUS
10
70.1998079999999902
20
-122.9231739999999888
11
70.2259969999999925
21
-122.9101159999999879
0
LINE
8
BLACK
6
CONTINUOUS
10
70.2259969999999925
20
-122.9101159999999879
11
70.2404930000000007
21
-122.9076579999999979
0
LINE
8
BLACK
6
CONTINUOUS
10
70.2404930000000007
20
-122.9076579999999979
11
84.0068770000000029
21
-121.9450179999999904
0
LINE
8
BLACK
6
CONTINUOUS
10
84.0068770000000029
20
-121.9450179999999904
11
84.0215740000000011
21
-121.9454349999999891
0
LINE
8
BLACK
6
CONTINUOUS
10
70.3257729999999981
20
-123.0520599999999973
11
71.2779499999999899
21
-136.6688100000000077
0
LINE
8
BLACK
6
CONTINUOUS
10
71.2779499999999899
20
-136.6688100000000077
11
84.8947000000000003
21
-135.7166330000000016
0
LINE
8
BLACK
6
CONTINUOUS
10
84.8947000000000003
20
-135.7166330000000016
11
83.9425229999999942
21
-122.0998829999999913
0
LINE
8
BLACK
6
CONTINUOUS
10
83.9425229999999942
20
-122.0998829999999913
11
70.3257729999999981
21
-123.0520599999999973
0
LINE
8
BLACK
6
CONTINUOUS
10
103.0155069999999995
20
-120.6015699999999953
11
103.0432579999999945
21
-120.6108550000000008
0
LINE
8
BLACK
6
CONTINUOUS
10
103.0432579999999945
20
-120.6108550000000008
11
103.0653429999999986
21
-120.6300529999999895
0
LINE
8
BLACK
6
CONTINUOUS
10
103.0653429999999986
20
-120.6300529999999895
11
103.0784009999999995
21
-120.6562419999999918
0
LINE
8
BLACK
6
CONTINUOUS
10
103.0784009999999995
20
-120.6562419999999918
11
103.0808589999999896
21
-120.6707380000000001
0
LINE
8
BLACK
6
CONTINUOUS
10
103.0808589999999896
20
-120.6707380000000001
11
104.0434989999999971
21
-134.437121999999988
0
LINE
8
BLACK
6
CONTINUOUS
10
104.0434989999999971
20
-134.437121999999988
11
104.0430819999999983
21
-134.4518190000000004
0
LINE
8
BLACK
6
CONTINUOUS
10
104.0430819999999983
20
-134.4518190000000004
11
104.0337969999999927
21
-134.4795699999999954
0
LINE
8
BLACK
6
CONTINUOUS
10
104.0337969999999927
20
-134.4795699999999954
11
104.0145989999999898
21
-134.5016549999999995
0
LINE
8
BLACK
6
CONTINUOUS
10
104.0145989999999898
20
-134.5016549999999995
11
103.9884100000000018
21
-134.5147130000000004
0
LINE
8
BLACK
6
CONTINUOUS
10
103.9884100000000018
20
-134.5147130000000004
11
103.9884079999999926
21
-134.5147130000000004
0
LINE
8
BLACK
6
CONTINUOUS
10
103.9884079999999926
20
-134.5147130000000004
11
103.9739139999999935
21
-134.5171709999999905
0
LINE
8
BLACK
6
CONTINUOUS
10
103.9739139999999935
20
-134.5171709999999905
11
90.2075299999999913
21
-135.4798109999999838
0
LINE
8
BLACK
6
CONTINUOUS
10
90.2075299999999913
20
-135.4798109999999838
11
90.1928329999999931
21
-135.479393999999985
0
LINE
8
BLACK
6
CONTINUOUS
10
90.1928329999999931
20
-135.479393999999985
11
90.1650819999999982
21
-135.4701090000000079
0
LINE
8
BLACK
6
CONTINUOUS
10
90.1650819999999982
20
-135.4701090000000079
11
90.142996999999994
21
-135.4509109999999907
0
LINE
8
BLACK
6
CONTINUOUS
10
90.142996999999994
20
-135.4509109999999907
11
90.1299389999999931
21
-135.4247220000000027
0
LINE
8
BLACK
6
CONTINUOUS
10
90.1299389999999931
20
-135.4247220000000027
11
90.1299379999999957
21
-135.4247200000000078
0
LINE
8
BLACK
6
CONTINUOUS
10
90.1299379999999957
20
-135.4247200000000078
11
90.1274809999999889
21
-135.4102259999999944
0
LINE
8
BLACK
6
CONTINUOUS
10
90.1274809999999889
20
-135.4102259999999944
11
89.1648409999999956
21
-121.6438419999999923
0
LINE
8
BLACK
6
CONTINUOUS
10
89.1648409999999956
20
-121.6438419999999923
11
89.1652579999999944
21
-121.6291449999999941
0
LINE
8
BLACK
6
CONTINUOUS
10
89.1652579999999944
20
-121.6291449999999941
11
89.1745429999999999
21
-121.6013939999999991
0
LINE
8
BLACK
6
CONTINUOUS
10
89.1745429999999999
20
-121.6013939999999991
11
89.1937410000000028
21
-121.579308999999995
0
LINE
8
BLACK
6
CONTINUOUS
10
89.1937410000000028
20
-121.579308999999995
11
89.2199299999999909
21
-121.5662509999999941
0
LINE
8
BLACK
6
CONTINUOUS
10
89.2199299999999909
20
-121.5662509999999941
11
89.2344259999999991
21
-121.5637929999999898
0
LINE
8
BLACK
6
CONTINUOUS
10
89.2344259999999991
20
-121.5637929999999898
11
103.0008100000000013
21
-120.6011529999999965
0
LINE
8
BLACK
6
CONTINUOUS
10
103.0008100000000013
20
-120.6011529999999965
11
103.0155069999999995
21
-120.6015699999999953
0
LINE
8
BLACK
6
CONTINUOUS
10
89.3197059999999965
20
-121.7081949999999892
11
90.2718830000000025
21
-135.3249449999999854
0
LINE
8
BLACK
6
CONTINUOUS
10
90.2718830000000025
20
-135.3249449999999854
11
103.8886329999999987
21
-134.3727680000000078
0
LINE
8
BLACK
6
CONTINUOUS
10
103.8886329999999987
20
-134.3727680000000078
11
102.9364559999999926
21
-120.7560179999999974
0
LINE
8
BLACK
6
CONTINUOUS
10
102.9364559999999926
20
-120.7560179999999974
11
89.3197059999999965
21
-121.7081949999999892
0
LINE
8
BLACK
6
CONTINUOUS
10
161.1414969999999869
20
-121.0706299999999942
11
161.1685329999999965
21
-121.081828999999999
0
LINE
8
BLACK
6
CONTINUOUS
10
161.1685329999999965
20
-121.081828999999999
11
161.1892249999999933
21
-121.1025209999999959
0
LINE
8
BLACK
6
CONTINUOUS
10
161.1892249999999933
20
-121.1025209999999959
11
161.2004239999999982
21
-121.1295569999999913
0
LINE
8
BLACK
6
CONTINUOUS
10
161.2004239999999982
20
-121.1295569999999913
11
161.201864999999998
21
-121.1441889999999972
0
LINE
8
BLACK
6
CONTINUOUS
10
161.201864999999998
20
-121.1441889999999972
11
161.201864999999998
21
-134.9441889999999944
0
LINE
8
BLACK
6
CONTINUOUS
10
161.201864999999998
20
-134.9441889999999944
11
161.2004239999999982
21
-134.9588210000000004
0
LINE
8
BLACK
6
CONTINUOUS
10
161.2004239999999982
20
-134.9588210000000004
11
161.1892249999999933
21
-134.9858569999999816
0
LINE
8
BLACK
6
CONTINUOUS
10
161.1892249999999933
20
-134.9858569999999816
11
161.1685329999999965
21
-135.0065490000000068
0
LINE
8
BLACK
6
CONTINUOUS
10
161.1685329999999965
20
-135.0065490000000068
11
161.1414969999999869
21
-135.0177479999999832
0
LINE
8
BLACK
6
CONTINUOUS
10
161.1414969999999869
20
-135.0177479999999832
11
161.1268649999999809
21
-135.019188999999983
0
LINE
8
BLACK
6
CONTINUOUS
10
161.1268649999999809
20
-135.019188999999983
11
147.326864999999998
21
-135.019188999999983
0
LINE
8
BLACK
6
CONTINUOUS
10
147.326864999999998
20
-135.019188999999983
11
147.312232999999992
21
-135.0177479999999832
0
LINE
8
BLACK
6
CONTINUOUS
10
147.312232999999992
20
-135.0177479999999832
11
147.2851969999999824
21
-135.0065490000000068
0
LINE
8
BLACK
6
CONTINUOUS
10
147.2851969999999824
20
-135.0065490000000068
11
147.2645049999999856
21
-134.9858569999999816
0
LINE
8
BLACK
6
CONTINUOUS
10
147.2645049999999856
20
-134.9858569999999816
11
147.2533059999999807
21
-134.9588210000000004
0
LINE
8
BLACK
6
CONTINUOUS
10
147.2533059999999807
20
-134.9588210000000004
11
147.2518649999999809
21
-134.9441889999999944
0
LINE
8
BLACK
6
CONTINUOUS
10
147.2518649999999809
20
-134.9441889999999944
11
147.2518649999999809
21
-121.1441889999999972
0
LINE
8
BLACK
6
CONTINUOUS
10
147.2518649999999809
20
-121.1441889999999972
11
147.2533059999999807
21
-121.1295569999999913
0
LINE
8
BLACK
6
CONTINUOUS
10
147.2533059999999807
20
-121.1295569999999913
11
147.2645049999999856
21
-121.1025209999999959
0
LINE
8
BLACK
6
CONTINUOUS
10
147.2645049999999856
20
-121.1025209999999959
11
147.2851969999999824
21
-121.081828999999999
0
LINE
8
BLACK
6
CONTINUOUS
10
147.2851969999999824
20
-121.081828999999999
11
147.312232999999992
21
-121.0706299999999942
0
LINE
8
BLACK
6
CONTINUOUS
10
147.312232999999992
20
-121.0706299999999942
11
147.326864999999998
21
-121.0691889999999944
0
LINE
8
BLACK
6
CONTINUOUS
10
147.326864999999998
20
-121.0691889999999944
11
161.1268649999999809
21
-121.0691889999999944
0
LINE
8
BLACK
6
CONTINUOUS
10
161.1268649999999809
20
-121.0691889999999944
11
161.1414969999999869
21
-121.0706299999999942
0
LINE
8
BLACK
6
CONTINUOUS
10
147.4018649999999866
20
-121.2191890000000001
11
147.4018649999999866
21
-134.8691890000000058
0
LINE
8
BLACK
6
CONTINUOUS
10
147.4018649999999866
20
-134.8691890000000058
11
161.0518649999999923
21
-134.8691890000000058
0
LINE
8
BLACK
6
CONTINUOUS
10
161.0518649999999923
20
-134.8691890000000058
11
161.0518649999999923
21
-121.2191890000000001
0
LINE
8
BLACK
6
CONTINUOUS
10
161.0518649999999923
20
-121.2191890000000001
11
147.4018649999999866
21
-121.2191890000000001
0
LINE
8
BLACK
6
CONTINUOUS
10
122.0191019999999895
20
-119.2724229999999892
11
122.0468529999999987
21
-119.2817079999999947
0
LINE
8
BLACK
6
CONTINUOUS
10
122.0468529999999987
20
-119.2817079999999947
11
122.0689379999999886
21
-119.3009059999999977
0
LINE
8
BLACK
6
CONTINUOUS
10
122.0689379999999886
20
-119.3009059999999977
11
122.0819959999999895
21
-119.3270949999999999
0
LINE
8
BLACK
6
CONTINUOUS
10
122.0819959999999895
20
-119.3270949999999999
11
122.0844539999999938
21
-119.341590999999994
0
LINE
8
BLACK
6
CONTINUOUS
10
122.0844539999999938
20
-119.341590999999994
11
123.0470940000000013
21
-133.1079749999999819
0
LINE
8
BLACK
6
CONTINUOUS
10
123.0470940000000013
20
-133.1079749999999819
11
123.0466769999999883
21
-133.1226719999999943
0
LINE
8
BLACK
6
CONTINUOUS
10
123.0466769999999883
20
-133.1226719999999943
11
123.037391999999997
21
-133.1504229999999893
0
LINE
8
BLACK
6
CONTINUOUS
10
123.037391999999997
20
-133.1504229999999893
11
123.018193999999994
21
-133.1725079999999934
0
LINE
8
BLACK
6
CONTINUOUS
10
123.018193999999994
20
-133.1725079999999934
11
122.9920049999999918
21
-133.1855659999999943
0
LINE
8
BLACK
6
CONTINUOUS
10
122.9920049999999918
20
-133.1855659999999943
11
122.9920029999999969
21
-133.1855659999999943
0
LINE
8
BLACK
6
CONTINUOUS
10
122.9920029999999969
20
-133.1855659999999943
11
122.9775089999999977
21
-133.1880239999999844
0
LINE
8
BLACK
6
CONTINUOUS
10
122.9775089999999977
20
-133.1880239999999844
11
109.2111249999999956
21
-134.1506640000000061
0
LINE
8
BLACK
6
CONTINUOUS
10
109.2111249999999956
20
-134.1506640000000061
11
109.1964279999999974
21
-134.1502470000000073
0
LINE
8
BLACK
6
CONTINUOUS
10
109.1964279999999974
20
-134.1502470000000073
11
109.1686769999999882
21
-134.1409620000000018
0
LINE
8
BLACK
6
CONTINUOUS
10
109.1686769999999882
20
-134.1409620000000018
11
109.1465919999999983
21
-134.1217639999999847
0
LINE
8
BLACK
6
CONTINUOUS
10
109.1465919999999983
20
-134.1217639999999847
11
109.1335339999999974
21
-134.0955749999999966
0
LINE
8
BLACK
6
CONTINUOUS
10
109.1335339999999974
20
-134.0955749999999966
11
109.1335329999999999
21
-134.0955730000000017
0
LINE
8
BLACK
6
CONTINUOUS
10
109.1335329999999999
20
-134.0955730000000017
11
109.1310759999999931
21
-134.0810789999999884
0
LINE
8
BLACK
6
CONTINUOUS
10
109.1310759999999931
20
-134.0810789999999884
11
108.1684359999999998
21
-120.3146950000000004
0
LINE
8
BLACK
6
CONTINUOUS
10
108.1684359999999998
20
-120.3146950000000004
11
108.1688529999999986
21
-120.299997999999988
0
LINE
8
BLACK
6
CONTINUOUS
10
108.1688529999999986
20
-120.299997999999988
11
108.1781379999999899
21
-120.272246999999993
0
LINE
8
BLACK
6
CONTINUOUS
10
108.1781379999999899
20
-120.272246999999993
11
108.1973359999999929
21
-120.2501619999999889
0
LINE
8
BLACK
6
CONTINUOUS
10
108.1973359999999929
20
-120.2501619999999889
11
108.2235249999999951
21
-120.237103999999988
0
LINE
8
BLACK
6
CONTINUOUS
10
108.2235249999999951
20
-120.237103999999988
11
108.2380209999999892
21
-120.2346459999999979
0
LINE
8
BLACK
6
CONTINUOUS
10
108.2380209999999892
20
-120.2346459999999979
11
122.0044049999999913
21
-119.2720059999999904
0
LINE
8
BLACK
6
CONTINUOUS
10
122.0044049999999913
20
-119.2720059999999904
11
122.0191019999999895
21
-119.2724229999999892
0
LINE
8
BLACK
6
CONTINUOUS
10
108.3233010000000007
20
-120.3790479999999974
11
109.2754779999999926
21
-133.9957980000000077
0
LINE
8
BLACK
6
CONTINUOUS
10
109.2754779999999926
20
-133.9957980000000077
11
122.8922279999999887
21
-133.0436210000000017
0
LINE
8
BLACK
6
CONTINUOUS
10
122.8922279999999887
20
-133.0436210000000017
11
121.9400509999999969
21
-119.4268709999999913
0
LINE
8
BLACK
6
CONTINUOUS
10
121.9400509999999969
20
-119.4268709999999913
11
108.3233010000000007
21
-120.3790479999999974
0
LINE
8
BLACK
6
CONTINUOUS
10
189.1506719999999859
20
-117.9650959999999884
11
189.1653399999999863
21
-117.965960999999993
0
LINE
8
BLACK
6
CONTINUOUS
10
189.1653399999999863
20
-117.965960999999993
11
202.7954389999999876
21
-120.1247559999999908
0
LINE
8
BLACK
6
CONTINUOUS
10
202.7954389999999876
20
-120.1247559999999908
11
202.8096549999999922
21
-120.1284659999999889
0
LINE
8
BLACK
6
CONTINUOUS
10
202.8096549999999922
20
-120.1284659999999889
11
202.8096649999999954
21
-120.128467999999998
0
LINE
8
BLACK
6
CONTINUOUS
10
202.8096649999999954
20
-120.128467999999998
11
202.8346159999999827
21
-120.1437589999999886
0
LINE
8
BLACK
6
CONTINUOUS
10
202.8346159999999827
20
-120.1437589999999886
11
202.8518169999999827
21
-120.1674329999999884
0
LINE
8
BLACK
6
CONTINUOUS
10
202.8518169999999827
20
-120.1674329999999884
11
202.8586489999999856
21
-120.1958879999999965
0
LINE
8
BLACK
6
CONTINUOUS
10
202.8586489999999856
20
-120.1958879999999965
11
202.8586469999999906
21
-120.1958979999999997
0
LINE
8
BLACK
6
CONTINUOUS
10
202.8586469999999906
20
-120.1958979999999997
11
202.8577829999999835
21
-120.2105649999999883
0
LINE
8
BLACK
6
CONTINUOUS
10
202.8577829999999835
20
-120.2105649999999883
11
200.6989879999999857
21
-133.8406650000000013
0
LINE
8
BLACK
6
CONTINUOUS
10
200.6989879999999857
20
-133.8406650000000013
11
200.6952770000000044
21
-133.854881000000006
0
LINE
8
BLACK
6
CONTINUOUS
10
200.6952770000000044
20
-133.854881000000006
11
200.6952759999999785
21
-133.8548909999999807
0
LINE
8
BLACK
6
CONTINUOUS
10
200.6952759999999785
20
-133.8548909999999807
11
200.6799849999999878
21
-133.8798419999999965
0
LINE
8
BLACK
6
CONTINUOUS
10
200.6799849999999878
20
-133.8798419999999965
11
200.6563109999999881
21
-133.8970429999999965
0
LINE
8
BLACK
6
CONTINUOUS
10
200.6563109999999881
20
-133.8970429999999965
11
200.62785599999998
21
-133.9038740000000018
0
LINE
8
BLACK
6
CONTINUOUS
10
200.62785599999998
20
-133.9038740000000018
11
200.6131790000000024
21
-133.9030089999999973
0
LINE
8
BLACK
6
CONTINUOUS
10
200.6131790000000024
20
-133.9030089999999973
11
186.9830790000000036
21
-131.7442139999999995
0
LINE
8
BLACK
6
CONTINUOUS
10
186.9830790000000036
20
-131.7442139999999995
11
186.9688529999999957
21
-131.7405009999999947
0
LINE
8
BLACK
6
CONTINUOUS
10
186.9688529999999957
20
-131.7405009999999947
11
186.94390199999998
21
-131.7252110000000016
0
LINE
8
BLACK
6
CONTINUOUS
10
186.94390199999998
20
-131.7252110000000016
11
186.92670099999998
21
-131.7015370000000019
0
LINE
8
BLACK
6
CONTINUOUS
10
186.92670099999998
20
-131.7015370000000019
11
186.9198700000000031
21
-131.6730819999999937
0
LINE
8
BLACK
6
CONTINUOUS
10
186.9198700000000031
20
-131.6730819999999937
11
186.9207349999999792
21
-131.6584039999999902
0
LINE
8
BLACK
6
CONTINUOUS
10
186.9207349999999792
20
-131.6584039999999902
11
189.0795300000000054
21
-118.0283049999999889
0
LINE
8
BLACK
6
CONTINUOUS
10
189.0795300000000054
20
-118.0283049999999889
11
189.0832429999999817
21
-118.0140789999999953
0
LINE
8
BLACK
6
CONTINUOUS
10
189.0832429999999817
20
-118.0140789999999953
11
189.0985330000000033
21
-117.9891279999999938
0
LINE
8
BLACK
6
CONTINUOUS
10
189.0985330000000033
20
-117.9891279999999938
11
189.1222070000000031
21
-117.9719269999999938
0
LINE
8
BLACK
6
CONTINUOUS
10
189.1222070000000031
20
-117.9719269999999938
11
189.1506619999999828
21
-117.9650949999999909
0
LINE
8
BLACK
6
CONTINUOUS
10
189.1506619999999828
20
-117.9650949999999909
11
189.1506719999999859
21
-117.9650959999999884
0
LINE
8
BLACK
6
CONTINUOUS
10
187.0806209999999794
20
-131.6077919999999892
11
200.5625660000000039
21
-133.7431219999999996
0
LINE
8
BLACK
6
CONTINUOUS
10
200.5625660000000039
20
-133.7431219999999996
11
202.6978959999999859
21
-120.2611769999999893
0
LINE
8
BLACK
6
CONTINUOUS
10
202.6978959999999859
20
-120.2611769999999893
11
189.2159509999999898
21
-118.1258469999999932
0
LINE
8
BLACK
6
CONTINUOUS
10
189.2159509999999898
20
-118.1258469999999932
11
187.0806209999999794
21
-131.6077919999999892
0
LINE
8
BLACK
6
CONTINUOUS
10
170.3346870000000024
20
-114.9864169999999888
11
170.3493550000000027
21
-114.9872819999999933
0
LINE
8
BLACK
6
CONTINUOUS
10
170.3493550000000027
20
-114.9872819999999933
11
183.979454000000004
21
-117.1460769999999911
0
LINE
8
BLACK
6
CONTINUOUS
10
183.979454000000004
20
-117.1460769999999911
11
183.9936699999999803
21
-117.1497869999999892
0
LINE
8
BLACK
6
CONTINUOUS
10
183.9936699999999803
20
-117.1497869999999892
11
183.9936799999999835
21
-117.1497889999999984
0
LINE
8
BLACK
6
CONTINUOUS
10
183.9936799999999835
20
-117.1497889999999984
11
184.0186309999999992
21
-117.165079999999989
0
LINE
8
BLACK
6
CONTINUOUS
10
184.0186309999999992
20
-117.165079999999989
11
184.0358319999999992
21
-117.1887539999999888
0
LINE
8
BLACK
6
CONTINUOUS
10
184.0358319999999992
20
-117.1887539999999888
11
184.042664000000002
21
-117.2172089999999969
0
LINE
8
BLACK
6
CONTINUOUS
10
184.042664000000002
20
-117.2172089999999969
11
184.0426619999999787
21
-117.2172190000000001
0
LINE
8
BLACK
6
CONTINUOUS
10
184.0426619999999787
20
-117.2172190000000001
11
184.041798
21
-117.2318859999999887
0
LINE
8
BLACK
6
CONTINUOUS
10
184.041798
20
-117.2318859999999887
11
181.8830030000000022
21
-130.8619860000000017
0
LINE
8
BLACK
6
CONTINUOUS
10
181.8830030000000022
20
-130.8619860000000017
11
181.8792919999999924
21
-130.8762020000000064
0
LINE
8
BLACK
6
CONTINUOUS
10
181.8792919999999924
20
-130.8762020000000064
11
181.8792909999999949
21
-130.8762119999999811
0
LINE
8
BLACK
6
CONTINUOUS
10
181.8792909999999949
20
-130.8762119999999811
11
181.8640000000000043
21
-130.9011629999999968
0
LINE
8
BLACK
6
CONTINUOUS
10
181.8640000000000043
20
-130.9011629999999968
11
181.8403260000000046
21
-130.9183639999999968
0
LINE
8
BLACK
6
CONTINUOUS
10
181.8403260000000046
20
-130.9183639999999968
11
181.8118709999999965
21
-130.9251950000000022
0
LINE
8
BLACK
6
CONTINUOUS
10
181.8118709999999965
20
-130.9251950000000022
11
181.7971939999999904
21
-130.9243299999999977
0
LINE
8
BLACK
6
CONTINUOUS
10
181.7971939999999904
20
-130.9243299999999977
11
168.1670939999999916
21
-128.7655349999999999
0
LINE
8
BLACK
6
CONTINUOUS
10
168.1670939999999916
20
-128.7655349999999999
11
168.1528679999999838
21
-128.7618219999999951
0
LINE
8
BLACK
6
CONTINUOUS
10
168.1528679999999838
20
-128.7618219999999951
11
168.1279169999999965
21
-128.746532000000002
0
LINE
8
BLACK
6
CONTINUOUS
10
168.1279169999999965
20
-128.746532000000002
11
168.1107159999999965
21
-128.7228580000000022
0
LINE
8
BLACK
6
CONTINUOUS
10
168.1107159999999965
20
-128.7228580000000022
11
168.1038849999999911
21
-128.6944029999999941
0
LINE
8
BLACK
6
CONTINUOUS
10
168.1038849999999911
20
-128.6944029999999941
11
168.1047499999999957
21
-128.6797249999999906
0
LINE
8
BLACK
6
CONTINUOUS
10
168.1047499999999957
20
-128.6797249999999906
11
170.2635449999999935
21
-115.0496259999999893
0
LINE
8
BLACK
6
CONTINUOUS
10
170.2635449999999935
20
-115.0496259999999893
11
170.2672579999999982
21
-115.0353999999999957
0
LINE
8
BLACK
6
CONTINUOUS
10
170.2672579999999982
20
-115.0353999999999957
11
170.2825479999999914
21
-115.0104489999999942
0
LINE
8
BLACK
6
CONTINUOUS
10
170.2825479999999914
20
-115.0104489999999942
11
170.3062219999999911
21
-114.9932479999999941
0
LINE
8
BLACK
6
CONTINUOUS
10
170.3062219999999911
20
-114.9932479999999941
11
170.3346769999999992
21
-114.9864159999999913
0
LINE
8
BLACK
6
CONTINUOUS
10
170.3346769999999992
20
-114.9864159999999913
11
170.3346870000000024
21
-114.9864169999999888
0
LINE
8
BLACK
6
CONTINUOUS
10
168.2646359999999959
20
-128.6291129999999896
11
181.7465809999999919
21
-130.764443
0
LINE
8
BLACK
6
CONTINUOUS
10
181.7465809999999919
20
-130.764443
11
183.8819110000000023
21
-117.2824979999999897
0
LINE
8
BLACK
6
CONTINUOUS
10
183.8819110000000023
20
-117.2824979999999897
11
170.3999660000000063
21
-115.1471679999999935
0
LINE
8
BLACK
6
CONTINUOUS
10
170.3999660000000063
20
-115.1471679999999935
11
168.2646359999999959
21
-128.6291129999999896
0
LINE
8
BLACK
6
CONTINUOUS
10
142.0792329999999879
20
-110.3422869999999989
11
142.1062689999999975
21
-110.3534859999999895
0
LINE
8
BLACK
6
CONTINUOUS
10
142.1062689999999975
20
-110.3534859999999895
11
142.1269609999999943
21
-110.3741780000000006
0
LINE
8
BLACK
6
CONTINUOUS
10
142.1269609999999943
20
-110.3741780000000006
11
142.1381599999999992
21
-110.401213999999996
0
LINE
8
BLACK
6
CONTINUOUS
10
142.1381599999999992
20
-110.401213999999996
11
142.139600999999999
21
-110.4158460000000019
0
LINE
8
BLACK
6
CONTINUOUS
10
142.139600999999999
20
-110.4158460000000019
11
142.139600999999999
21
-124.2158459999999991
0
LINE
8
BLACK
6
CONTINUOUS
10
142.139600999999999
20
-124.2158459999999991
11
142.1381599999999992
21
-124.2304779999999909
0
LINE
8
BLACK
6
CONTINUOUS
10
142.1381599999999992
20
-124.2304779999999909
11
142.1269609999999943
21
-124.2575140000000005
0
LINE
8
BLACK
6
CONTINUOUS
10
142.1269609999999943
20
-124.2575140000000005
11
142.1062689999999975
21
-124.2782059999999973
0
LINE
8
BLACK
6
CONTINUOUS
10
142.1062689999999975
20
-124.2782059999999973
11
142.0792329999999879
21
-124.2894049999999879
0
LINE
8
BLACK
6
CONTINUOUS
10
142.0792329999999879
20
-124.2894049999999879
11
142.0646009999999819
21
-124.2908459999999877
0
LINE
8
BLACK
6
CONTINUOUS
10
142.0646009999999819
20
-124.2908459999999877
11
128.264600999999999
21
-124.2908459999999877
0
LINE
8
BLACK
6
CONTINUOUS
10
128.264600999999999
20
-124.2908459999999877
11
128.249968999999993
21
-124.2894049999999879
0
LINE
8
BLACK
6
CONTINUOUS
10
128.249968999999993
20
-124.2894049999999879
11
128.2229329999999834
21
-124.2782059999999973
0
LINE
8
BLACK
6
CONTINUOUS
10
128.2229329999999834
20
-124.2782059999999973
11
128.2022409999999866
21
-124.2575140000000005
0
LINE
8
BLACK
6
CONTINUOUS
10
128.2022409999999866
20
-124.2575140000000005
11
128.1910419999999817
21
-124.2304779999999909
0
LINE
8
BLACK
6
CONTINUOUS
10
128.1910419999999817
20
-124.2304779999999909
11
128.1896009999999819
21
-124.2158459999999991
0
LINE
8
BLACK
6
CONTINUOUS
10
128.1896009999999819
20
-124.2158459999999991
11
128.1896009999999819
21
-110.4158460000000019
0
LINE
8
BLACK
6
CONTINUOUS
10
128.1896009999999819
20
-110.4158460000000019
11
128.1910419999999817
21
-110.401213999999996
0
LINE
8
BLACK
6
CONTINUOUS
10
128.1910419999999817
20
-110.401213999999996
11
128.2022409999999866
21
-110.3741780000000006
0
LINE
8
BLACK
6
CONTINUOUS
10
128.2022409999999866
20
-110.3741780000000006
11
128.2229329999999834
21
-110.3534859999999895
0
LINE
8
BLACK
6
CONTINUOUS
10
128.2229329999999834
20
-110.3534859999999895
11
128.249968999999993
21
-110.3422869999999989
0
LINE
8
BLACK
6
CONTINUOUS
10
128.249968999999993
20
-110.3422869999999989
11
128.264600999999999
21
-110.3408459999999991
0
LINE
8
BLACK
6
CONTINUOUS
10
128.264600999999999
20
-110.3408459999999991
11
142.0646009999999819
21
-110.3408459999999991
0
LINE
8
BLACK
6
CONTINUOUS
10
142.0646009999999819
20
-110.3408459999999991
11
142.0792329999999879
21
-110.3422869999999989
0
LINE
8
BLACK
6
CONTINUOUS
10
128.3396009999999876
20
-110.4908459999999906
11
128.3396009999999876
21
-124.1408459999999963
0
LINE
8
BLACK
6
CONTINUOUS
10
128.3396009999999876
20
-124.1408459999999963
11
141.9896009999999933
21
-124.1408459999999963
0
LINE
8
BLACK
6
CONTINUOUS
10
141.9896009999999933
20
-124.1408459999999963
11
141.9896009999999933
21
-110.4908459999999906
0
LINE
8
BLACK
6
CONTINUOUS
10
141.9896009999999933
20
-110.4908459999999906
11
128.3396009999999876
21
-110.4908459999999906
0
LINE
8
BLACK
6
CONTINUOUS
10
105.9542879999999911
20
-120.1878929999999883
11
106.1184499999999957
21
-120.241232999999994
0
LINE
8
BLACK
6
CONTINUOUS
10
106.1184499999999957
20
-120.241232999999994
11
106.2722459999999955
21
-120.31959599999999
0
LINE
8
BLACK
6
CONTINUOUS
10
106.2722459999999955
20
-120.31959599999999
11
106.4118909999999971
21
-120.4210530000000006
0
LINE
8
BLACK
6
CONTINUOUS
10
106.4118909999999971
20
-120.4210530000000006
11
106.5339449999999886
21
-120.543106999999992
0
LINE
8
BLACK
6
CONTINUOUS
10
106.5339449999999886
20
-120.543106999999992
11
106.6354019999999991
21
-120.6827519999999936
0
LINE
8
BLACK
6
CONTINUOUS
10
106.6354019999999991
20
-120.6827519999999936
11
106.7137649999999951
21
-120.8365479999999934
0
LINE
8
BLACK
6
CONTINUOUS
10
106.7137649999999951
20
-120.8365479999999934
11
106.7671050000000008
21
-121.000709999999998
0
LINE
8
BLACK
6
CONTINUOUS
10
106.7671050000000008
20
-121.000709999999998
11
106.7941069999999968
21
-121.1711949999999973
0
LINE
8
BLACK
6
CONTINUOUS
10
106.7941069999999968
20
-121.1711949999999973
11
106.7941069999999968
21
-121.343804999999989
0
LINE
8
BLACK
6
CONTINUOUS
10
106.7941069999999968
20
-121.343804999999989
11
106.7671050000000008
21
-121.5142899999999884
0
LINE
8
BLACK
6
CONTINUOUS
10
106.7671050000000008
20
-121.5142899999999884
11
106.7137649999999951
21
-121.6784519999999929
0
LINE
8
BLACK
6
CONTINUOUS
10
106.7137649999999951
20
-121.6784519999999929
11
106.6354019999999991
21
-121.8322479999999928
0
LINE
8
BLACK
6
CONTINUOUS
10
106.6354019999999991
20
-121.8322479999999928
11
106.5339449999999886
21
-121.9718929999999943
0
LINE
8
BLACK
6
CONTINUOUS
10
106.5339449999999886
20
-121.9718929999999943
11
106.4118909999999971
21
-122.093947
0
LINE
8
BLACK
6
CONTINUOUS
10
106.4118909999999971
20
-122.093947
11
106.2722459999999955
21
-122.1954039999999964
0
LINE
8
BLACK
6
CONTINUOUS
10
106.2722459999999955
20
-122.1954039999999964
11
106.1184499999999957
21
-122.2737669999999923
0
LINE
8
BLACK
6
CONTINUOUS
10
106.1184499999999957
20
-122.2737669999999923
11
105.9542879999999911
21
-122.327106999999998
0
LINE
8
BLACK
6
CONTINUOUS
10
105.9542879999999911
20
-122.327106999999998
11
105.7838029999999918
21
-122.354108999999994
0
LINE
8
BLACK
6
CONTINUOUS
10
105.7838029999999918
20
-122.354108999999994
11
105.6111930000000001
21
-122.354108999999994
0
LINE
8
BLACK
6
CONTINUOUS
10
105.6111930000000001
20
-122.354108999999994
11
105.4407080000000008
21
-122.327106999999998
0
LINE
8
BLACK
6
CONTINUOUS
10
105.4407080000000008
20
-122.327106999999998
11
105.2765459999999962
21
-122.2737669999999923
0
LINE
8
BLACK
6
CONTINUOUS
10
105.2765459999999962
20
-122.2737669999999923
11
105.1227499999999964
21
-122.1954039999999964
0
LINE
8
BLACK
6
CONTINUOUS
10
105.1227499999999964
20
-122.1954039999999964
11
104.9831049999999948
21
-122.093947
0
LINE
8
BLACK
6
CONTINUOUS
10
104.9831049999999948
20
-122.093947
11
104.8610509999999891
21
-121.9718929999999943
0
LINE
8
BLACK
6
CONTINUOUS
10
104.8610509999999891
20
-121.9718929999999943
11
104.7595939999999928
21
-121.8322479999999928
0
LINE
8
BLACK
6
CONTINUOUS
10
104.7595939999999928
20
-121.8322479999999928
11
104.6812309999999968
21
-121.6784519999999929
0
LINE
8
BLACK
6
CONTINUOUS
10
104.6812309999999968
20
-121.6784519999999929
11
104.6278909999999911
21
-121.5142899999999884
0
LINE
8
BLACK
6
CONTINUOUS
10
104.6278909999999911
20
-121.5142899999999884
11
104.6008889999999951
21
-121.343804999999989
0
LINE
8
BLACK
6
CONTINUOUS
10
104.6008889999999951
20
-121.343804999999989
11
104.6008889999999951
21
-121.1711949999999973
0
LINE
8
BLACK
6
CONTINUOUS
10
104.6008889999999951
20
-121.1711949999999973
11
104.6012589999999989
21
-121.1688580000000002
0
LINE
8
BLACK
6
CONTINUOUS
10
104.6012589999999989
20
-121.1688580000000002
11
104.6278909999999911
21
-121.000709999999998
0
LINE
8
BLACK
6
CONTINUOUS
10
104.6278909999999911
20
-121.000709999999998
11
104.6812309999999968
21
-120.8365479999999934
0
LINE
8
BLACK
6
CONTINUOUS
10
104.6812309999999968
20
-120.8365479999999934
11
104.7595939999999928
21
-120.6827519999999936
0
LINE
8
BLACK
6
CONTINUOUS
10
104.7595939999999928
20
-120.6827519999999936
11
104.8610509999999891
21
-120.543106999999992
0
LINE
8
BLACK
6
CONTINUOUS
10
104.8610509999999891
20
-120.543106999999992
11
104.9831049999999948
21
-120.4210530000000006
0
LINE
8
BLACK
6
CONTINUOUS
10
104.9831049999999948
20
-120.4210530000000006
11
105.1227499999999964
21
-120.31959599999999
0
LINE
8
BLACK
6
CONTINUOUS
10
105.1227499999999964
20
-120.31959599999999
11
105.2765459999999962
21
-120.241232999999994
0
LINE
8
BLACK
6
CONTINUOUS
10
105.2765459999999962
20
-120.241232999999994
11
105.4407080000000008
21
-120.1878929999999883
0
LINE
8
BLACK
6
CONTINUOUS
10
105.4407080000000008
20
-120.1878929999999883
11
105.6111930000000001
21
-120.1608909999999923
0
LINE
8
BLACK
6
CONTINUOUS
10
105.6111930000000001
20
-120.1608909999999923
11
105.7838029999999918
21
-120.1608909999999923
0
LINE
8
BLACK
6
CONTINUOUS
10
105.7838029999999918
20
-120.1608909999999923
11
105.9542879999999911
21
-120.1878929999999883
0
LINE
8
BLACK
6
CONTINUOUS
10
104.7974979999999903
20
-121.3461420000000004
11
104.8320839999999947
21
-121.5200199999999882
0
LINE
8
BLACK
6
CONTINUOUS
10
104.8320839999999947
20
-121.5200199999999882
11
104.8999279999999885
21
-121.683809999999994
0
LINE
8
BLACK
6
CONTINUOUS
10
104.8999279999999885
20
-121.683809999999994
11
104.9984219999999908
21
-121.8312169999999952
0
LINE
8
BLACK
6
CONTINUOUS
10
104.9984219999999908
20
-121.8312169999999952
11
105.1237809999999939
21
-121.9565759999999983
0
LINE
8
BLACK
6
CONTINUOUS
10
105.1237809999999939
20
-121.9565759999999983
11
105.2711879999999951
21
-122.0550700000000006
0
LINE
8
BLACK
6
CONTINUOUS
10
105.2711879999999951
20
-122.0550700000000006
11
105.434978000000001
21
-122.1229139999999944
0
LINE
8
BLACK
6
CONTINUOUS
10
105.434978000000001
20
-122.1229139999999944
11
105.6088559999999887
21
-122.1574999999999989
0
LINE
8
BLACK
6
CONTINUOUS
10
105.6088559999999887
20
-122.1574999999999989
11
105.786139999999989
21
-122.1574999999999989
0
LINE
8
BLACK
6
CONTINUOUS
10
105.786139999999989
20
-122.1574999999999989
11
105.9600179999999909
21
-122.1229139999999944
0
LINE
8
BLACK
6
CONTINUOUS
10
105.9600179999999909
20
-122.1229139999999944
11
106.1238079999999968
21
-122.0550700000000006
0
LINE
8
BLACK
6
CONTINUOUS
10
106.1238079999999968
20
-122.0550700000000006
11
106.271214999999998
21
-121.9565759999999983
0
LINE
8
BLACK
6
CONTINUOUS
10
106.271214999999998
20
-121.9565759999999983
11
106.3965740000000011
21
-121.8312169999999952
0
LINE
8
BLACK
6
CONTINUOUS
10
106.3965740000000011
20
-121.8312169999999952
11
106.4950679999999892
21
-121.683809999999994
0
LINE
8
BLACK
6
CONTINUOUS
10
106.4950679999999892
20
-121.683809999999994
11
106.5629119999999972
21
-121.5200199999999882
0
LINE
8
BLACK
6
CONTINUOUS
10
106.5629119999999972
20
-121.5200199999999882
11
106.5974980000000016
21
-121.3461420000000004
0
LINE
8
BLACK
6
CONTINUOUS
10
106.5974980000000016
20
-121.3461420000000004
11
106.5974980000000016
21
-121.1688580000000002
0
LINE
8
BLACK
6
CONTINUOUS
10
106.5974980000000016
20
-121.1688580000000002
11
106.5629119999999972
21
-120.9949799999999982
0
LINE
8
BLACK
6
CONTINUOUS
10
106.5629119999999972
20
-120.9949799999999982
11
106.4950679999999892
21
-120.8311899999999923
0
LINE
8
BLACK
6
CONTINUOUS
10
106.4950679999999892
20
-120.8311899999999923
11
106.3965740000000011
21
-120.6837829999999911
0
LINE
8
BLACK
6
CONTINUOUS
10
106.3965740000000011
20
-120.6837829999999911
11
106.271214999999998
21
-120.558423999999988
0
LINE
8
BLACK
6
CONTINUOUS
10
106.271214999999998
20
-120.558423999999988
11
106.1238079999999968
21
-120.4599299999999999
0
LINE
8
BLACK
6
CONTINUOUS
10
106.1238079999999968
20
-120.4599299999999999
11
105.9600179999999909
21
-120.3920859999999919
0
LINE
8
BLACK
6
CONTINUOUS
10
105.9600179999999909
20
-120.3920859999999919
11
105.786139999999989
21
-120.3574999999999875
0
LINE
8
BLACK
6
CONTINUOUS
10
105.786139999999989
20
-120.3574999999999875
11
105.6088559999999887
21
-120.3574999999999875
0
LINE
8
BLACK
6
CONTINUOUS
10
105.6088559999999887
20
-120.3574999999999875
11
105.434978000000001
21
-120.3920859999999919
0
LINE
8
BLACK
6
CONTINUOUS
10
105.434978000000001
20
-120.3920859999999919
11
105.2711879999999951
21
-120.4599299999999999
0
LINE
8
BLACK
6
CONTINUOUS
10
105.2711879999999951
20
-120.4599299999999999
11
105.1237809999999939
21
-120.558423999999988
0
LINE
8
BLACK
6
CONTINUOUS
10
105.1237809999999939
20
-120.558423999999988
11
104.9984219999999908
21
-120.6837829999999911
0
LINE
8
BLACK
6
CONTINUOUS
10
104.9984219999999908
20
-120.6837829999999911
11
104.8999279999999885
21
-120.8311899999999923
0
LINE
8
BLACK
6
CONTINUOUS
10
104.8999279999999885
20
-120.8311899999999923
11
104.8320839999999947
21
-120.9949799999999982
0
LINE
8
BLACK
6
CONTINUOUS
10
104.8320839999999947
20
-120.9949799999999982
11
104.7974979999999903
21
-121.1688580000000002
0
LINE
8
BLACK
6
CONTINUOUS
10
104.7974979999999903
20
-121.1688580000000002
11
104.7974979999999903
21
-121.3461420000000004
0
LINE
8
BLACK
6
CONTINUOUS
10
101.6866539999999901
20
-101.597974999999991
11
101.7144049999999993
21
-101.6072599999999966
0
LINE
8
BLACK
6
CONTINUOUS
10
101.7144049999999993
20
-101.6072599999999966
11
101.7364899999999892
21
-101.6264579999999995
0
LINE
8
BLACK
6
CONTINUOUS
10
101.7364899999999892
20
-101.6264579999999995
11
101.7495479999999901
21
-101.6526470000000018
0
LINE
8
BLACK
6
CONTINUOUS
10
101.7495479999999901
20
-101.6526470000000018
11
101.7520059999999944
21
-101.6671429999999958
0
LINE
8
BLACK
6
CONTINUOUS
10
101.7520059999999944
20
-101.6671429999999958
11
102.7146460000000019
21
-115.433526999999998
0
LINE
8
BLACK
6
CONTINUOUS
10
102.7146460000000019
20
-115.433526999999998
11
102.7142289999999889
21
-115.4482239999999962
0
LINE
8
BLACK
6
CONTINUOUS
10
102.7142289999999889
20
-115.4482239999999962
11
102.7049439999999976
21
-115.4759749999999912
0
LINE
8
BLACK
6
CONTINUOUS
10
102.7049439999999976
20
-115.4759749999999912
11
102.6857459999999946
21
-115.4980599999999953
0
LINE
8
BLACK
6
CONTINUOUS
10
102.6857459999999946
20
-115.4980599999999953
11
102.6595569999999924
21
-115.5111179999999962
0
LINE
8
BLACK
6
CONTINUOUS
10
102.6595569999999924
20
-115.5111179999999962
11
102.6595549999999974
21
-115.5111179999999962
0
LINE
8
BLACK
6
CONTINUOUS
10
102.6595549999999974
20
-115.5111179999999962
11
102.6450609999999983
21
-115.5135760000000005
0
LINE
8
BLACK
6
CONTINUOUS
10
102.6450609999999983
20
-115.5135760000000005
11
88.8786769999999962
21
-116.4762159999999938
0
LINE
8
BLACK
6
CONTINUOUS
10
88.8786769999999962
20
-116.4762159999999938
11
88.863979999999998
21
-116.475798999999995
0
LINE
8
BLACK
6
CONTINUOUS
10
88.863979999999998
20
-116.475798999999995
11
88.836229000000003
21
-116.4665139999999894
0
LINE
8
BLACK
6
CONTINUOUS
10
88.836229000000003
20
-116.4665139999999894
11
88.8141439999999989
21
-116.4473160000000007
0
LINE
8
BLACK
6
CONTINUOUS
10
88.8141439999999989
20
-116.4473160000000007
11
88.801085999999998
21
-116.4211269999999985
0
LINE
8
BLACK
6
CONTINUOUS
10
88.801085999999998
20
-116.4211269999999985
11
88.8010850000000005
21
-116.4211249999999893
0
LINE
8
BLACK
6
CONTINUOUS
10
88.8010850000000005
20
-116.4211249999999893
11
88.7986279999999937
21
-116.4066309999999902
0
LINE
8
BLACK
6
CONTINUOUS
10
88.7986279999999937
20
-116.4066309999999902
11
87.8359880000000004
21
-102.6402470000000022
0
LINE
8
BLACK
6
CONTINUOUS
10
87.8359880000000004
20
-102.6402470000000022
11
87.8364049999999992
21
-102.6255499999999898
0
LINE
8
BLACK
6
CONTINUOUS
10
87.8364049999999992
20
-102.6255499999999898
11
87.8456899999999905
21
-102.5977989999999949
0
LINE
8
BLACK
6
CONTINUOUS
10
87.8456899999999905
20
-102.5977989999999949
11
87.8648879999999934
21
-102.5757139999999907
0
LINE
8
BLACK
6
CONTINUOUS
10
87.8648879999999934
20
-102.5757139999999907
11
87.8910769999999957
21
-102.5626559999999898
0
LINE
8
BLACK
6
CONTINUOUS
10
87.8910769999999957
20
-102.5626559999999898
11
87.9055729999999897
21
-102.5601979999999998
0
LINE
8
BLACK
6
CONTINUOUS
10
87.9055729999999897
20
-102.5601979999999998
11
101.6719569999999919
21
-101.5975579999999923
0
LINE
8
BLACK
6
CONTINUOUS
10
101.6719569999999919
20
-101.5975579999999923
11
101.6866539999999901
21
-101.597974999999991
0
LINE
8
BLACK
6
CONTINUOUS
10
87.9908530000000013
20
-102.7045999999999992
11
88.9430299999999932
21
-116.3213499999999954
0
LINE
8
BLACK
6
CONTINUOUS
10
88.9430299999999932
20
-116.3213499999999954
11
102.5597799999999893
21
-115.3691729999999893
0
LINE
8
BLACK
6
CONTINUOUS
10
102.5597799999999893
20
-115.3691729999999893
11
101.6076029999999975
21
-101.7524229999999932
0
LINE
8
BLACK
6
CONTINUOUS
10
101.6076029999999975
20
-101.7524229999999932
11
87.9908530000000013
21
-102.7045999999999992
0
LINE
8
BLACK
6
CONTINUOUS
10
161.1414969999999869
20
-102.020629999999997
11
161.1685329999999965
21
-102.0318290000000019
0
LINE
8
BLACK
6
CONTINUOUS
10
161.1685329999999965
20
-102.0318290000000019
11
161.1892249999999933
21
-102.0525209999999987
0
LINE
8
BLACK
6
CONTINUOUS
10
161.1892249999999933
20
-102.0525209999999987
11
161.2004239999999982
21
-102.0795569999999941
0
LINE
8
BLACK
6
CONTINUOUS
10
161.2004239999999982
20
-102.0795569999999941
11
161.201864999999998
21
-102.0941890000000001
0
LINE
8
BLACK
6
CONTINUOUS
10
161.201864999999998
20
-102.0941890000000001
11
161.201864999999998
21
-115.8941889999999972
0
LINE
8
BLACK
6
CONTINUOUS
10
161.201864999999998
20
-115.8941889999999972
11
161.2004239999999982
21
-115.908820999999989
0
LINE
8
BLACK
6
CONTINUOUS
10
161.2004239999999982
20
-115.908820999999989
11
161.1892249999999933
21
-115.9358569999999986
0
LINE
8
BLACK
6
CONTINUOUS
10
161.1892249999999933
20
-115.9358569999999986
11
161.1685329999999965
21
-115.9565489999999954
0
LINE
8
BLACK
6
CONTINUOUS
10
161.1685329999999965
20
-115.9565489999999954
11
161.1414969999999869
21
-115.9677480000000003
0
LINE
8
BLACK
6
CONTINUOUS
10
161.1414969999999869
20
-115.9677480000000003
11
161.1268649999999809
21
-115.9691890000000001
0
LINE
8
BLACK
6
CONTINUOUS
10
161.1268649999999809
20
-115.9691890000000001
11
147.326864999999998
21
-115.9691890000000001
0
LINE
8
BLACK
6
CONTINUOUS
10
147.326864999999998
20
-115.9691890000000001
11
147.312232999999992
21
-115.9677480000000003
0
LINE
8
BLACK
6
CONTINUOUS
10
147.312232999999992
20
-115.9677480000000003
11
147.2851969999999824
21
-115.9565489999999954
0
LINE
8
BLACK
6
CONTINUOUS
10
147.2851969999999824
20
-115.9565489999999954
11
147.2645049999999856
21
-115.9358569999999986
0
LINE
8
BLACK
6
CONTINUOUS
10
147.2645049999999856
20
-115.9358569999999986
11
147.2533059999999807
21
-115.908820999999989
0
LINE
8
BLACK
6
CONTINUOUS
10
147.2533059999999807
20
-115.908820999999989
11
147.2518649999999809
21
-115.8941889999999972
0
LINE
8
BLACK
6
CONTINUOUS
10
147.2518649999999809
20
-115.8941889999999972
11
147.2518649999999809
21
-102.0941890000000001
0
LINE
8
BLACK
6
CONTINUOUS
10
147.2518649999999809
20
-102.0941890000000001
11
147.2533059999999807
21
-102.0795569999999941
0
LINE
8
BLACK
6
CONTINUOUS
10
147.2533059999999807
20
-102.0795569999999941
11
147.2645049999999856
21
-102.0525209999999987
0
LINE
8
BLACK
6
CONTINUOUS
10
147.2645049999999856
20
-102.0525209999999987
11
147.2851969999999824
21
-102.0318290000000019
0
LINE
8
BLACK
6
CONTINUOUS
10
147.2851969999999824
20
-102.0318290000000019
11
147.312232999999992
21
-102.020629999999997
0
LINE
8
BLACK
6
CONTINUOUS
10
147.312232999999992
20
-102.020629999999997
11
147.326864999999998
21
-102.0191889999999972
0
LINE
8
BLACK
6
CONTINUOUS
10
147.326864999999998
20
-102.0191889999999972
11
161.1268649999999809
21
-102.0191889999999972
0
LINE
8
BLACK
6
CONTINUOUS
10
161.1268649999999809
20
-102.0191889999999972
11
161.1414969999999869
21
-102.020629999999997
0
LINE
8
BLACK
6
CONTINUOUS
10
147.4018649999999866
20
-102.1691889999999887
11
147.4018649999999866
21
-115.8191889999999944
0
LINE
8
BLACK
6
CONTINUOUS
10
147.4018649999999866
20
-115.8191889999999944
11
161.0518649999999923
21
-115.8191889999999944
0
LINE
8
BLACK
6
CONTINUOUS
10
161.0518649999999923
20
-115.8191889999999944
11
161.0518649999999923
21
-102.1691889999999887
0
LINE
8
BLACK
6
CONTINUOUS
10
161.0518649999999923
20
-102.1691889999999887
11
147.4018649999999866
21
-102.1691889999999887
0
LINE
8
BLACK
6
CONTINUOUS
10
120.6902489999999943
20
-100.2688279999999992
11
120.7179999999999893
21
-100.2781129999999905
0
LINE
8
BLACK
6
CONTINUOUS
10
120.7179999999999893
20
-100.2781129999999905
11
120.7400849999999934
21
-100.2973109999999934
0
LINE
8
BLACK
6
CONTINUOUS
10
120.7400849999999934
20
-100.2973109999999934
11
120.7531429999999943
21
-100.3234999999999957
0
LINE
8
BLACK
6
CONTINUOUS
10
120.7531429999999943
20
-100.3234999999999957
11
120.7556009999999986
21
-100.3379959999999897
0
LINE
8
BLACK
6
CONTINUOUS
10
120.7556009999999986
20
-100.3379959999999897
11
121.7182409999999919
21
-114.1043799999999919
0
LINE
8
BLACK
6
CONTINUOUS
10
121.7182409999999919
20
-114.1043799999999919
11
121.7178239999999931
21
-114.1190769999999901
0
LINE
8
BLACK
6
CONTINUOUS
10
121.7178239999999931
20
-114.1190769999999901
11
121.7085389999999876
21
-114.1468279999999993
0
LINE
8
BLACK
6
CONTINUOUS
10
121.7085389999999876
20
-114.1468279999999993
11
121.6893409999999989
21
-114.1689129999999892
0
LINE
8
BLACK
6
CONTINUOUS
10
121.6893409999999989
20
-114.1689129999999892
11
121.6631519999999966
21
-114.1819709999999901
0
LINE
8
BLACK
6
CONTINUOUS
10
121.6631519999999966
20
-114.1819709999999901
11
121.6631499999999875
21
-114.1819709999999901
0
LINE
8
BLACK
6
CONTINUOUS
10
121.6631499999999875
20
-114.1819709999999901
11
121.6486559999999884
21
-114.1844289999999944
0
LINE
8
BLACK
6
CONTINUOUS
10
121.6486559999999884
20
-114.1844289999999944
11
107.8822720000000004
21
-115.1470690000000019
0
LINE
8
BLACK
6
CONTINUOUS
10
107.8822720000000004
20
-115.1470690000000019
11
107.8675750000000022
21
-115.1466519999999889
0
LINE
8
BLACK
6
CONTINUOUS
10
107.8675750000000022
20
-115.1466519999999889
11
107.839823999999993
21
-115.1373669999999976
0
LINE
8
BLACK
6
CONTINUOUS
10
107.839823999999993
20
-115.1373669999999976
11
107.8177389999999889
21
-115.1181689999999946
0
LINE
8
BLACK
6
CONTINUOUS
10
107.8177389999999889
20
-115.1181689999999946
11
107.8046810000000022
21
-115.0919799999999924
0
LINE
8
BLACK
6
CONTINUOUS
10
107.8046810000000022
20
-115.0919799999999924
11
107.8046799999999905
21
-115.0919779999999975
0
LINE
8
BLACK
6
CONTINUOUS
10
107.8046799999999905
20
-115.0919779999999975
11
107.8022229999999979
21
-115.0774839999999983
0
LINE
8
BLACK
6
CONTINUOUS
10
107.8022229999999979
20
-115.0774839999999983
11
106.8395829999999904
21
-101.3110999999999962
0
LINE
8
BLACK
6
CONTINUOUS
10
106.8395829999999904
20
-101.3110999999999962
11
106.8399999999999892
21
-101.296402999999998
0
LINE
8
BLACK
6
CONTINUOUS
10
106.8399999999999892
20
-101.296402999999998
11
106.8492849999999947
21
-101.2686519999999888
0
LINE
8
BLACK
6
CONTINUOUS
10
106.8492849999999947
20
-101.2686519999999888
11
106.8684829999999977
21
-101.2465669999999989
0
LINE
8
BLACK
6
CONTINUOUS
10
106.8684829999999977
20
-101.2465669999999989
11
106.8946719999999999
21
-101.233508999999998
0
LINE
8
BLACK
6
CONTINUOUS
10
106.8946719999999999
20
-101.233508999999998
11
106.909167999999994
21
-101.2310509999999937
0
LINE
8
BLACK
6
CONTINUOUS
10
106.909167999999994
20
-101.2310509999999937
11
120.6755519999999962
21
-100.2684110000000004
0
LINE
8
BLACK
6
CONTINUOUS
10
120.6755519999999962
20
-100.2684110000000004
11
120.6902489999999943
21
-100.2688279999999992
0
LINE
8
BLACK
6
CONTINUOUS
10
106.9944479999999913
20
-101.3754529999999932
11
107.9466249999999974
21
-114.9922029999999893
0
LINE
8
BLACK
6
CONTINUOUS
10
107.9466249999999974
20
-114.9922029999999893
11
121.5633749999999935
21
-114.0400259999999975
0
LINE
8
BLACK
6
CONTINUOUS
10
121.5633749999999935
20
-114.0400259999999975
11
120.6111979999999875
21
-100.4232760000000013
0
LINE
8
BLACK
6
CONTINUOUS
10
120.6111979999999875
20
-100.4232760000000013
11
106.9944479999999913
21
-101.3754529999999932
0
LINE
8
BLACK
6
CONTINUOUS
10
192.1293499999999881
20
-99.1491120000000024
11
192.1440179999999884
21
-99.1499769999999927
0
LINE
8
BLACK
6
CONTINUOUS
10
192.1440179999999884
20
-99.1499769999999927
11
205.7741169999999897
21
-101.3087719999999905
0
LINE
8
BLACK
6
CONTINUOUS
10
205.7741169999999897
20
-101.3087719999999905
11
205.7883329999999944
21
-101.3124819999999886
0
LINE
8
BLACK
6
CONTINUOUS
10
205.7883329999999944
20
-101.3124819999999886
11
205.7883429999999976
21
-101.3124839999999978
0
LINE
8
BLACK
6
CONTINUOUS
10
205.7883429999999976
20
-101.3124839999999978
11
205.8097379999999816
21
-101.3255959999999902
0
LINE
8
BLACK
6
CONTINUOUS
10
205.8097379999999816
20
-101.3255959999999902
11
205.8132939999999849
21
-101.3277749999999884
0
LINE
8
BLACK
6
CONTINUOUS
10
205.8132939999999849
20
-101.3277749999999884
11
205.8304949999999849
21
-101.3514490000000023
0
LINE
8
BLACK
6
CONTINUOUS
10
205.8304949999999849
20
-101.3514490000000023
11
205.8373269999999877
21
-101.3799039999999962
0
LINE
8
BLACK
6
CONTINUOUS
10
205.8373269999999877
20
-101.3799039999999962
11
205.8373249999999928
21
-101.3799139999999994
0
LINE
8
BLACK
6
CONTINUOUS
10
205.8373249999999928
20
-101.3799139999999994
11
205.8364609999999857
21
-101.3945810000000023
0
LINE
8
BLACK
6
CONTINUOUS
10
205.8364609999999857
20
-101.3945810000000023
11
203.6776659999999879
21
-115.0246810000000011
0
LINE
8
BLACK
6
CONTINUOUS
10
203.6776659999999879
20
-115.0246810000000011
11
203.6739549999999781
21
-115.0388969999999915
0
LINE
8
BLACK
6
CONTINUOUS
10
203.6739549999999781
20
-115.0388969999999915
11
203.6739539999999806
21
-115.0389069999999947
0
LINE
8
BLACK
6
CONTINUOUS
10
203.6739539999999806
20
-115.0389069999999947
11
203.6619989999999802
21
-115.0584139999999991
0
LINE
8
BLACK
6
CONTINUOUS
10
203.6619989999999802
20
-115.0584139999999991
11
203.65866299999999
21
-115.0638579999999962
0
LINE
8
BLACK
6
CONTINUOUS
10
203.65866299999999
20
-115.0638579999999962
11
203.6349889999999903
21
-115.0810589999999962
0
LINE
8
BLACK
6
CONTINUOUS
10
203.6349889999999903
20
-115.0810589999999962
11
203.6065339999999821
21
-115.0878900000000016
0
LINE
8
BLACK
6
CONTINUOUS
10
203.6065339999999821
20
-115.0878900000000016
11
203.5918570000000045
21
-115.087024999999997
0
LINE
8
BLACK
6
CONTINUOUS
10
203.5918570000000045
20
-115.087024999999997
11
189.9617569999999773
21
-112.9282299999999992
0
LINE
8
BLACK
6
CONTINUOUS
10
189.9617569999999773
20
-112.9282299999999992
11
189.9475309999999979
21
-112.9245169999999945
0
LINE
8
BLACK
6
CONTINUOUS
10
189.9475309999999979
20
-112.9245169999999945
11
189.9225799999999822
21
-112.9092270000000013
0
LINE
8
BLACK
6
CONTINUOUS
10
189.9225799999999822
20
-112.9092270000000013
11
189.9053789999999822
21
-112.8855530000000016
0
LINE
8
BLACK
6
CONTINUOUS
10
189.9053789999999822
20
-112.8855530000000016
11
189.8985480000000052
21
-112.8570979999999935
0
LINE
8
BLACK
6
CONTINUOUS
10
189.8985480000000052
20
-112.8570979999999935
11
189.8994129999999814
21
-112.84241999999999
0
LINE
8
BLACK
6
CONTINUOUS
10
189.8994129999999814
20
-112.84241999999999
11
192.0582079999999792
21
-99.2123209999999887
0
LINE
8
BLACK
6
CONTINUOUS
10
192.0582079999999792
20
-99.2123209999999887
11
192.0619209999999839
21
-99.198094999999995
0
LINE
8
BLACK
6
CONTINUOUS
10
192.0619209999999839
20
-99.198094999999995
11
192.0772110000000055
21
-99.1731439999999935
0
LINE
8
BLACK
6
CONTINUOUS
10
192.0772110000000055
20
-99.1731439999999935
11
192.1008850000000052
21
-99.1559429999999935
0
LINE
8
BLACK
6
CONTINUOUS
10
192.1008850000000052
20
-99.1559429999999935
11
192.1293399999999849
21
-99.1491109999999907
0
LINE
8
BLACK
6
CONTINUOUS
10
192.1293399999999849
20
-99.1491109999999907
11
192.1293499999999881
21
-99.1491120000000024
0
LINE
8
BLACK
6
CONTINUOUS
10
190.0592989999999816
20
-112.791807999999989
11
203.5412439999999776
21
-114.9271379999999994
0
LINE
8
BLACK
6
CONTINUOUS
10
203.5412439999999776
20
-114.9271379999999994
11
205.676573999999988
21
-101.4451929999999891
0
LINE
8
BLACK
6
CONTINUOUS
10
205.676573999999988
20
-101.4451929999999891
11
192.1946289999999919
21
-99.3098629999999929
0
LINE
8
BLACK
6
CONTINUOUS
10
192.1946289999999919
20
-99.3098629999999929
11
190.0592989999999816
21
-112.791807999999989
0
LINE
8
BLACK
6
CONTINUOUS
10
173.313366000000002
20
-96.1704330000000027
11
173.3280340000000024
21
-96.1712979999999931
0
LINE
8
BLACK
6
CONTINUOUS
10
173.3280340000000024
20
-96.1712979999999931
11
186.9581330000000037
21
-98.3300929999999909
0
LINE
8
BLACK
6
CONTINUOUS
10
186.9581330000000037
20
-98.3300929999999909
11
186.9723489999999799
21
-98.333802999999989
0
LINE
8
BLACK
6
CONTINUOUS
10
186.9723489999999799
20
-98.333802999999989
11
186.9723589999999831
21
-98.3338049999999981
0
LINE
8
BLACK
6
CONTINUOUS
10
186.9723589999999831
20
-98.3338049999999981
11
186.9973099999999988
21
-98.3490959999999887
0
LINE
8
BLACK
6
CONTINUOUS
10
186.9973099999999988
20
-98.3490959999999887
11
187.0145109999999988
21
-98.3727699999999885
0
LINE
8
BLACK
6
CONTINUOUS
10
187.0145109999999988
20
-98.3727699999999885
11
187.0213430000000017
21
-98.4012249999999966
0
LINE
8
BLACK
6
CONTINUOUS
10
187.0213430000000017
20
-98.4012249999999966
11
187.0213409999999783
21
-98.4012349999999998
0
LINE
8
BLACK
6
CONTINUOUS
10
187.0213409999999783
20
-98.4012349999999998
11
187.0204769999999996
21
-98.4159019999999884
0
LINE
8
BLACK
6
CONTINUOUS
10
187.0204769999999996
20
-98.4159019999999884
11
184.8616820000000018
21
-112.0460020000000014
0
LINE
8
BLACK
6
CONTINUOUS
10
184.8616820000000018
20
-112.0460020000000014
11
184.857970999999992
21
-112.0602179999999919
0
LINE
8
BLACK
6
CONTINUOUS
10
184.857970999999992
20
-112.0602179999999919
11
184.8579699999999946
21
-112.0602279999999951
0
LINE
8
BLACK
6
CONTINUOUS
10
184.8579699999999946
20
-112.0602279999999951
11
184.842679000000004
21
-112.0851789999999966
0
LINE
8
BLACK
6
CONTINUOUS
10
184.842679000000004
20
-112.0851789999999966
11
184.8190050000000042
21
-112.1023799999999966
0
LINE
8
BLACK
6
CONTINUOUS
10
184.8190050000000042
20
-112.1023799999999966
11
184.7905499999999961
21
-112.1092110000000019
0
LINE
8
BLACK
6
CONTINUOUS
10
184.7905499999999961
20
-112.1092110000000019
11
184.77587299999999
21
-112.1083459999999974
0
LINE
8
BLACK
6
CONTINUOUS
10
184.77587299999999
20
-112.1083459999999974
11
171.1457729999999913
21
-109.9495509999999996
0
LINE
8
BLACK
6
CONTINUOUS
10
171.1457729999999913
20
-109.9495509999999996
11
171.1315469999999834
21
-109.9458379999999948
0
LINE
8
BLACK
6
CONTINUOUS
10
171.1315469999999834
20
-109.9458379999999948
11
171.1065959999999961
21
-109.9305480000000017
0
LINE
8
BLACK
6
CONTINUOUS
10
171.1065959999999961
20
-109.9305480000000017
11
171.0893949999999961
21
-109.906874000000002
0
LINE
8
BLACK
6
CONTINUOUS
10
171.0893949999999961
20
-109.906874000000002
11
171.0825639999999908
21
-109.8784189999999938
0
LINE
8
BLACK
6
CONTINUOUS
10
171.0825639999999908
20
-109.8784189999999938
11
171.0834289999999953
21
-109.8637409999999903
0
LINE
8
BLACK
6
CONTINUOUS
10
171.0834289999999953
20
-109.8637409999999903
11
173.2422239999999931
21
-96.233641999999989
0
LINE
8
BLACK
6
CONTINUOUS
10
173.2422239999999931
20
-96.233641999999989
11
173.2459369999999979
21
-96.2194159999999954
0
LINE
8
BLACK
6
CONTINUOUS
10
173.2459369999999979
20
-96.2194159999999954
11
173.261226999999991
21
-96.1944649999999939
0
LINE
8
BLACK
6
CONTINUOUS
10
173.261226999999991
20
-96.1944649999999939
11
173.2849009999999907
21
-96.1772639999999939
0
LINE
8
BLACK
6
CONTINUOUS
10
173.2849009999999907
20
-96.1772639999999939
11
173.3133559999999989
21
-96.170431999999991
0
LINE
8
BLACK
6
CONTINUOUS
10
173.3133559999999989
20
-96.170431999999991
11
173.313366000000002
21
-96.1704330000000027
0
LINE
8
BLACK
6
CONTINUOUS
10
171.2433149999999955
20
-109.8131289999999893
11
184.7252599999999916
21
-111.9484589999999997
0
LINE
8
BLACK
6
CONTINUOUS
10
184.7252599999999916
20
-111.9484589999999997
11
186.860590000000002
21
-98.4665139999999894
0
LINE
8
BLACK
6
CONTINUOUS
10
186.860590000000002
20
-98.4665139999999894
11
173.3786450000000059
21
-96.3311839999999933
0
LINE
8
BLACK
6
CONTINUOUS
10
173.3786450000000059
20
-96.3311839999999933
11
171.2433149999999955
21
-109.8131289999999893
0
LINE
8
BLACK
6
CONTINUOUS
10
142.0792329999999879
20
-91.2922870000000017
11
142.1062689999999975
21
-91.3034859999999924
0
LINE
8
BLACK
6
CONTINUOUS
10
142.1062689999999975
20
-91.3034859999999924
11
142.1269609999999943
21
-91.3241779999999892
0
LINE
8
BLACK
6
CONTINUOUS
10
142.1269609999999943
20
-91.3241779999999892
11
142.1381599999999992
21
-91.3512139999999988
0
LINE
8
BLACK
6
CONTINUOUS
10
142.1381599999999992
20
-91.3512139999999988
11
142.139600999999999
21
-91.3658459999999906
0
LINE
8
BLACK
6
CONTINUOUS
10
142.139600999999999
20
-91.3658459999999906
11
142.139600999999999
21
-105.1658460000000019
0
LINE
8
BLACK
6
CONTINUOUS
10
142.139600999999999
20
-105.1658460000000019
11
142.1381599999999992
21
-105.1804779999999937
0
LINE
8
BLACK
6
CONTINUOUS
10
142.1381599999999992
20
-105.1804779999999937
11
142.1269609999999943
21
-105.2075139999999891
0
LINE
8
BLACK
6
CONTINUOUS
10
142.1269609999999943
20
-105.2075139999999891
11
142.1062689999999975
21
-105.2282060000000001
0
LINE
8
BLACK
6
CONTINUOUS
10
142.1062689999999975
20
-105.2282060000000001
11
142.0792329999999879
21
-105.2394049999999908
0
LINE
8
BLACK
6
CONTINUOUS
10
142.0792329999999879
20
-105.2394049999999908
11
142.0646009999999819
21
-105.2408459999999906
0
LINE
8
BLACK
6
CONTINUOUS
10
142.0646009999999819
20
-105.2408459999999906
11
128.264600999999999
21
-105.2408459999999906
0
LINE
8
BLACK
6
CONTINUOUS
10
128.264600999999999
20
-105.2408459999999906
11
128.249968999999993
21
-105.2394049999999908
0
LINE
8
BLACK
6
CONTINUOUS
10
128.249968999999993
20
-105.2394049999999908
11
128.2229329999999834
21
-105.2282060000000001
0
LINE
8
BLACK
6
CONTINUOUS
10
128.2229329999999834
20
-105.2282060000000001
11
128.2022409999999866
21
-105.2075139999999891
0
LINE
8
BLACK
6
CONTINUOUS
10
128.2022409999999866
20
-105.2075139999999891
11
128.1910419999999817
21
-105.1804779999999937
0
LINE
8
BLACK
6
CONTINUOUS
10
128.1910419999999817
20
-105.1804779999999937
11
128.1896009999999819
21
-105.1658460000000019
0
LINE
8
BLACK
6
CONTINUOUS
10
128.1896009999999819
20
-105.1658460000000019
11
128.1896009999999819
21
-91.3658459999999906
0
LINE
8
BLACK
6
CONTINUOUS
10
128.1896009999999819
20
-91.3658459999999906
11
128.1910419999999817
21
-91.3512139999999988
0
LINE
8
BLACK
6
CONTINUOUS
10
128.1910419999999817
20
-91.3512139999999988
11
128.2022409999999866
21
-91.3241779999999892
0
LINE
8
BLACK
6
CONTINUOUS
10
128.2022409999999866
20
-91.3241779999999892
11
128.2229329999999834
21
-91.3034859999999924
0
LINE
8
BLACK
6
CONTINUOUS
10
128.2229329999999834
20
-91.3034859999999924
11
128.249968999999993
21
-91.2922870000000017
0
LINE
8
BLACK
6
CONTINUOUS
10
128.249968999999993
20
-91.2922870000000017
11
128.264600999999999
21
-91.2908460000000019
0
LINE
8
BLACK
6
CONTINUOUS
10
128.264600999999999
20
-91.2908460000000019
11
142.0646009999999819
21
-91.2908460000000019
0
LINE
8
BLACK
6
CONTINUOUS
10
142.0646009999999819
20
-91.2908460000000019
11
142.0792329999999879
21
-91.2922870000000017
0
LINE
8
BLACK
6
CONTINUOUS
10
128.3396009999999876
20
-91.4408459999999934
11
128.3396009999999876
21
-105.0908459999999991
0
LINE
8
BLACK
6
CONTINUOUS
10
128.3396009999999876
20
-105.0908459999999991
11
141.9896009999999933
21
-105.0908459999999991
0
LINE
8
BLACK
6
CONTINUOUS
10
141.9896009999999933
20
-105.0908459999999991
11
141.9896009999999933
21
-91.4408459999999934
0
LINE
8
BLACK
6
CONTINUOUS
10
141.9896009999999933
20
-91.4408459999999934
11
128.3396009999999876
21
-91.4408459999999934
0
LINE
8
BLACK
6
CONTINUOUS
10
168.6942880000000002
20
-99.5778929999999889
11
168.8584500000000048
21
-99.6312329999999946
0
LINE
8
BLACK
6
CONTINUOUS
10
168.8584500000000048
20
-99.6312329999999946
11
169.0122460000000046
21
-99.7095959999999906
0
LINE
8
BLACK
6
CONTINUOUS
10
169.0122460000000046
20
-99.7095959999999906
11
169.1518910000000062
21
-99.8110530000000011
0
LINE
8
BLACK
6
CONTINUOUS
10
169.1518910000000062
20
-99.8110530000000011
11
169.2739449999999977
21
-99.9331069999999926
0
LINE
8
BLACK
6
CONTINUOUS
10
169.2739449999999977
20
-99.9331069999999926
11
169.3754019999999798
21
-100.0727519999999942
0
LINE
8
BLACK
6
CONTINUOUS
10
169.3754019999999798
20
-100.0727519999999942
11
169.4537650000000042
21
-100.226547999999994
0
LINE
8
BLACK
6
CONTINUOUS
10
169.4537650000000042
20
-100.226547999999994
11
169.5071049999999957
21
-100.3907099999999986
0
LINE
8
BLACK
6
CONTINUOUS
10
169.5071049999999957
20
-100.3907099999999986
11
169.5341070000000059
21
-100.5611949999999979
0
LINE
8
BLACK
6
CONTINUOUS
10
169.5341070000000059
20
-100.5611949999999979
11
169.5341070000000059
21
-100.7338049999999896
0
LINE
8
BLACK
6
CONTINUOUS
10
169.5341070000000059
20
-100.7338049999999896
11
169.5071049999999957
21
-100.9042899999999889
0
LINE
8
BLACK
6
CONTINUOUS
10
169.5071049999999957
20
-100.9042899999999889
11
169.4537650000000042
21
-101.0684519999999935
0
LINE
8
BLACK
6
CONTINUOUS
10
169.4537650000000042
20
-101.0684519999999935
11
169.3754019999999798
21
-101.2222479999999933
0
LINE
8
BLACK
6
CONTINUOUS
10
169.3754019999999798
20
-101.2222479999999933
11
169.2739449999999977
21
-101.3618929999999949
0
LINE
8
BLACK
6
CONTINUOUS
10
169.2739449999999977
20
-101.3618929999999949
11
169.1518910000000062
21
-101.4839470000000006
0
LINE
8
BLACK
6
CONTINUOUS
10
169.1518910000000062
20
-101.4839470000000006
11
169.0122460000000046
21
-101.5854039999999969
0
LINE
8
BLACK
6
CONTINUOUS
10
169.0122460000000046
20
-101.5854039999999969
11
168.8584500000000048
21
-101.6637669999999929
0
LINE
8
BLACK
6
CONTINUOUS
10
168.8584500000000048
20
-101.6637669999999929
11
168.6942880000000002
21
-101.7171069999999986
0
LINE
8
BLACK
6
CONTINUOUS
10
168.6942880000000002
20
-101.7171069999999986
11
168.5238029999999867
21
-101.7441089999999946
0
LINE
8
BLACK
6
CONTINUOUS
10
168.5238029999999867
20
-101.7441089999999946
11
168.351192999999995
21
-101.7441089999999946
0
LINE
8
BLACK
6
CONTINUOUS
10
168.351192999999995
20
-101.7441089999999946
11
168.1807079999999814
21
-101.7171069999999986
0
LINE
8
BLACK
6
CONTINUOUS
10
168.1807079999999814
20
-101.7171069999999986
11
168.0165460000000053
21
-101.6637669999999929
0
LINE
8
BLACK
6
CONTINUOUS
10
168.0165460000000053
20
-101.6637669999999929
11
167.8627500000000055
21
-101.5854039999999969
0
LINE
8
BLACK
6
CONTINUOUS
10
167.8627500000000055
20
-101.5854039999999969
11
167.7231050000000039
21
-101.4839470000000006
0
LINE
8
BLACK
6
CONTINUOUS
10
167.7231050000000039
20
-101.4839470000000006
11
167.601050999999984
21
-101.3618929999999949
0
LINE
8
BLACK
6
CONTINUOUS
10
167.601050999999984
20
-101.3618929999999949
11
167.4995940000000019
21
-101.2222479999999933
0
LINE
8
BLACK
6
CONTINUOUS
10
167.4995940000000019
20
-101.2222479999999933
11
167.4212310000000059
21
-101.0684519999999935
0
LINE
8
BLACK
6
CONTINUOUS
10
167.4212310000000059
20
-101.0684519999999935
11
167.367890999999986
21
-100.9042899999999889
0
LINE
8
BLACK
6
CONTINUOUS
10
167.367890999999986
20
-100.9042899999999889
11
167.3408890000000042
21
-100.7338049999999896
0
LINE
8
BLACK
6
CONTINUOUS
10
167.3408890000000042
20
-100.7338049999999896
11
167.3408890000000042
21
-100.5611949999999979
0
LINE
8
BLACK
6
CONTINUOUS
10
167.3408890000000042
20
-100.5611949999999979
11
167.3412589999999796
21
-100.5588580000000007
0
LINE
8
BLACK
6
CONTINUOUS
10
167.3412589999999796
20
-100.5588580000000007
11
167.367890999999986
21
-100.3907099999999986
0
LINE
8
BLACK
6
CONTINUOUS
10
167.367890999999986
20
-100.3907099999999986
11
167.4212310000000059
21
-100.226547999999994
0
LINE
8
BLACK
6
CONTINUOUS
10
167.4212310000000059
20
-100.226547999999994
11
167.4995940000000019
21
-100.0727519999999942
0
LINE
8
BLACK
6
CONTINUOUS
10
167.4995940000000019
20
-100.0727519999999942
11
167.601050999999984
21
-99.9331069999999926
0
LINE
8
BLACK
6
CONTINUOUS
10
167.601050999999984
20
-99.9331069999999926
11
167.7231050000000039
21
-99.8110530000000011
0
LINE
8
BLACK
6
CONTINUOUS
10
167.7231050000000039
20
-99.8110530000000011
11
167.8627500000000055
21
-99.7095959999999906
0
LINE
8
BLACK
6
CONTINUOUS
10
167.8627500000000055
20
-99.7095959999999906
11
168.0165460000000053
21
-99.6312329999999946
0
LINE
8
BLACK
6
CONTINUOUS
10
168.0165460000000053
20
-99.6312329999999946
11
168.1807079999999814
21
-99.5778929999999889
0
LINE
8
BLACK
6
CONTINUOUS
10
168.1807079999999814
20
-99.5778929999999889
11
168.351192999999995
21
-99.5508909999999929
0
LINE
8
BLACK
6
CONTINUOUS
10
168.351192999999995
20
-99.5508909999999929
11
168.5238029999999867
21
-99.5508909999999929
0
LINE
8
BLACK
6
CONTINUOUS
10
168.5238029999999867
20
-99.5508909999999929
11
168.6942880000000002
21
-99.5778929999999889
0
LINE
8
BLACK
6
CONTINUOUS
10
167.5374979999999994
20
-100.736142000000001
11
167.5720839999999896
21
-100.9100199999999887
0
LINE
8
BLACK
6
CONTINUOUS
10
167.5720839999999896
20
-100.9100199999999887
11
167.6399279999999976
21
-101.0738099999999946
0
LINE
8
BLACK
6
CONTINUOUS
10
167.6399279999999976
20
-101.0738099999999946
11
167.7384219999999857
21
-101.2212169999999958
0
LINE
8
BLACK
6
CONTINUOUS
10
167.7384219999999857
20
-101.2212169999999958
11
167.8637809999999888
21
-101.3465759999999989
0
LINE
8
BLACK
6
CONTINUOUS
10
167.8637809999999888
20
-101.3465759999999989
11
168.0111880000000042
21
-101.4450700000000012
0
LINE
8
BLACK
6
CONTINUOUS
10
168.0111880000000042
20
-101.4450700000000012
11
168.1749779999999816
21
-101.512913999999995
0
LINE
8
BLACK
6
CONTINUOUS
10
168.1749779999999816
20
-101.512913999999995
11
168.3488559999999836
21
-101.5474999999999994
0
LINE
8
BLACK
6
CONTINUOUS
10
168.3488559999999836
20
-101.5474999999999994
11
168.5261399999999981
21
-101.5474999999999994
0
LINE
8
BLACK
6
CONTINUOUS
10
168.5261399999999981
20
-101.5474999999999994
11
168.700018
21
-101.512913999999995
0
LINE
8
BLACK
6
CONTINUOUS
10
168.700018
20
-101.512913999999995
11
168.8638080000000059
21
-101.4450700000000012
0
LINE
8
BLACK
6
CONTINUOUS
10
168.8638080000000059
20
-101.4450700000000012
11
169.0112149999999929
21
-101.3465759999999989
0
LINE
8
BLACK
6
CONTINUOUS
10
169.0112149999999929
20
-101.3465759999999989
11
169.136573999999996
21
-101.2212169999999958
0
LINE
8
BLACK
6
CONTINUOUS
10
169.136573999999996
20
-101.2212169999999958
11
169.2350679999999841
21
-101.0738099999999946
0
LINE
8
BLACK
6
CONTINUOUS
10
169.2350679999999841
20
-101.0738099999999946
11
169.3029119999999921
21
-100.9100199999999887
0
LINE
8
BLACK
6
CONTINUOUS
10
169.3029119999999921
20
-100.9100199999999887
11
169.3374979999999823
21
-100.736142000000001
0
LINE
8
BLACK
6
CONTINUOUS
10
169.3374979999999823
20
-100.736142000000001
11
169.3374979999999823
21
-100.5588580000000007
0
LINE
8
BLACK
6
CONTINUOUS
10
169.3374979999999823
20
-100.5588580000000007
11
169.3029119999999921
21
-100.3849799999999988
0
LINE
8
BLACK
6
CONTINUOUS
10
169.3029119999999921
20
-100.3849799999999988
11
169.2350679999999841
21
-100.2211899999999929
0
LINE
8
BLACK
6
CONTINUOUS
10
169.2350679999999841
20
-100.2211899999999929
11
169.136573999999996
21
-100.0737829999999917
0
LINE
8
BLACK
6
CONTINUOUS
10
169.136573999999996
20
-100.0737829999999917
11
169.0112149999999929
21
-99.9484239999999886
0
LINE
8
BLACK
6
CONTINUOUS
10
169.0112149999999929
20
-99.9484239999999886
11
168.8638080000000059
21
-99.8499300000000005
0
LINE
8
BLACK
6
CONTINUOUS
10
168.8638080000000059
20
-99.8499300000000005
11
168.700018
21
-99.7820859999999925
0
LINE
8
BLACK
6
CONTINUOUS
10
168.700018
20
-99.7820859999999925
11
168.5261399999999981
21
-99.7475000000000023
0
LINE
8
BLACK
6
CONTINUOUS
10
168.5261399999999981
20
-99.7475000000000023
11
168.3488559999999836
21
-99.7475000000000023
0
LINE
8
BLACK
6
CONTINUOUS
10
168.3488559999999836
20
-99.7475000000000023
11
168.1749779999999816
21
-99.7820859999999925
0
LINE
8
BLACK
6
CONTINUOUS
10
168.1749779999999816
20
-99.7820859999999925
11
168.0111880000000042
21
-99.8499300000000005
0
LINE
8
BLACK
6
CONTINUOUS
10
168.0111880000000042
20
-99.8499300000000005
11
167.8637809999999888
21
-99.9484239999999886
0
LINE
8
BLACK
6
CONTINUOUS
10
167.8637809999999888
20
-99.9484239999999886
11
167.7384219999999857
21
-100.0737829999999917
0
LINE
8
BLACK
6
CONTINUOUS
10
167.7384219999999857
20
-100.0737829999999917
11
167.6399279999999976
21
-100.2211899999999929
0
LINE
8
BLACK
6
CONTINUOUS
10
167.6399279999999976
20
-100.2211899999999929
11
167.5720839999999896
21
-100.3849799999999988
0
LINE
8
BLACK
6
CONTINUOUS
10
167.5720839999999896
20
-100.3849799999999988
11
167.5374979999999994
21
-100.5588580000000007
0
LINE
8
BLACK
6
CONTINUOUS
10
167.5374979999999994
20
-100.5588580000000007
11
167.5374979999999994
21
-100.736142000000001
0
LINE
8
BLACK
6
CONTINUOUS
10
100.3578009999999949
20
-82.594380000000001
11
100.3855519999999899
21
-82.6036649999999923
0
LINE
8
BLACK
6
CONTINUOUS
10
100.3855519999999899
20
-82.6036649999999923
11
100.407636999999994
21
-82.6228629999999953
0
LINE
8
BLACK
6
CONTINUOUS
10
100.407636999999994
20
-82.6228629999999953
11
100.4206949999999949
21
-82.6490519999999975
0
LINE
8
BLACK
6
CONTINUOUS
10
100.4206949999999949
20
-82.6490519999999975
11
100.4231529999999992
21
-82.6635479999999916
0
LINE
8
BLACK
6
CONTINUOUS
10
100.4231529999999992
20
-82.6635479999999916
11
101.3857929999999925
21
-96.4299319999999938
0
LINE
8
BLACK
6
CONTINUOUS
10
101.3857929999999925
20
-96.4299319999999938
11
101.3853759999999937
21
-96.4446289999999919
0
LINE
8
BLACK
6
CONTINUOUS
10
101.3853759999999937
20
-96.4446289999999919
11
101.3760910000000024
21
-96.4723800000000011
0
LINE
8
BLACK
6
CONTINUOUS
10
101.3760910000000024
20
-96.4723800000000011
11
101.3568929999999995
21
-96.4944649999999911
0
LINE
8
BLACK
6
CONTINUOUS
10
101.3568929999999995
20
-96.4944649999999911
11
101.3307039999999972
21
-96.507522999999992
0
LINE
8
BLACK
6
CONTINUOUS
10
101.3307039999999972
20
-96.507522999999992
11
101.3307020000000023
21
-96.507522999999992
0
LINE
8
BLACK
6
CONTINUOUS
10
101.3307020000000023
20
-96.507522999999992
11
101.3162079999999889
21
-96.5099809999999962
0
LINE
8
BLACK
6
CONTINUOUS
10
101.3162079999999889
20
-96.5099809999999962
11
87.549824000000001
21
-97.4726209999999895
0
LINE
8
BLACK
6
CONTINUOUS
10
87.549824000000001
20
-97.4726209999999895
11
87.5351270000000028
21
-97.4722039999999907
0
LINE
8
BLACK
6
CONTINUOUS
10
87.5351270000000028
20
-97.4722039999999907
11
87.5073759999999936
21
-97.4629189999999994
0
LINE
8
BLACK
6
CONTINUOUS
10
87.5073759999999936
20
-97.4629189999999994
11
87.4852909999999895
21
-97.4437209999999965
0
LINE
8
BLACK
6
CONTINUOUS
10
87.4852909999999895
20
-97.4437209999999965
11
87.4722330000000028
21
-97.4175319999999942
0
LINE
8
BLACK
6
CONTINUOUS
10
87.4722330000000028
20
-97.4175319999999942
11
87.4722319999999911
21
-97.4175299999999993
0
LINE
8
BLACK
6
CONTINUOUS
10
87.4722319999999911
20
-97.4175299999999993
11
87.4697749999999985
21
-97.4030360000000002
0
LINE
8
BLACK
6
CONTINUOUS
10
87.4697749999999985
20
-97.4030360000000002
11
86.507134999999991
21
-83.636651999999998
0
LINE
8
BLACK
6
CONTINUOUS
10
86.507134999999991
20
-83.636651999999998
11
86.5075519999999898
21
-83.6219549999999998
0
LINE
8
BLACK
6
CONTINUOUS
10
86.5075519999999898
20
-83.6219549999999998
11
86.5168369999999953
21
-83.5942039999999906
0
LINE
8
BLACK
6
CONTINUOUS
10
86.5168369999999953
20
-83.5942039999999906
11
86.5360349999999983
21
-83.5721190000000007
0
LINE
8
BLACK
6
CONTINUOUS
10
86.5360349999999983
20
-83.5721190000000007
11
86.5622240000000005
21
-83.5590609999999998
0
LINE
8
BLACK
6
CONTINUOUS
10
86.5622240000000005
20
-83.5590609999999998
11
86.5767199999999946
21
-83.5566029999999955
0
LINE
8
BLACK
6
CONTINUOUS
10
86.5767199999999946
20
-83.5566029999999955
11
100.3431039999999967
21
-82.5939630000000022
0
LINE
8
BLACK
6
CONTINUOUS
10
100.3431039999999967
20
-82.5939630000000022
11
100.3578009999999949
21
-82.594380000000001
0
LINE
8
BLACK
6
CONTINUOUS
10
86.6619999999999919
20
-83.701004999999995
11
87.614176999999998
21
-97.3177549999999911
0
LINE
8
BLACK
6
CONTINUOUS
10
87.614176999999998
20
-97.3177549999999911
11
101.2309269999999941
21
-96.3655779999999993
0
LINE
8
BLACK
6
CONTINUOUS
10
101.2309269999999941
20
-96.3655779999999993
11
100.2787500000000023
21
-82.7488280000000032
0
LINE
8
BLACK
6
CONTINUOUS
10
100.2787500000000023
20
-82.7488280000000032
11
86.6619999999999919
21
-83.701004999999995
0
LINE
8
BLACK
6
CONTINUOUS
10
161.1414969999999869
20
-82.9706299999999999
11
161.1685329999999965
21
-82.9818289999999905
0
LINE
8
BLACK
6
CONTINUOUS
10
161.1685329999999965
20
-82.9818289999999905
11
161.1892249999999933
21
-83.0025210000000015
0
LINE
8
BLACK
6
CONTINUOUS
10
161.1892249999999933
20
-83.0025210000000015
11
161.2004239999999982
21
-83.0295569999999969
0
LINE
8
BLACK
6
CONTINUOUS
10
161.2004239999999982
20
-83.0295569999999969
11
161.201864999999998
21
-83.0441890000000029
0
LINE
8
BLACK
6
CONTINUOUS
10
161.201864999999998
20
-83.0441890000000029
11
161.201864999999998
21
-96.8441890000000001
0
LINE
8
BLACK
6
CONTINUOUS
10
161.201864999999998
20
-96.8441890000000001
11
161.2004239999999982
21
-96.8588209999999918
0
LINE
8
BLACK
6
CONTINUOUS
10
161.2004239999999982
20
-96.8588209999999918
11
161.1892249999999933
21
-96.8858570000000014
0
LINE
8
BLACK
6
CONTINUOUS
10
161.1892249999999933
20
-96.8858570000000014
11
161.1685329999999965
21
-96.9065489999999983
0
LINE
8
BLACK
6
CONTINUOUS
10
161.1685329999999965
20
-96.9065489999999983
11
161.1414969999999869
21
-96.9177479999999889
0
LINE
8
BLACK
6
CONTINUOUS
10
161.1414969999999869
20
-96.9177479999999889
11
161.1268649999999809
21
-96.9191889999999887
0
LINE
8
BLACK
6
CONTINUOUS
10
161.1268649999999809
20
-96.9191889999999887
11
147.326864999999998
21
-96.9191889999999887
0
LINE
8
BLACK
6
CONTINUOUS
10
147.326864999999998
20
-96.9191889999999887
11
147.312232999999992
21
-96.9177479999999889
0
LINE
8
BLACK
6
CONTINUOUS
10
147.312232999999992
20
-96.9177479999999889
11
147.2851969999999824
21
-96.9065489999999983
0
LINE
8
BLACK
6
CONTINUOUS
10
147.2851969999999824
20
-96.9065489999999983
11
147.2645049999999856
21
-96.8858570000000014
0
LINE
8
BLACK
6
CONTINUOUS
10
147.2645049999999856
20
-96.8858570000000014
11
147.2533059999999807
21
-96.8588209999999918
0
LINE
8
BLACK
6
CONTINUOUS
10
147.2533059999999807
20
-96.8588209999999918
11
147.2518649999999809
21
-96.8441890000000001
0
LINE
8
BLACK
6
CONTINUOUS
10
147.2518649999999809
20
-96.8441890000000001
11
147.2518649999999809
21
-83.0441890000000029
0
LINE
8
BLACK
6
CONTINUOUS
10
147.2518649999999809
20
-83.0441890000000029
11
147.2533059999999807
21
-83.0295569999999969
0
LINE
8
BLACK
6
CONTINUOUS
10
147.2533059999999807
20
-83.0295569999999969
11
147.2645049999999856
21
-83.0025210000000015
0
LINE
8
BLACK
6
CONTINUOUS
10
147.2645049999999856
20
-83.0025210000000015
11
147.2851969999999824
21
-82.9818289999999905
0
LINE
8
BLACK
6
CONTINUOUS
10
147.2851969999999824
20
-82.9818289999999905
11
147.312232999999992
21
-82.9706299999999999
0
LINE
8
BLACK
6
CONTINUOUS
10
147.312232999999992
20
-82.9706299999999999
11
147.326864999999998
21
-82.9691890000000001
0
LINE
8
BLACK
6
CONTINUOUS
10
147.326864999999998
20
-82.9691890000000001
11
161.1268649999999809
21
-82.9691890000000001
0
LINE
8
BLACK
6
CONTINUOUS
10
161.1268649999999809
20
-82.9691890000000001
11
161.1414969999999869
21
-82.9706299999999999
0
LINE
8
BLACK
6
CONTINUOUS
10
147.4018649999999866
20
-83.1191889999999916
11
147.4018649999999866
21
-96.7691889999999972
0
LINE
8
BLACK
6
CONTINUOUS
10
147.4018649999999866
20
-96.7691889999999972
11
161.0518649999999923
21
-96.7691889999999972
0
LINE
8
BLACK
6
CONTINUOUS
10
161.0518649999999923
20
-96.7691889999999972
11
161.0518649999999923
21
-83.1191889999999916
0
LINE
8
BLACK
6
CONTINUOUS
10
161.0518649999999923
20
-83.1191889999999916
11
147.4018649999999866
21
-83.1191889999999916
0
LINE
8
BLACK
6
CONTINUOUS
10
119.3613959999999992
20
-81.2652329999999949
11
119.3891469999999941
21
-81.2745180000000005
0
LINE
8
BLACK
6
CONTINUOUS
10
119.3891469999999941
20
-81.2745180000000005
11
119.4112319999999983
21
-81.2937160000000034
0
LINE
8
BLACK
6
CONTINUOUS
10
119.4112319999999983
20
-81.2937160000000034
11
119.4242899999999992
21
-81.3199049999999914
0
LINE
8
BLACK
6
CONTINUOUS
10
119.4242899999999992
20
-81.3199049999999914
11
119.4267479999999892
21
-81.3344009999999997
0
LINE
8
BLACK
6
CONTINUOUS
10
119.4267479999999892
20
-81.3344009999999997
11
120.3893879999999967
21
-95.1007850000000019
0
LINE
8
BLACK
6
CONTINUOUS
10
120.3893879999999967
20
-95.1007850000000019
11
120.388970999999998
21
-95.1154820000000001
0
LINE
8
BLACK
6
CONTINUOUS
10
120.388970999999998
20
-95.1154820000000001
11
120.3796859999999924
21
-95.1432329999999951
0
LINE
8
BLACK
6
CONTINUOUS
10
120.3796859999999924
20
-95.1432329999999951
11
120.3604879999999895
21
-95.1653179999999992
0
LINE
8
BLACK
6
CONTINUOUS
10
120.3604879999999895
20
-95.1653179999999992
11
120.3342990000000015
21
-95.1783760000000001
0
LINE
8
BLACK
6
CONTINUOUS
10
120.3342990000000015
20
-95.1783760000000001
11
120.3342969999999923
21
-95.1783760000000001
0
LINE
8
BLACK
6
CONTINUOUS
10
120.3342969999999923
20
-95.1783760000000001
11
120.3198029999999932
21
-95.1808339999999902
0
LINE
8
BLACK
6
CONTINUOUS
10
120.3198029999999932
20
-95.1808339999999902
11
106.553418999999991
21
-96.1434739999999977
0
LINE
8
BLACK
6
CONTINUOUS
10
106.553418999999991
20
-96.1434739999999977
11
106.5387219999999928
21
-96.1430569999999989
0
LINE
8
BLACK
6
CONTINUOUS
10
106.5387219999999928
20
-96.1430569999999989
11
106.5109709999999978
21
-96.1337719999999933
0
LINE
8
BLACK
6
CONTINUOUS
10
106.5109709999999978
20
-96.1337719999999933
11
106.4888859999999937
21
-96.1145739999999904
0
LINE
8
BLACK
6
CONTINUOUS
10
106.4888859999999937
20
-96.1145739999999904
11
106.4758279999999928
21
-96.0883850000000024
0
LINE
8
BLACK
6
CONTINUOUS
10
106.4758279999999928
20
-96.0883850000000024
11
106.4758269999999953
21
-96.0883829999999932
0
LINE
8
BLACK
6
CONTINUOUS
10
106.4758269999999953
20
-96.0883829999999932
11
106.4733699999999885
21
-96.0738889999999941
0
LINE
8
BLACK
6
CONTINUOUS
10
106.4733699999999885
20
-96.0738889999999941
11
105.5107299999999952
21
-82.3075049999999919
0
LINE
8
BLACK
6
CONTINUOUS
10
105.5107299999999952
20
-82.3075049999999919
11
105.511146999999994
21
-82.2928079999999937
0
LINE
8
BLACK
6
CONTINUOUS
10
105.511146999999994
20
-82.2928079999999937
11
105.5204319999999996
21
-82.2650569999999988
0
LINE
8
BLACK
6
CONTINUOUS
10
105.5204319999999996
20
-82.2650569999999988
11
105.5396299999999883
21
-82.2429719999999946
0
LINE
8
BLACK
6
CONTINUOUS
10
105.5396299999999883
20
-82.2429719999999946
11
105.5658189999999905
21
-82.2299139999999937
0
LINE
8
BLACK
6
CONTINUOUS
10
105.5658189999999905
20
-82.2299139999999937
11
105.5803149999999988
21
-82.2274559999999894
0
LINE
8
BLACK
6
CONTINUOUS
10
105.5803149999999988
20
-82.2274559999999894
11
119.346699000000001
21
-81.2648159999999962
0
LINE
8
BLACK
6
CONTINUOUS
10
119.346699000000001
20
-81.2648159999999962
11
119.3613959999999992
21
-81.2652329999999949
0
LINE
8
BLACK
6
CONTINUOUS
10
105.6655949999999962
20
-82.3718580000000031
11
106.6177720000000022
21
-95.9886079999999993
0
LINE
8
BLACK
6
CONTINUOUS
10
106.6177720000000022
20
-95.9886079999999993
11
120.2345219999999983
21
-95.0364309999999932
0
LINE
8
BLACK
6
CONTINUOUS
10
120.2345219999999983
20
-95.0364309999999932
11
119.2823449999999923
21
-81.4196809999999971
0
LINE
8
BLACK
6
CONTINUOUS
10
119.2823449999999923
20
-81.4196809999999971
11
105.6655949999999962
21
-82.3718580000000031
0
LINE
8
BLACK
6
CONTINUOUS
10
122.3742879999999928
20
-84.1478929999999963
11
122.5384499999999974
21
-84.201233000000002
0
LINE
8
BLACK
6
CONTINUOUS
10
122.5384499999999974
20
-84.201233000000002
11
122.6922459999999973
21
-84.279595999999998
0
LINE
8
BLACK
6
CONTINUOUS
10
122.6922459999999973
20
-84.279595999999998
11
122.8318909999999988
21
-84.3810529999999943
0
LINE
8
BLACK
6
CONTINUOUS
10
122.8318909999999988
20
-84.3810529999999943
11
122.9539449999999903
21
-84.503107
0
LINE
8
BLACK
6
CONTINUOUS
10
122.9539449999999903
20
-84.503107
11
123.0554020000000008
21
-84.6427520000000015
0
LINE
8
BLACK
6
CONTINUOUS
10
123.0554020000000008
20
-84.6427520000000015
11
123.1337649999999968
21
-84.7965480000000014
0
LINE
8
BLACK
6
CONTINUOUS
10
123.1337649999999968
20
-84.7965480000000014
11
123.1871049999999883
21
-84.9607099999999917
0
LINE
8
BLACK
6
CONTINUOUS
10
123.1871049999999883
20
-84.9607099999999917
11
123.2141069999999985
21
-85.1311949999999911
0
LINE
8
BLACK
6
CONTINUOUS
10
123.2141069999999985
20
-85.1311949999999911
11
123.2141069999999985
21
-85.303804999999997
0
LINE
8
BLACK
6
CONTINUOUS
10
123.2141069999999985
20
-85.303804999999997
11
123.1871049999999883
21
-85.4742899999999963
0
LINE
8
BLACK
6
CONTINUOUS
10
123.1871049999999883
20
-85.4742899999999963
11
123.1337649999999968
21
-85.6384520000000009
0
LINE
8
BLACK
6
CONTINUOUS
10
123.1337649999999968
20
-85.6384520000000009
11
123.0554020000000008
21
-85.7922480000000007
0
LINE
8
BLACK
6
CONTINUOUS
10
123.0554020000000008
20
-85.7922480000000007
11
122.9539449999999903
21
-85.9318930000000023
0
LINE
8
BLACK
6
CONTINUOUS
10
122.9539449999999903
20
-85.9318930000000023
11
122.8318909999999988
21
-86.0539469999999937
0
LINE
8
BLACK
6
CONTINUOUS
10
122.8318909999999988
20
-86.0539469999999937
11
122.6922459999999973
21
-86.1554039999999901
0
LINE
8
BLACK
6
CONTINUOUS
10
122.6922459999999973
20
-86.1554039999999901
11
122.5384499999999974
21
-86.2337670000000003
0
LINE
8
BLACK
6
CONTINUOUS
10
122.5384499999999974
20
-86.2337670000000003
11
122.3742879999999928
21
-86.2871069999999918
0
LINE
8
BLACK
6
CONTINUOUS
10
122.3742879999999928
20
-86.2871069999999918
11
122.2038029999999935
21
-86.314109000000002
0
LINE
8
BLACK
6
CONTINUOUS
10
122.2038029999999935
20
-86.314109000000002
11
122.0311929999999876
21
-86.314109000000002
0
LINE
8
BLACK
6
CONTINUOUS
10
122.0311929999999876
20
-86.314109000000002
11
121.8607079999999883
21
-86.2871069999999918
0
LINE
8
BLACK
6
CONTINUOUS
10
121.8607079999999883
20
-86.2871069999999918
11
121.6965459999999979
21
-86.2337670000000003
0
LINE
8
BLACK
6
CONTINUOUS
10
121.6965459999999979
20
-86.2337670000000003
11
121.5427499999999981
21
-86.1554039999999901
0
LINE
8
BLACK
6
CONTINUOUS
10
121.5427499999999981
20
-86.1554039999999901
11
121.4031049999999965
21
-86.0539469999999937
0
LINE
8
BLACK
6
CONTINUOUS
10
121.4031049999999965
20
-86.0539469999999937
11
121.2810509999999908
21
-85.9318930000000023
0
LINE
8
BLACK
6
CONTINUOUS
10
121.2810509999999908
20
-85.9318930000000023
11
121.1795939999999945
21
-85.7922480000000007
0
LINE
8
BLACK
6
CONTINUOUS
10
121.1795939999999945
20
-85.7922480000000007
11
121.1012309999999985
21
-85.6384520000000009
0
LINE
8
BLACK
6
CONTINUOUS
10
121.1012309999999985
20
-85.6384520000000009
11
121.0478909999999928
21
-85.4742899999999963
0
LINE
8
BLACK
6
CONTINUOUS
10
121.0478909999999928
20
-85.4742899999999963
11
121.0208889999999968
21
-85.303804999999997
0
LINE
8
BLACK
6
CONTINUOUS
10
121.0208889999999968
20
-85.303804999999997
11
121.0208889999999968
21
-85.1311949999999911
0
LINE
8
BLACK
6
CONTINUOUS
10
121.0208889999999968
20
-85.1311949999999911
11
121.0212590000000006
21
-85.1288579999999939
0
LINE
8
BLACK
6
CONTINUOUS
10
121.0212590000000006
20
-85.1288579999999939
11
121.0478909999999928
21
-84.9607099999999917
0
LINE
8
BLACK
6
CONTINUOUS
10
121.0478909999999928
20
-84.9607099999999917
11
121.1012309999999985
21
-84.7965480000000014
0
LINE
8
BLACK
6
CONTINUOUS
10
121.1012309999999985
20
-84.7965480000000014
11
121.1795939999999945
21
-84.6427520000000015
0
LINE
8
BLACK
6
CONTINUOUS
10
121.1795939999999945
20
-84.6427520000000015
11
121.2810509999999908
21
-84.503107
0
LINE
8
BLACK
6
CONTINUOUS
10
121.2810509999999908
20
-84.503107
11
121.4031049999999965
21
-84.3810529999999943
0
LINE
8
BLACK
6
CONTINUOUS
10
121.4031049999999965
20
-84.3810529999999943
11
121.5427499999999981
21
-84.279595999999998
0
LINE
8
BLACK
6
CONTINUOUS
10
121.5427499999999981
20
-84.279595999999998
11
121.6965459999999979
21
-84.201233000000002
0
LINE
8
BLACK
6
CONTINUOUS
10
121.6965459999999979
20
-84.201233000000002
11
121.8607079999999883
21
-84.1478929999999963
0
LINE
8
BLACK
6
CONTINUOUS
10
121.8607079999999883
20
-84.1478929999999963
11
122.0311929999999876
21
-84.1208910000000003
0
LINE
8
BLACK
6
CONTINUOUS
10
122.0311929999999876
20
-84.1208910000000003
11
122.2038029999999935
21
-84.1208910000000003
0
LINE
8
BLACK
6
CONTINUOUS
10
122.2038029999999935
20
-84.1208910000000003
11
122.3742879999999928
21
-84.1478929999999963
0
LINE
8
BLACK
6
CONTINUOUS
10
121.217497999999992
20
-85.3061419999999941
11
121.2520839999999964
21
-85.4800199999999961
0
LINE
8
BLACK
6
CONTINUOUS
10
121.2520839999999964
20
-85.4800199999999961
11
121.3199279999999902
21
-85.643810000000002
0
LINE
8
BLACK
6
CONTINUOUS
10
121.3199279999999902
20
-85.643810000000002
11
121.4184219999999925
21
-85.7912170000000032
0
LINE
8
BLACK
6
CONTINUOUS
10
121.4184219999999925
20
-85.7912170000000032
11
121.5437809999999956
21
-85.9165759999999921
0
LINE
8
BLACK
6
CONTINUOUS
10
121.5437809999999956
20
-85.9165759999999921
11
121.6911879999999968
21
-86.0150699999999944
0
LINE
8
BLACK
6
CONTINUOUS
10
121.6911879999999968
20
-86.0150699999999944
11
121.8549779999999885
21
-86.0829140000000024
0
LINE
8
BLACK
6
CONTINUOUS
10
121.8549779999999885
20
-86.0829140000000024
11
122.0288559999999904
21
-86.1174999999999926
0
LINE
8
BLACK
6
CONTINUOUS
10
122.0288559999999904
20
-86.1174999999999926
11
122.2061399999999907
21
-86.1174999999999926
0
LINE
8
BLACK
6
CONTINUOUS
10
122.2061399999999907
20
-86.1174999999999926
11
122.3800179999999926
21
-86.0829140000000024
0
LINE
8
BLACK
6
CONTINUOUS
10
122.3800179999999926
20
-86.0829140000000024
11
122.5438079999999985
21
-86.0150699999999944
0
LINE
8
BLACK
6
CONTINUOUS
10
122.5438079999999985
20
-86.0150699999999944
11
122.6912149999999997
21
-85.9165759999999921
0
LINE
8
BLACK
6
CONTINUOUS
10
122.6912149999999997
20
-85.9165759999999921
11
122.8165739999999886
21
-85.7912170000000032
0
LINE
8
BLACK
6
CONTINUOUS
10
122.8165739999999886
20
-85.7912170000000032
11
122.9150679999999909
21
-85.643810000000002
0
LINE
8
BLACK
6
CONTINUOUS
10
122.9150679999999909
20
-85.643810000000002
11
122.9829119999999989
21
-85.4800199999999961
0
LINE
8
BLACK
6
CONTINUOUS
10
122.9829119999999989
20
-85.4800199999999961
11
123.0174979999999891
21
-85.3061419999999941
0
LINE
8
BLACK
6
CONTINUOUS
10
123.0174979999999891
20
-85.3061419999999941
11
123.0174979999999891
21
-85.1288579999999939
0
LINE
8
BLACK
6
CONTINUOUS
10
123.0174979999999891
20
-85.1288579999999939
11
122.9829119999999989
21
-84.9549799999999919
0
LINE
8
BLACK
6
CONTINUOUS
10
122.9829119999999989
20
-84.9549799999999919
11
122.9150679999999909
21
-84.7911900000000003
0
LINE
8
BLACK
6
CONTINUOUS
10
122.9150679999999909
20
-84.7911900000000003
11
122.8165739999999886
21
-84.6437829999999991
0
LINE
8
BLACK
6
CONTINUOUS
10
122.8165739999999886
20
-84.6437829999999991
11
122.6912149999999997
21
-84.518423999999996
0
LINE
8
BLACK
6
CONTINUOUS
10
122.6912149999999997
20
-84.518423999999996
11
122.5438079999999985
21
-84.4199299999999937
0
LINE
8
BLACK
6
CONTINUOUS
10
122.5438079999999985
20
-84.4199299999999937
11
122.3800179999999926
21
-84.3520859999999999
0
LINE
8
BLACK
6
CONTINUOUS
10
122.3800179999999926
20
-84.3520859999999999
11
122.2061399999999907
21
-84.3174999999999955
0
LINE
8
BLACK
6
CONTINUOUS
10
122.2061399999999907
20
-84.3174999999999955
11
122.0288559999999904
21
-84.3174999999999955
0
LINE
8
BLACK
6
CONTINUOUS
10
122.0288559999999904
20
-84.3174999999999955
11
121.8549779999999885
21
-84.3520859999999999
0
LINE
8
BLACK
6
CONTINUOUS
10
121.8549779999999885
20
-84.3520859999999999
11
121.6911879999999968
21
-84.4199299999999937
0
LINE
8
BLACK
6
CONTINUOUS
10
121.6911879999999968
20
-84.4199299999999937
11
121.5437809999999956
21
-84.518423999999996
0
LINE
8
BLACK
6
CONTINUOUS
10
121.5437809999999956
20
-84.518423999999996
11
121.4184219999999925
21
-84.6437829999999991
0
LINE
8
BLACK
6
CONTINUOUS
10
121.4184219999999925
20
-84.6437829999999991
11
121.3199279999999902
21
-84.7911900000000003
0
LINE
8
BLACK
6
CONTINUOUS
10
121.3199279999999902
20
-84.7911900000000003
11
121.2520839999999964
21
-84.9549799999999919
0
LINE
8
BLACK
6
CONTINUOUS
10
121.2520839999999964
20
-84.9549799999999919
11
121.217497999999992
21
-85.1288579999999939
0
LINE
8
BLACK
6
CONTINUOUS
10
121.217497999999992
20
-85.1288579999999939
11
121.217497999999992
21
-85.3061419999999941
0
LINE
8
BLACK
6
CONTINUOUS
10
142.0792329999999879
20
-72.2422869999999904
11
142.1062689999999975
21
-72.2534859999999952
0
LINE
8
BLACK
6
CONTINUOUS
10
142.1062689999999975
20
-72.2534859999999952
11
142.1269609999999943
21
-72.274177999999992
0
LINE
8
BLACK
6
CONTINUOUS
10
142.1269609999999943
20
-72.274177999999992
11
142.1381599999999992
21
-72.3012140000000016
0
LINE
8
BLACK
6
CONTINUOUS
10
142.1381599999999992
20
-72.3012140000000016
11
142.139600999999999
21
-72.3158459999999934
0
LINE
8
BLACK
6
CONTINUOUS
10
142.139600999999999
20
-72.3158459999999934
11
142.139600999999999
21
-86.1158459999999906
0
LINE
8
BLACK
6
CONTINUOUS
10
142.139600999999999
20
-86.1158459999999906
11
142.1381599999999992
21
-86.1304779999999965
0
LINE
8
BLACK
6
CONTINUOUS
10
142.1381599999999992
20
-86.1304779999999965
11
142.1269609999999943
21
-86.1575139999999919
0
LINE
8
BLACK
6
CONTINUOUS
10
142.1269609999999943
20
-86.1575139999999919
11
142.1062689999999975
21
-86.178206000000003
0
LINE
8
BLACK
6
CONTINUOUS
10
142.1062689999999975
20
-86.178206000000003
11
142.0792329999999879
21
-86.1894049999999936
0
LINE
8
BLACK
6
CONTINUOUS
10
142.0792329999999879
20
-86.1894049999999936
11
142.0646009999999819
21
-86.1908459999999934
0
LINE
8
BLACK
6
CONTINUOUS
10
142.0646009999999819
20
-86.1908459999999934
11
128.264600999999999
21
-86.1908459999999934
0
LINE
8
BLACK
6
CONTINUOUS
10
128.264600999999999
20
-86.1908459999999934
11
128.249968999999993
21
-86.1894049999999936
0
LINE
8
BLACK
6
CONTINUOUS
10
128.249968999999993
20
-86.1894049999999936
11
128.2229329999999834
21
-86.178206000000003
0
LINE
8
BLACK
6
CONTINUOUS
10
128.2229329999999834
20
-86.178206000000003
11
128.2022409999999866
21
-86.1575139999999919
0
LINE
8
BLACK
6
CONTINUOUS
10
128.2022409999999866
20
-86.1575139999999919
11
128.1910419999999817
21
-86.1304779999999965
0
LINE
8
BLACK
6
CONTINUOUS
10
128.1910419999999817
20
-86.1304779999999965
11
128.1896009999999819
21
-86.1158459999999906
0
LINE
8
BLACK
6
CONTINUOUS
10
128.1896009999999819
20
-86.1158459999999906
11
128.1896009999999819
21
-72.3158459999999934
0
LINE
8
BLACK
6
CONTINUOUS
10
128.1896009999999819
20
-72.3158459999999934
11
128.1910419999999817
21
-72.3012140000000016
0
LINE
8
BLACK
6
CONTINUOUS
10
128.1910419999999817
20
-72.3012140000000016
11
128.2022409999999866
21
-72.274177999999992
0
LINE
8
BLACK
6
CONTINUOUS
10
128.2022409999999866
20
-72.274177999999992
11
128.2229329999999834
21
-72.2534859999999952
0
LINE
8
BLACK
6
CONTINUOUS
10
128.2229329999999834
20
-72.2534859999999952
11
128.249968999999993
21
-72.2422869999999904
0
LINE
8
BLACK
6
CONTINUOUS
10
128.249968999999993
20
-72.2422869999999904
11
128.264600999999999
21
-72.2408459999999906
0
LINE
8
BLACK
6
CONTINUOUS
10
128.264600999999999
20
-72.2408459999999906
11
142.0646009999999819
21
-72.2408459999999906
0
LINE
8
BLACK
6
CONTINUOUS
10
142.0646009999999819
20
-72.2408459999999906
11
142.0792329999999879
21
-72.2422869999999904
0
LINE
8
BLACK
6
CONTINUOUS
10
128.3396009999999876
20
-72.3908459999999963
11
128.3396009999999876
21
-86.0408460000000019
0
LINE
8
BLACK
6
CONTINUOUS
10
128.3396009999999876
20
-86.0408460000000019
11
141.9896009999999933
21
-86.0408460000000019
0
LINE
8
BLACK
6
CONTINUOUS
10
141.9896009999999933
20
-86.0408460000000019
11
141.9896009999999933
21
-72.3908459999999963
0
LINE
8
BLACK
6
CONTINUOUS
10
141.9896009999999933
20
-72.3908459999999963
11
128.3396009999999876
21
-72.3908459999999963
0
LINE
8
BLACK
6
CONTINUOUS
10
143.8195790000000045
20
-69.5179609999999997
11
143.9996079999999949
21
-69.5336679999999916
0
LINE
8
BLACK
6
CONTINUOUS
10
143.9996079999999949
20
-69.5336679999999916
11
144.1764359999999954
21
-69.5810069999999996
0
LINE
8
BLACK
6
CONTINUOUS
10
144.1764359999999954
20
-69.5810069999999996
11
144.3423549999999977
21
-69.6583370000000031
0
LINE
8
BLACK
6
CONTINUOUS
10
144.3423549999999977
20
-69.6583370000000031
11
144.4923220000000015
21
-69.7633089999999925
0
LINE
8
BLACK
6
CONTINUOUS
10
144.4923220000000015
20
-69.7633089999999925
11
144.6217790000000036
21
-69.8927300000000002
0
LINE
8
BLACK
6
CONTINUOUS
10
144.6217790000000036
20
-69.8927300000000002
11
144.726791999999989
21
-70.0426679999999919
0
LINE
8
BLACK
6
CONTINUOUS
10
144.726791999999989
20
-70.0426679999999919
11
144.8041690000000017
21
-70.2085659999999905
0
LINE
8
BLACK
6
CONTINUOUS
10
144.8041690000000017
20
-70.2085659999999905
11
144.8515569999999855
21
-70.3853799999999978
0
LINE
8
BLACK
6
CONTINUOUS
10
144.8515569999999855
20
-70.3853799999999978
11
144.8675169999999923
21
-70.5677379999999914
0
LINE
8
BLACK
6
CONTINUOUS
10
144.8675169999999923
20
-70.5677379999999914
11
144.8676789999999812
21
-79.2878429999999952
0
LINE
8
BLACK
6
CONTINUOUS
10
144.8676789999999812
20
-79.2878429999999952
11
144.8676769999999863
21
-79.2878479999999968
0
LINE
8
BLACK
6
CONTINUOUS
10
144.8676769999999863
20
-79.2878479999999968
11
144.8676789999999812
21
-79.2878520000000009
0
LINE
8
BLACK
6
CONTINUOUS
10
144.8676789999999812
20
-79.2878520000000009
11
144.8676639999999907
21
-79.3709479999999985
0
LINE
8
BLACK
6
CONTINUOUS
10
144.8676639999999907
20
-79.3709479999999985
11
144.8964890000000025
21
-79.5346199999999897
0
LINE
8
BLACK
6
CONTINUOUS
10
144.8964890000000025
20
-79.5346199999999897
11
144.9532910000000072
21
-79.6908030000000025
0
LINE
8
BLACK
6
CONTINUOUS
10
144.9532910000000072
20
-79.6908030000000025
11
145.036344999999983
21
-79.8347529999999921
0
LINE
8
BLACK
6
CONTINUOUS
10
145.036344999999983
20
-79.8347529999999921
11
145.1431289999999876
21
-79.9620989999999949
0
LINE
8
BLACK
6
CONTINUOUS
10
145.1431289999999876
20
-79.9620989999999949
11
145.2703989999999976
21
-80.0689720000000023
0
LINE
8
BLACK
6
CONTINUOUS
10
145.2703989999999976
20
-80.0689720000000023
11
145.4142909999999915
21
-80.1521279999999905
0
LINE
8
BLACK
6
CONTINUOUS
10
145.4142909999999915
20
-80.1521279999999905
11
145.57043299999998
21
-80.2090400000000017
0
LINE
8
BLACK
6
CONTINUOUS
10
145.57043299999998
20
-80.2090400000000017
11
145.7340849999999932
21
-80.2379809999999907
0
LINE
8
BLACK
6
CONTINUOUS
10
145.7340849999999932
20
-80.2379809999999907
11
145.817181000000005
21
-80.2380239999999958
0
LINE
8
BLACK
6
CONTINUOUS
10
145.817181000000005
20
-80.2380239999999958
11
162.878122999999988
21
-80.2469759999999894
0
LINE
8
BLACK
6
CONTINUOUS
10
162.878122999999988
20
-80.2469759999999894
11
163.0603759999999909
21
-80.2630120000000034
0
LINE
8
BLACK
6
CONTINUOUS
10
163.0603759999999909
20
-80.2630120000000034
11
163.2370789999999943
21
-80.3104399999999998
0
LINE
8
BLACK
6
CONTINUOUS
10
163.2370789999999943
20
-80.3104399999999998
11
163.4028669999999863
21
-80.3878199999999907
0
LINE
8
BLACK
6
CONTINUOUS
10
163.4028669999999863
20
-80.3878199999999907
11
163.5527060000000006
21
-80.4928039999999925
0
LINE
8
BLACK
6
CONTINUOUS
10
163.5527060000000006
20
-80.4928039999999925
11
163.682046999999983
21
-80.622202999999999
0
LINE
8
BLACK
6
CONTINUOUS
10
163.682046999999983
20
-80.622202999999999
11
163.7869639999999833
21
-80.772088999999994
0
LINE
8
BLACK
6
CONTINUOUS
10
163.7869639999999833
20
-80.772088999999994
11
163.8642700000000048
21
-80.9379119999999972
0
LINE
8
BLACK
6
CONTINUOUS
10
163.8642700000000048
20
-80.9379119999999972
11
163.9116180000000043
21
-81.1146359999999902
0
LINE
8
BLACK
6
CONTINUOUS
10
163.9116180000000043
20
-81.1146359999999902
11
163.9275719999999978
21
-81.2968959999999896
0
LINE
8
BLACK
6
CONTINUOUS
10
163.9275719999999978
20
-81.2968959999999896
11
163.9275710000000004
21
-81.2968970000000013
0
LINE
8
BLACK
6
CONTINUOUS
10
163.9275710000000004
20
-81.2968970000000013
11
163.9275719999999978
21
-81.2968999999999937
0
LINE
8
BLACK
6
CONTINUOUS
10
163.9275719999999978
20
-81.2968999999999937
11
163.927503999999999
21
-91.1169799999999981
0
LINE
8
BLACK
6
CONTINUOUS
10
163.927503999999999
20
-91.1169799999999981
11
163.9275949999999966
21
-91.2011380000000003
0
LINE
8
BLACK
6
CONTINUOUS
10
163.9275949999999966
20
-91.2011380000000003
11
163.9571870000000047
21
-91.3668329999999997
0
LINE
8
BLACK
6
CONTINUOUS
10
163.9571870000000047
20
-91.3668329999999997
11
164.0154479999999921
21
-91.5247449999999958
0
LINE
8
BLACK
6
CONTINUOUS
10
164.0154479999999921
20
-91.5247449999999958
11
164.1005649999999889
21
-91.6699529999999925
0
LINE
8
BLACK
6
CONTINUOUS
10
164.1005649999999889
20
-91.6699529999999925
11
164.2098849999999857
21
-91.7979359999999929
0
LINE
8
BLACK
6
CONTINUOUS
10
164.2098849999999857
20
-91.7979359999999929
11
164.3400039999999933
21
-91.9047049999999928
0
LINE
8
BLACK
6
CONTINUOUS
10
164.3400039999999933
20
-91.9047049999999928
11
164.486865999999992
21
-91.9869350000000026
0
LINE
8
BLACK
6
CONTINUOUS
10
164.486865999999992
20
-91.9869350000000026
11
164.6458979999999883
21
-92.0420639999999963
0
LINE
8
BLACK
6
CONTINUOUS
10
164.6458979999999883
20
-92.0420639999999963
11
164.7290079999999932
21
-92.0553099999999915
0
LINE
8
BLACK
6
CONTINUOUS
10
164.7290079999999932
20
-92.0553099999999915
11
207.9279870000000017
21
-98.8918630000000007
0
LINE
8
BLACK
6
CONTINUOUS
10
207.9279870000000017
20
-98.8918630000000007
11
207.9279909999999916
21
-98.8918639999999982
0
LINE
8
BLACK
6
CONTINUOUS
10
207.9279909999999916
20
-98.8918639999999982
11
208.105544999999978
21
-98.936087999999998
0
LINE
8
BLACK
6
CONTINUOUS
10
208.105544999999978
20
-98.936087999999998
11
208.2727329999999881
21
-99.0104729999999904
0
LINE
8
BLACK
6
CONTINUOUS
10
208.2727329999999881
20
-99.0104729999999904
11
208.4244649999999979
21
-99.1127559999999903
0
LINE
8
BLACK
6
CONTINUOUS
10
208.4244649999999979
20
-99.1127559999999903
11
208.5561339999999859
21
-99.2398309999999952
0
LINE
8
BLACK
6
CONTINUOUS
10
208.5561339999999859
20
-99.2398309999999952
11
208.6637389999999925
21
-99.3878380000000021
0
LINE
8
BLACK
6
CONTINUOUS
10
208.6637389999999925
20
-99.3878380000000021
11
208.7440110000000004
21
-99.5522799999999961
0
LINE
8
BLACK
6
CONTINUOUS
10
208.7440110000000004
20
-99.5522799999999961
11
208.7945119999999974
21
-99.7281619999999975
0
LINE
8
BLACK
6
CONTINUOUS
10
208.7945119999999974
20
-99.7281619999999975
11
208.8137079999999912
21
-99.9101409999999959
0
LINE
8
BLACK
6
CONTINUOUS
10
208.8137079999999912
20
-99.9101409999999959
11
208.8010149999999783
21
-100.0926889999999929
0
LINE
8
BLACK
6
CONTINUOUS
10
208.8010149999999783
20
-100.0926889999999929
11
208.8010129999999833
21
-100.0926910000000021
0
LINE
8
BLACK
6
CONTINUOUS
10
208.8010129999999833
20
-100.0926910000000021
11
200.2213729999999998
21
-154.4416579999999897
0
LINE
8
BLACK
6
CONTINUOUS
10
200.2213729999999998
20
-154.4416579999999897
11
200.2146299999999997
21
-154.4599639999999852
0
LINE
8
BLACK
6
CONTINUOUS
10
200.2146299999999997
20
-154.4599639999999852
11
200.2140939999999887
21
-154.4603529999999978
0
LINE
8
BLACK
6
CONTINUOUS
10
200.2140939999999887
20
-154.4603529999999978
11
200.1440920000000006
21
-154.670691000000005
0
LINE
8
BLACK
6
CONTINUOUS
10
200.1440920000000006
20
-154.670691000000005
11
200.0364649999999926
21
-154.8818589999999915
0
LINE
8
BLACK
6
CONTINUOUS
10
200.0364649999999926
20
-154.8818589999999915
11
199.8984749999999906
21
-155.074561999999986
0
LINE
8
BLACK
6
CONTINUOUS
10
199.8984749999999906
20
-155.074561999999986
11
199.7332219999999836
21
-155.2444649999999911
0
LINE
8
BLACK
6
CONTINUOUS
10
199.7332219999999836
20
-155.2444649999999911
11
199.5444239999999922
21
-155.3877509999999802
0
LINE
8
BLACK
6
CONTINUOUS
10
199.5444239999999922
20
-155.3877509999999802
11
199.3363239999999905
21
-155.5011969999999906
0
LINE
8
BLACK
6
CONTINUOUS
10
199.3363239999999905
20
-155.5011969999999906
11
199.1136009999999885
21
-155.5822519999999827
0
LINE
8
BLACK
6
CONTINUOUS
10
199.1136009999999885
20
-155.5822519999999827
11
198.8812629999999899
21
-155.6290960000000041
0
LINE
8
BLACK
6
CONTINUOUS
10
198.8812629999999899
20
-155.6290960000000041
11
198.6445319999999981
21
-155.6406729999999925
0
LINE
8
BLACK
6
CONTINUOUS
10
198.6445319999999981
20
-155.6406729999999925
11
198.4115019999999845
21
-155.6170060000000035
0
LINE
8
BLACK
6
CONTINUOUS
10
198.4115019999999845
20
-155.6170060000000035
11
198.4108019999999897
21
-155.6170500000000061
0
LINE
8
BLACK
6
CONTINUOUS
10
198.4108019999999897
20
-155.6170500000000061
11
194.6388359999999977
21
-155.1069609999999841
0
LINE
8
BLACK
6
CONTINUOUS
10
194.6388359999999977
20
-155.1069609999999841
11
190.9971209999999928
21
-154.653492
0
LINE
8
BLACK
6
CONTINUOUS
10
190.9971209999999928
20
-154.653492
11
187.4771759999999858
21
-154.2540569999999889
0
LINE
8
BLACK
6
CONTINUOUS
10
187.4771759999999858
20
-154.2540569999999889
11
184.0696480000000008
21
-153.9061049999999966
0
LINE
8
BLACK
6
CONTINUOUS
10
184.0696480000000008
20
-153.9061049999999966
11
180.7636679999999956
21
-153.6070919999999944
0
LINE
8
BLACK
6
CONTINUOUS
10
180.7636679999999956
20
-153.6070919999999944
11
177.5465629999999919
21
-153.354504999999989
0
LINE
8
BLACK
6
CONTINUOUS
10
177.5465629999999919
20
-153.354504999999989
11
174.4025790000000029
21
-153.1458230000000071
0
LINE
8
BLACK
6
CONTINUOUS
10
174.4025790000000029
20
-153.1458230000000071
11
171.3102529999999888
21
-152.9784619999999791
0
LINE
8
BLACK
6
CONTINUOUS
10
171.3102529999999888
20
-152.9784619999999791
11
168.2393629999999973
21
-152.8497789999999839
0
LINE
8
BLACK
6
CONTINUOUS
10
168.2393629999999973
20
-152.8497789999999839
11
165.1406350000000032
21
-152.7568899999999985
0
LINE
8
BLACK
6
CONTINUOUS
10
165.1406350000000032
20
-152.7568899999999985
11
161.9218639999999994
21
-152.6963759999999866
0
LINE
8
BLACK
6
CONTINUOUS
10
161.9218639999999994
20
-152.6963759999999866
11
158.4195880000000045
21
-152.6632869999999969
0
LINE
8
BLACK
6
CONTINUOUS
10
158.4195880000000045
20
-152.6632869999999969
11
158.4194509999999809
21
-152.6632579999999848
0
LINE
8
BLACK
6
CONTINUOUS
10
158.4194509999999809
20
-152.6632579999999848
11
158.2121269999999811
21
-152.6472969999999805
0
LINE
8
BLACK
6
CONTINUOUS
10
158.2121269999999811
20
-152.6472969999999805
11
158.0088949999999954
21
-152.6015219999999886
0
LINE
8
BLACK
6
CONTINUOUS
10
158.0088949999999954
20
-152.6015219999999886
11
157.8143879999999797
21
-152.5269229999999823
0
LINE
8
BLACK
6
CONTINUOUS
10
157.8143879999999797
20
-152.5269229999999823
11
157.6326689999999928
21
-152.4250569999999811
0
LINE
8
BLACK
6
CONTINUOUS
10
157.6326689999999928
20
-152.4250569999999811
11
157.467536999999993
21
-152.2980539999999792
0
LINE
8
BLACK
6
CONTINUOUS
10
157.467536999999993
20
-152.2980539999999792
11
157.3224429999999927
21
-152.1485679999999832
0
LINE
8
BLACK
6
CONTINUOUS
10
157.3224429999999927
20
-152.1485679999999832
11
157.2004189999999824
21
-151.979723000000007
0
LINE
8
BLACK
6
CONTINUOUS
10
157.2004189999999824
20
-151.979723000000007
11
157.1040160000000014
21
-151.79504799999998
0
LINE
8
BLACK
6
CONTINUOUS
10
157.1040160000000014
20
-151.79504799999998
11
157.0352479999999957
21
-151.5984029999999905
0
LINE
8
BLACK
6
CONTINUOUS
10
157.0352479999999957
20
-151.5984029999999905
11
156.9955539999999985
21
-151.3938969999999813
0
LINE
8
BLACK
6
CONTINUOUS
10
156.9955539999999985
20
-151.3938969999999813
11
156.9858429999999885
21
-151.1875579999999957
0
LINE
8
BLACK
6
CONTINUOUS
10
156.9858429999999885
20
-151.1875579999999957
11
156.9857449999999801
21
-151.1870629999999949
0
LINE
8
BLACK
6
CONTINUOUS
10
156.9857449999999801
20
-151.1870629999999949
11
156.9874910000000057
21
-137.7975999999999885
0
LINE
8
BLACK
6
CONTINUOUS
10
156.9874910000000057
20
-137.7975999999999885
11
122.0725379999999944
21
-137.8674000000000035
0
LINE
8
BLACK
6
CONTINUOUS
10
122.0725379999999944
20
-137.8674000000000035
11
122.0855719999999991
21
-153.7963220000000035
0
LINE
8
BLACK
6
CONTINUOUS
10
122.0855719999999991
20
-153.7963220000000035
11
122.0851059999999961
21
-153.7986709999999846
0
LINE
8
BLACK
6
CONTINUOUS
10
122.0851059999999961
20
-153.7986709999999846
11
122.0854379999999964
21
-153.8000199999999893
0
LINE
8
BLACK
6
CONTINUOUS
10
122.0854379999999964
20
-153.8000199999999893
11
122.0534859999999924
21
-154.0148739999999918
0
LINE
8
BLACK
6
CONTINUOUS
10
122.0534859999999924
20
-154.0148739999999918
11
121.9900179999999921
21
-154.2226129999999955
0
LINE
8
BLACK
6
CONTINUOUS
10
121.9900179999999921
20
-154.2226129999999955
11
121.8964399999999983
21
-154.4186399999999821
0
LINE
8
BLACK
6
CONTINUOUS
10
121.8964399999999983
20
-154.4186399999999821
11
121.7748220000000003
21
-154.5986189999999851
0
LINE
8
BLACK
6
CONTINUOUS
10
121.7748220000000003
20
-154.5986189999999851
11
121.6278529999999876
21
-154.7585679999999968
0
LINE
8
BLACK
6
CONTINUOUS
10
121.6278529999999876
20
-154.7585679999999968
11
121.4587859999999893
21
-154.8949489999999969
0
LINE
8
BLACK
6
CONTINUOUS
10
121.4587859999999893
20
-154.8949489999999969
11
121.2713600000000014
21
-155.0047449999999856
0
LINE
8
BLACK
6
CONTINUOUS
10
121.2713600000000014
20
-155.0047449999999856
11
121.0697229999999962
21
-155.0855259999999873
0
LINE
8
BLACK
6
CONTINUOUS
10
121.0697229999999962
20
-155.0855259999999873
11
120.8583329999999876
21
-155.1355059999999924
0
LINE
8
BLACK
6
CONTINUOUS
10
120.8583329999999876
20
-155.1355059999999924
11
120.8579639999999955
21
-155.1354469999999992
0
LINE
8
BLACK
6
CONTINUOUS
10
120.8579639999999955
20
-155.1354469999999992
11
120.8573529999999892
21
-155.1356600000000014
0
LINE
8
BLACK
6
CONTINUOUS
10
120.8573529999999892
20
-155.1356600000000014
11
117.6733959999999968
21
-155.5776099999999929
0
LINE
8
BLACK
6
CONTINUOUS
10
117.6733959999999968
20
-155.5776099999999929
11
114.4615569999999991
21
-156.0628519999999924
0
LINE
8
BLACK
6
CONTINUOUS
10
114.4615569999999991
20
-156.0628519999999924
11
111.2202300000000008
21
-156.5919629999999927
0
LINE
8
BLACK
6
CONTINUOUS
10
111.2202300000000008
20
-156.5919629999999927
11
107.9475679999999898
21
-157.1655779999999822
0
LINE
8
BLACK
6
CONTINUOUS
10
107.9475679999999898
20
-157.1655779999999822
11
104.6410199999999975
21
-157.7844879999999819
0
LINE
8
BLACK
6
CONTINUOUS
10
104.6410199999999975
20
-157.7844879999999819
11
101.2967909999999989
21
-158.449750999999992
0
LINE
8
BLACK
6
CONTINUOUS
10
101.2967909999999989
20
-158.449750999999992
11
97.9094460000000026
21
-159.1628049999999917
0
LINE
8
BLACK
6
CONTINUOUS
10
97.9094460000000026
20
-159.1628049999999917
11
94.4709719999999891
21
-159.9256969999999853
0
LINE
8
BLACK
6
CONTINUOUS
10
94.4709719999999891
20
-159.9256969999999853
11
90.9681470000000019
21
-160.7417360000000031
0
LINE
8
BLACK
6
CONTINUOUS
10
90.9681470000000019
20
-160.7417360000000031
11
87.379289
21
-161.6163479999999879
0
LINE
8
BLACK
6
CONTINUOUS
10
87.379289
20
-161.6163479999999879
11
83.6637580000000014
21
-162.5597839999999792
0
LINE
8
BLACK
6
CONTINUOUS
10
83.6637580000000014
20
-162.5597839999999792
11
79.7353349999999921
21
-163.5941169999999829
0
LINE
8
BLACK
6
CONTINUOUS
10
79.7353349999999921
20
-163.5941169999999829
11
75.3513719999999978
21
-164.7823829999999816
0
LINE
8
BLACK
6
CONTINUOUS
10
75.3513719999999978
20
-164.7823829999999816
11
73.4522189999999995
21
-165.3034049999999979
0
LINE
8
BLACK
6
CONTINUOUS
10
73.4522189999999995
20
-165.3034049999999979
11
73.4521939999999915
21
-165.3034059999999954
0
LINE
8
BLACK
6
CONTINUOUS
10
73.4521939999999915
20
-165.3034059999999954
11
73.4521699999999953
21
-165.303418999999991
0
LINE
8
BLACK
6
CONTINUOUS
10
73.4521699999999953
20
-165.303418999999991
11
69.8670709999999957
21
-166.2830809999999815
0
LINE
8
BLACK
6
CONTINUOUS
10
69.8670709999999957
20
-166.2830809999999815
11
69.8669280000000015
21
-166.2830909999999847
0
LINE
8
BLACK
6
CONTINUOUS
10
69.8669280000000015
20
-166.2830909999999847
11
69.8668029999999902
21
-166.2831529999999987
0
LINE
8
BLACK
6
CONTINUOUS
10
69.8668029999999902
20
-166.2831529999999987
11
68.2742789999999928
21
-166.7088489999999865
0
LINE
8
BLACK
6
CONTINUOUS
10
68.2742789999999928
20
-166.7088489999999865
11
68.2740809999999954
21
-166.7088609999999846
0
LINE
8
BLACK
6
CONTINUOUS
10
68.2740809999999954
20
-166.7088609999999846
11
68.2739049999999992
21
-166.7089469999999949
0
LINE
8
BLACK
6
CONTINUOUS
10
68.2739049999999992
20
-166.7089469999999949
11
66.8190290000000005
21
-167.0857979999999827
0
LINE
8
BLACK
6
CONTINUOUS
10
66.8190290000000005
20
-167.0857979999999827
11
66.8187240000000031
21
-167.0858149999999966
0
LINE
8
BLACK
6
CONTINUOUS
10
66.8187240000000031
20
-167.0858149999999966
11
66.6391550000000024
21
-167.1175010000000043
0
LINE
8
BLACK
6
CONTINUOUS
10
66.6391550000000024
20
-167.1175010000000043
11
66.4560839999999899
21
-167.1175139999999999
0
LINE
8
BLACK
6
CONTINUOUS
10
66.4560839999999899
20
-167.1175139999999999
11
66.2757939999999905
21
-167.0857289999999864
0
LINE
8
BLACK
6
CONTINUOUS
10
66.2757939999999905
20
-167.0857289999999864
11
66.1037649999999957
21
-167.0231119999999976
0
LINE
8
BLACK
6
CONTINUOUS
10
66.1037649999999957
20
-167.0231119999999976
11
65.9452270000000027
21
-166.9315660000000037
0
LINE
8
BLACK
6
CONTINUOUS
10
65.9452270000000027
20
-166.9315660000000037
11
65.8049999999999926
21
-166.8138739999999984
0
LINE
8
BLACK
6
CONTINUOUS
10
65.8049999999999926
20
-166.8138739999999984
11
65.6873459999999909
21
-166.6736149999999839
0
LINE
8
BLACK
6
CONTINUOUS
10
65.6873459999999909
20
-166.6736149999999839
11
65.5958439999999996
21
-166.5150519999999972
0
LINE
8
BLACK
6
CONTINUOUS
10
65.5958439999999996
20
-166.5150519999999972
11
65.5332829999999973
21
-166.3430349999999862
0
LINE
8
BLACK
6
CONTINUOUS
10
65.5332829999999973
20
-166.3430349999999862
11
65.5332789999999932
21
-166.3430259999999805
0
LINE
8
BLACK
6
CONTINUOUS
10
65.5332789999999932
20
-166.3430259999999805
11
65.5332750000000033
21
-166.3430119999999874
0
LINE
8
BLACK
6
CONTINUOUS
10
65.5332750000000033
20
-166.3430119999999874
11
65.5332729999999941
21
-166.3430060000000026
0
LINE
8
BLACK
6
CONTINUOUS
10
65.5332729999999941
20
-166.3430060000000026
11
65.5332729999999941
21
-166.3430039999999792
0
LINE
8
BLACK
6
CONTINUOUS
10
65.5332729999999941
20
-166.3430039999999792
11
59.8182279999999977
21
-145.026695999999987
0
LINE
8
BLACK
6
CONTINUOUS
10
59.8182279999999977
20
-145.026695999999987
11
59.7864159999999956
21
-144.8464099999999917
0
LINE
8
BLACK
6
CONTINUOUS
10
59.7864159999999956
20
-144.8464099999999917
11
59.786403
21
-144.6633389999999793
0
LINE
8
BLACK
6
CONTINUOUS
10
59.786403
20
-144.6633389999999793
11
59.8181879999999992
21
-144.4830489999999941
0
LINE
8
BLACK
6
CONTINUOUS
10
59.8181879999999992
20
-144.4830489999999941
11
59.8808049999999952
21
-144.311019999999985
0
LINE
8
BLACK
6
CONTINUOUS
10
59.8808049999999952
20
-144.311019999999985
11
59.9723509999999962
21
-144.152481999999992
0
LINE
8
BLACK
6
CONTINUOUS
10
59.9723509999999962
20
-144.152481999999992
11
60.0900429999999943
21
-144.0122549999999819
0
LINE
8
BLACK
6
CONTINUOUS
10
60.0900429999999943
20
-144.0122549999999819
11
60.2303019999999947
21
-143.8946009999999944
0
LINE
8
BLACK
6
CONTINUOUS
10
60.2303019999999947
20
-143.8946009999999944
11
60.3888649999999956
21
-143.8030990000000031
0
LINE
8
BLACK
6
CONTINUOUS
10
60.3888649999999956
20
-143.8030990000000031
11
60.5609070000000003
21
-143.7405289999999809
0
LINE
8
BLACK
6
CONTINUOUS
10
60.5609070000000003
20
-143.7405289999999809
11
60.5609099999999998
21
-143.7405279999999834
0
LINE
8
BLACK
6
CONTINUOUS
10
60.5609099999999998
20
-143.7405279999999834
11
67.9855249999999955
21
-141.7531589999999824
0
LINE
8
BLACK
6
CONTINUOUS
10
67.9855249999999955
20
-141.7531589999999824
11
67.9857059999999933
21
-141.7530419999999935
0
LINE
8
BLACK
6
CONTINUOUS
10
67.9857059999999933
20
-141.7530419999999935
11
68.065187999999992
21
-141.7318339999999921
0
LINE
8
BLACK
6
CONTINUOUS
10
68.065187999999992
20
-141.7318339999999921
11
68.2144359999999921
21
-141.6625939999999844
0
LINE
8
BLACK
6
CONTINUOUS
10
68.2144359999999921
20
-141.6625939999999844
11
68.3495630000000034
21
-141.5687340000000063
0
LINE
8
BLACK
6
CONTINUOUS
10
68.3495630000000034
20
-141.5687340000000063
11
68.4665490000000005
21
-141.4530479999999955
0
LINE
8
BLACK
6
CONTINUOUS
10
68.4665490000000005
20
-141.4530479999999955
11
68.5619119999999924
21
-141.3189779999999871
0
LINE
8
BLACK
6
CONTINUOUS
10
68.5619119999999924
20
-141.3189779999999871
11
68.6328159999999912
21
-141.1705129999999997
0
LINE
8
BLACK
6
CONTINUOUS
10
68.6328159999999912
20
-141.1705129999999997
11
68.677149
21
-141.0120719999999892
0
LINE
8
BLACK
6
CONTINUOUS
10
68.677149
20
-141.0120719999999892
11
68.6935929999999928
21
-140.848368999999991
0
LINE
8
BLACK
6
CONTINUOUS
10
68.6935929999999928
20
-140.848368999999991
11
68.6875509999999991
21
-140.7663279999999872
0
LINE
8
BLACK
6
CONTINUOUS
10
68.6875509999999991
20
-140.7663279999999872
11
68.6875599999999906
21
-140.766288000000003
0
LINE
8
BLACK
6
CONTINUOUS
10
68.6875599999999906
20
-140.766288000000003
11
68.6875429999999909
21
-140.7662229999999965
0
LINE
8
BLACK
6
CONTINUOUS
10
68.6875429999999909
20
-140.7662229999999965
11
66.103950999999995
21
-104.1756089999999944
0
LINE
8
BLACK
6
CONTINUOUS
10
66.103950999999995
20
-104.1756089999999944
11
66.1063999999999936
21
-104.1562539999999899
0
LINE
8
BLACK
6
CONTINUOUS
10
66.1063999999999936
20
-104.1562539999999899
11
66.1064119999999917
21
-104.1562389999999994
0
LINE
8
BLACK
6
CONTINUOUS
10
66.1064119999999917
20
-104.1562389999999994
11
66.1064109999999943
21
-104.1562219999999996
0
LINE
8
BLACK
6
CONTINUOUS
10
66.1064109999999943
20
-104.1562219999999996
11
66.1188889999999958
21
-104.1418659999999932
0
LINE
8
BLACK
6
CONTINUOUS
10
66.1188889999999958
20
-104.1418659999999932
11
66.1314869999999928
21
-104.1273549999999943
0
LINE
8
BLACK
6
CONTINUOUS
10
66.1314869999999928
20
-104.1273549999999943
11
66.13150499999999
21
-104.1273529999999994
0
LINE
8
BLACK
6
CONTINUOUS
10
66.13150499999999
20
-104.1273529999999994
11
66.1315170000000023
21
-104.1273399999999896
0
LINE
8
BLACK
6
CONTINUOUS
10
66.1315170000000023
20
-104.1273399999999896
11
66.1503390000000024
21
-104.122208999999998
0
LINE
8
BLACK
6
CONTINUOUS
10
66.1503390000000024
20
-104.122208999999998
11
68.8481749999999977
21
-103.9335639999999898
0
LINE
8
BLACK
6
CONTINUOUS
10
68.8481749999999977
20
-103.9335639999999898
11
68.865279000000001
21
-103.9138889999999975
0
LINE
8
BLACK
6
CONTINUOUS
10
68.865279000000001
20
-103.9138889999999975
11
68.8914680000000033
21
-103.9008309999999966
0
LINE
8
BLACK
6
CONTINUOUS
10
68.8914680000000033
20
-103.9008309999999966
11
68.9206609999999955
21
-103.8987899999999911
0
LINE
8
BLACK
6
CONTINUOUS
10
68.9206609999999955
20
-103.8987899999999911
11
68.9484119999999905
21
-103.9080749999999966
0
LINE
8
BLACK
6
CONTINUOUS
10
68.9484119999999905
20
-103.9080749999999966
11
68.9704969999999946
21
-103.9272729999999996
0
LINE
8
BLACK
6
CONTINUOUS
10
68.9704969999999946
20
-103.9272729999999996
11
68.9835549999999955
21
-103.9534620000000018
0
LINE
8
BLACK
6
CONTINUOUS
10
68.9835549999999955
20
-103.9534620000000018
11
68.9860129999999998
21
-103.9679579999999959
0
LINE
8
BLACK
6
CONTINUOUS
10
68.9860129999999998
20
-103.9679579999999959
11
69.9434210000000007
21
-117.6595249999999879
0
LINE
8
BLACK
6
CONTINUOUS
10
69.9434210000000007
20
-117.6595249999999879
11
83.5601709999999969
21
-116.7073479999999961
0
LINE
8
BLACK
6
CONTINUOUS
10
83.5601709999999969
20
-116.7073479999999961
11
82.6027629999999959
21
-103.0157820000000015
0
LINE
8
BLACK
6
CONTINUOUS
10
82.6027629999999959
20
-103.0157820000000015
11
82.6031799999999947
21
-103.0010849999999891
0
LINE
8
BLACK
6
CONTINUOUS
10
82.6031799999999947
20
-103.0010849999999891
11
82.6124650000000003
21
-102.9733339999999941
0
LINE
8
BLACK
6
CONTINUOUS
10
82.6124650000000003
20
-102.9733339999999941
11
82.6316630000000032
21
-102.95124899999999
0
LINE
8
BLACK
6
CONTINUOUS
10
82.6316630000000032
20
-102.95124899999999
11
82.6578519999999912
21
-102.9381909999999891
0
LINE
8
BLACK
6
CONTINUOUS
10
82.6578519999999912
20
-102.9381909999999891
11
82.6870449999999977
21
-102.9361499999999978
0
LINE
8
BLACK
6
CONTINUOUS
10
82.6870449999999977
20
-102.9361499999999978
11
82.7147959999999927
21
-102.9454349999999891
0
LINE
8
BLACK
6
CONTINUOUS
10
82.7147959999999927
20
-102.9454349999999891
11
82.7246069999999918
21
-102.9539630000000017
0
LINE
8
BLACK
6
CONTINUOUS
10
82.7246069999999918
20
-102.9539630000000017
11
84.7540460000000024
21
-102.8072439999999972
0
LINE
8
BLACK
6
CONTINUOUS
10
84.7540460000000024
20
-102.8072439999999972
11
83.1950939999999974
21
-81.1055879999999974
0
LINE
8
BLACK
6
CONTINUOUS
10
83.1950939999999974
20
-81.1055879999999974
11
83.1975189999999998
21
-81.0862300000000005
0
LINE
8
BLACK
6
CONTINUOUS
10
83.1975189999999998
20
-81.0862300000000005
11
83.1975570000000033
21
-81.0861850000000004
0
LINE
8
BLACK
6
CONTINUOUS
10
83.1975570000000033
20
-81.0861850000000004
11
83.1975529999999992
21
-81.0861269999999905
0
LINE
8
BLACK
6
CONTINUOUS
10
83.1975529999999992
20
-81.0861269999999905
11
83.2101809999999915
21
-81.0716070000000002
0
LINE
8
BLACK
6
CONTINUOUS
10
83.2101809999999915
20
-81.0716070000000002
11
83.2225699999999904
21
-81.0573009999999954
0
LINE
8
BLACK
6
CONTINUOUS
10
83.2225699999999904
20
-81.0573009999999954
11
83.2226280000000003
21
-81.0572959999999938
0
LINE
8
BLACK
6
CONTINUOUS
10
83.2226280000000003
20
-81.0572959999999938
11
83.2226670000000013
21
-81.0572519999999912
0
LINE
8
BLACK
6
CONTINUOUS
10
83.2226670000000013
20
-81.0572519999999912
11
83.2414909999999963
21
-81.0521260000000012
0
LINE
8
BLACK
6
CONTINUOUS
10
83.2414909999999963
20
-81.0521260000000012
11
124.5823169999999891
21
-78.1725909999999971
0
LINE
8
BLACK
6
CONTINUOUS
10
124.5823169999999891
20
-78.1725909999999971
11
124.5832759999999979
21
-78.1727130000000017
0
LINE
8
BLACK
6
CONTINUOUS
10
124.5832759999999979
20
-78.1727130000000017
11
124.583650999999989
21
-78.1725619999999992
0
LINE
8
BLACK
6
CONTINUOUS
10
124.583650999999989
20
-78.1725619999999992
11
124.6728459999999927
21
-78.1664650000000023
0
LINE
8
BLACK
6
CONTINUOUS
10
124.6728459999999927
20
-78.1664650000000023
11
124.8457669999999951
21
-78.1209659999999957
0
LINE
8
BLACK
6
CONTINUOUS
10
124.8457669999999951
20
-78.1209659999999957
11
125.0071650000000005
21
-78.0440069999999935
0
LINE
8
BLACK
6
CONTINUOUS
10
125.0071650000000005
20
-78.0440069999999935
11
125.151371999999995
21
-77.938289999999995
0
LINE
8
BLACK
6
CONTINUOUS
10
125.151371999999995
20
-77.938289999999995
11
125.2733259999999973
21
-77.8075269999999932
0
LINE
8
BLACK
6
CONTINUOUS
10
125.2733259999999973
20
-77.8075269999999932
11
125.3687449999999899
21
-77.6563089999999931
0
LINE
8
BLACK
6
CONTINUOUS
10
125.3687449999999899
20
-77.6563089999999931
11
125.4342789999999894
21
-77.4899439999999942
0
LINE
8
BLACK
6
CONTINUOUS
10
125.4342789999999894
20
-77.4899439999999942
11
125.4676259999999957
21
-77.314274999999995
0
LINE
8
BLACK
6
CONTINUOUS
10
125.4676259999999957
20
-77.314274999999995
11
125.467497999999992
21
-77.2248719999999906
0
LINE
8
BLACK
6
CONTINUOUS
10
125.467497999999992
20
-77.2248719999999906
11
125.467497999999992
21
-77.2248699999999957
0
LINE
8
BLACK
6
CONTINUOUS
10
125.467497999999992
20
-77.2248699999999957
11
125.467497999999992
21
-77.2248689999999982
0
LINE
8
BLACK
6
CONTINUOUS
10
125.467497999999992
20
-77.2248689999999982
11
125.467497999999992
21
-70.5675140000000027
0
LINE
8
BLACK
6
CONTINUOUS
10
125.467497999999992
20
-70.5675140000000027
11
125.4834499999999906
21
-70.3851820000000004
0
LINE
8
BLACK
6
CONTINUOUS
10
125.4834499999999906
20
-70.3851820000000004
11
125.5308220000000006
21
-70.2083899999999943
0
LINE
8
BLACK
6
CONTINUOUS
10
125.5308220000000006
20
-70.2083899999999943
11
125.6081739999999911
21
-70.0425099999999929
0
LINE
8
BLACK
6
CONTINUOUS
10
125.6081739999999911
20
-70.0425099999999929
11
125.7131550000000004
21
-69.8925819999999902
0
LINE
8
BLACK
6
CONTINUOUS
10
125.7131550000000004
20
-69.8925819999999902
11
125.8425769999999915
21
-69.7631619999999941
0
LINE
8
BLACK
6
CONTINUOUS
10
125.8425769999999915
20
-69.7631619999999941
11
125.9925059999999917
21
-69.6581819999999965
0
LINE
8
BLACK
6
CONTINUOUS
10
125.9925059999999917
20
-69.6581819999999965
11
126.158387999999988
21
-69.5808329999999984
0
LINE
8
BLACK
6
CONTINUOUS
10
126.158387999999988
20
-69.5808329999999984
11
126.335179999999994
21
-69.5334629999999976
0
LINE
8
BLACK
6
CONTINUOUS
10
126.335179999999994
20
-69.5334629999999976
11
126.5175109999999989
21
-69.5175139999999914
0
LINE
8
BLACK
6
CONTINUOUS
10
126.5175109999999989
20
-69.5175139999999914
11
126.5175119999999964
21
-69.5175139999999914
0
LINE
8
BLACK
6
CONTINUOUS
10
126.5175119999999964
20
-69.5175139999999914
11
143.8172590000000071
21
-69.5174999999999983
0
LINE
8
BLACK
6
CONTINUOUS
10
143.8172590000000071
20
-69.5174999999999983
11
143.8195790000000045
21
-69.5179609999999997
0
LINE
8
BLACK
6
CONTINUOUS
10
126.5175119999999964
20
-69.6175139999999999
11
126.5175109999999989
21
-69.6175130000000024
0
LINE
8
BLACK
6
CONTINUOUS
10
126.5175109999999989
20
-69.6175130000000024
11
126.5175109999999989
21
-69.6175139999999999
0
LINE
8
BLACK
6
CONTINUOUS
10
126.5175109999999989
20
-69.6175139999999999
11
126.4343959999999925
21
-69.6175130000000024
0
LINE
8
BLACK
6
CONTINUOUS
10
126.4343959999999925
20
-69.6175130000000024
11
126.2706909999999993
21
-69.6463760000000036
0
LINE
8
BLACK
6
CONTINUOUS
10
126.2706909999999993
20
-69.6463760000000036
11
126.1144859999999994
21
-69.7032279999999957
0
LINE
8
BLACK
6
CONTINUOUS
10
126.1144859999999994
20
-69.7032279999999957
11
125.970524999999995
21
-69.7863419999999905
0
LINE
8
BLACK
6
CONTINUOUS
10
125.970524999999995
20
-69.7863419999999905
11
125.8431849999999912
21
-69.8931919999999991
0
LINE
8
BLACK
6
CONTINUOUS
10
125.8431849999999912
20
-69.8931919999999991
11
125.7363339999999994
21
-70.0205299999999937
0
LINE
8
BLACK
6
CONTINUOUS
10
125.7363339999999994
20
-70.0205299999999937
11
125.6532179999999954
21
-70.1644890000000032
0
LINE
8
BLACK
6
CONTINUOUS
10
125.6532179999999954
20
-70.1644890000000032
11
125.5963639999999941
21
-70.3206940000000031
0
LINE
8
BLACK
6
CONTINUOUS
10
125.5963639999999941
20
-70.3206940000000031
11
125.5674980000000005
21
-70.4843989999999962
0
LINE
8
BLACK
6
CONTINUOUS
10
125.5674980000000005
20
-70.4843989999999962
11
125.5674980000000005
21
-70.5675140000000027
0
LINE
8
BLACK
6
CONTINUOUS
10
125.5674980000000005
20
-70.5675140000000027
11
125.5674980000000005
21
-77.2248659999999916
0
LINE
8
BLACK
6
CONTINUOUS
10
125.5674980000000005
20
-77.2248659999999916
11
125.5529349999999909
21
-77.3991879999999952
0
LINE
8
BLACK
6
CONTINUOUS
10
125.5529349999999909
20
-77.3991879999999952
11
125.5096309999999988
21
-77.5686729999999898
0
LINE
8
BLACK
6
CONTINUOUS
10
125.5096309999999988
20
-77.5686729999999898
11
125.4387889999999999
21
-77.7286149999999907
0
LINE
8
BLACK
6
CONTINUOUS
10
125.4387889999999999
20
-77.7286149999999907
11
125.3423749999999899
21
-77.8745759999999905
0
LINE
8
BLACK
6
CONTINUOUS
10
125.3423749999999899
20
-77.8745759999999905
11
125.2230659999999887
21
-78.0025040000000018
0
LINE
8
BLACK
6
CONTINUOUS
10
125.2230659999999887
20
-78.0025040000000018
11
125.0841729999999927
21
-78.1088469999999973
0
LINE
8
BLACK
6
CONTINUOUS
10
125.0841729999999927
20
-78.1088469999999973
11
124.9295509999999894
21
-78.190653999999995
0
LINE
8
BLACK
6
CONTINUOUS
10
124.9295509999999894
20
-78.190653999999995
11
124.7634939999999943
21
-78.2456540000000018
0
LINE
8
BLACK
6
CONTINUOUS
10
124.7634939999999943
20
-78.2456540000000018
11
124.5906090000000006
21
-78.2723199999999935
0
LINE
8
BLACK
6
CONTINUOUS
10
124.5906090000000006
20
-78.2723199999999935
11
124.5899629999999974
21
-78.2721579999999904
0
LINE
8
BLACK
6
CONTINUOUS
10
124.5899629999999974
20
-78.2721579999999904
11
124.589265999999995
21
-78.2723489999999913
0
LINE
8
BLACK
6
CONTINUOUS
10
124.589265999999995
20
-78.2723489999999913
11
83.2984259999999921
21
-81.1484019999999902
0
LINE
8
BLACK
6
CONTINUOUS
10
83.2984259999999921
20
-81.1484019999999902
11
84.8573700000000031
21
-102.8499289999999888
0
LINE
8
BLACK
6
CONTINUOUS
10
84.8573700000000031
20
-102.8499289999999888
11
84.8549489999999906
21
-102.8692419999999998
0
LINE
8
BLACK
6
CONTINUOUS
10
84.8549489999999906
20
-102.8692419999999998
11
84.8549509999999998
21
-102.8692640000000011
0
LINE
8
BLACK
6
CONTINUOUS
10
84.8549509999999998
20
-102.8692640000000011
11
84.8549459999999982
21
-102.8692689999999885
0
LINE
8
BLACK
6
CONTINUOUS
10
84.8549459999999982
20
-102.8692689999999885
11
84.8549440000000033
21
-102.8692860000000024
0
LINE
8
BLACK
6
CONTINUOUS
10
84.8549440000000033
20
-102.8692860000000024
11
84.8415559999999971
21
-102.8847459999999927
0
LINE
8
BLACK
6
CONTINUOUS
10
84.8415559999999971
20
-102.8847459999999927
11
84.8299129999999906
21
-102.8982049999999902
0
LINE
8
BLACK
6
CONTINUOUS
10
84.8299129999999906
20
-102.8982049999999902
11
84.8298989999999975
21
-102.8982079999999968
0
LINE
8
BLACK
6
CONTINUOUS
10
84.8298989999999975
20
-102.8982079999999968
11
84.8298929999999984
21
-102.8982159999999908
0
LINE
8
BLACK
6
CONTINUOUS
10
84.8298929999999984
20
-102.8982159999999908
11
84.8298649999999981
21
-102.8982169999999883
0
LINE
8
BLACK
6
CONTINUOUS
10
84.8298649999999981
20
-102.8982169999999883
11
84.8111030000000028
21
-102.903380999999996
0
LINE
8
BLACK
6
CONTINUOUS
10
84.8111030000000028
20
-102.903380999999996
11
82.7556589999999943
21
-103.0519789999999887
0
LINE
8
BLACK
6
CONTINUOUS
10
82.7556589999999943
20
-103.0519789999999887
11
83.7150369999999953
21
-116.7717019999999906
0
LINE
8
BLACK
6
CONTINUOUS
10
83.7150369999999953
20
-116.7717019999999906
11
83.7146199999999965
21
-116.7863989999999887
0
LINE
8
BLACK
6
CONTINUOUS
10
83.7146199999999965
20
-116.7863989999999887
11
83.7053349999999909
21
-116.8141499999999979
0
LINE
8
BLACK
6
CONTINUOUS
10
83.7053349999999909
20
-116.8141499999999979
11
83.6861370000000022
21
-116.8362349999999878
0
LINE
8
BLACK
6
CONTINUOUS
10
83.6861370000000022
20
-116.8362349999999878
11
83.659948
21
-116.8492929999999888
0
LINE
8
BLACK
6
CONTINUOUS
10
83.659948
20
-116.8492929999999888
11
83.6599459999999908
21
-116.8492929999999888
0
LINE
8
BLACK
6
CONTINUOUS
10
83.6599459999999908
20
-116.8492929999999888
11
83.6454519999999917
21
-116.851750999999993
0
LINE
8
BLACK
6
CONTINUOUS
10
83.6454519999999917
20
-116.851750999999993
11
69.8790680000000037
21
-117.8143910000000005
0
LINE
8
BLACK
6
CONTINUOUS
10
69.8790680000000037
20
-117.8143910000000005
11
69.8643709999999913
21
-117.8139740000000018
0
LINE
8
BLACK
6
CONTINUOUS
10
69.8643709999999913
20
-117.8139740000000018
11
69.8366199999999964
21
-117.8046889999999962
0
LINE
8
BLACK
6
CONTINUOUS
10
69.8366199999999964
20
-117.8046889999999962
11
69.8145349999999922
21
-117.7854909999999933
0
LINE
8
BLACK
6
CONTINUOUS
10
69.8145349999999922
20
-117.7854909999999933
11
69.8014769999999913
21
-117.759301999999991
0
LINE
8
BLACK
6
CONTINUOUS
10
69.8014769999999913
20
-117.759301999999991
11
69.8014759999999939
21
-117.7592999999999961
0
LINE
8
BLACK
6
CONTINUOUS
10
69.8014759999999939
20
-117.7592999999999961
11
69.7990190000000013
21
-117.744805999999997
0
LINE
8
BLACK
6
CONTINUOUS
10
69.7990190000000013
20
-117.744805999999997
11
68.840289999999996
21
-104.0343589999999949
0
LINE
8
BLACK
6
CONTINUOUS
10
68.840289999999996
20
-104.0343589999999949
11
66.2072270000000032
21
-104.2184740000000005
0
LINE
8
BLACK
6
CONTINUOUS
10
66.2072270000000032
20
-104.2184740000000005
11
68.7872950000000003
21
-140.7591799999999864
0
LINE
8
BLACK
6
CONTINUOUS
10
68.7872950000000003
20
-140.7591799999999864
11
68.7872839999999997
21
-140.7592630000000042
0
LINE
8
BLACK
6
CONTINUOUS
10
68.7872839999999997
20
-140.7592630000000042
11
68.784796
21
-140.9402079999999842
0
LINE
8
BLACK
6
CONTINUOUS
10
68.784796
20
-140.9402079999999842
11
68.7512109999999979
21
-141.1182179999999846
0
LINE
8
BLACK
6
CONTINUOUS
10
68.7512109999999979
20
-141.1182179999999846
11
68.6875339999999994
21
-141.2878079999999841
0
LINE
8
BLACK
6
CONTINUOUS
10
68.6875339999999994
20
-141.2878079999999841
11
68.5956580000000002
21
-141.4439319999999896
0
LINE
8
BLACK
6
CONTINUOUS
10
68.5956580000000002
20
-141.4439319999999896
11
68.4783180000000016
21
-141.581941999999998
0
LINE
8
BLACK
6
CONTINUOUS
10
68.4783180000000016
20
-141.581941999999998
11
68.3390050000000002
21
-141.6977329999999995
0
LINE
8
BLACK
6
CONTINUOUS
10
68.3390050000000002
20
-141.6977329999999995
11
68.1818650000000019
21
-141.7878589999999974
0
LINE
8
BLACK
6
CONTINUOUS
10
68.1818650000000019
20
-141.7878589999999974
11
68.0118769999999984
21
-141.8495269999999948
0
LINE
8
BLACK
6
CONTINUOUS
10
68.0118769999999984
20
-141.8495269999999948
11
68.0114389999999958
21
-141.849743999999987
0
LINE
8
BLACK
6
CONTINUOUS
10
68.0114389999999958
20
-141.849743999999987
11
60.5867679999999993
21
-143.837128000000007
0
LINE
8
BLACK
6
CONTINUOUS
10
60.5867679999999993
20
-143.837128000000007
11
60.5867659999999972
21
-143.837128000000007
0
LINE
8
BLACK
6
CONTINUOUS
10
60.5867659999999972
20
-143.837128000000007
11
60.506459999999997
21
-143.8586239999999918
0
LINE
8
BLACK
6
CONTINUOUS
10
60.506459999999997
20
-143.8586239999999918
11
60.3557539999999975
21
-143.9288569999999936
0
LINE
8
BLACK
6
CONTINUOUS
10
60.3557539999999975
20
-143.9288569999999936
11
60.219538
21
-144.0242000000000075
0
LINE
8
BLACK
6
CONTINUOUS
10
60.219538
20
-144.0242000000000075
11
60.1019529999999946
21
-144.1417529999999942
0
LINE
8
BLACK
6
CONTINUOUS
10
60.1019529999999946
20
-144.1417529999999942
11
60.0065729999999959
21
-144.2779429999999934
0
LINE
8
BLACK
6
CONTINUOUS
10
60.0065729999999959
20
-144.2779429999999934
11
59.9362989999999982
21
-144.4286290000000008
0
LINE
8
BLACK
6
CONTINUOUS
10
59.9362989999999982
20
-144.4286290000000008
11
59.893265999999997
21
-144.5892319999999813
0
LINE
8
BLACK
6
CONTINUOUS
10
59.893265999999997
20
-144.5892319999999813
11
59.8787829999999985
21
-144.7548679999999877
0
LINE
8
BLACK
6
CONTINUOUS
10
59.8787829999999985
20
-144.7548679999999877
11
59.8932900000000004
21
-144.920501999999999
0
LINE
8
BLACK
6
CONTINUOUS
10
59.8932900000000004
20
-144.920501999999999
11
59.9148159999999947
21
-145.0007999999999981
0
LINE
8
BLACK
6
CONTINUOUS
10
59.9148159999999947
20
-145.0007999999999981
11
65.6298669999999902
21
-166.3171299999999917
0
LINE
8
BLACK
6
CONTINUOUS
10
65.6298669999999902
20
-166.3171299999999917
11
65.6298669999999902
21
-166.3171409999999923
0
LINE
8
BLACK
6
CONTINUOUS
10
65.6298669999999902
20
-166.3171409999999923
11
65.6298730000000035
21
-166.317149999999998
0
LINE
8
BLACK
6
CONTINUOUS
10
65.6298730000000035
20
-166.317149999999998
11
65.6513690000000025
21
-166.3974570000000028
0
LINE
8
BLACK
6
CONTINUOUS
10
65.6513690000000025
20
-166.3974570000000028
11
65.7216019999999901
21
-166.5481629999999882
0
LINE
8
BLACK
6
CONTINUOUS
10
65.7216019999999901
20
-166.5481629999999882
11
65.816945000000004
21
-166.6843789999999785
0
LINE
8
BLACK
6
CONTINUOUS
10
65.816945000000004
20
-166.6843789999999785
11
65.9344979999999907
21
-166.8019639999999981
0
LINE
8
BLACK
6
CONTINUOUS
10
65.9344979999999907
20
-166.8019639999999981
11
66.0706880000000041
21
-166.8973440000000039
0
LINE
8
BLACK
6
CONTINUOUS
10
66.0706880000000041
20
-166.8973440000000039
11
66.2213739999999973
21
-166.9676179999999874
0
LINE
8
BLACK
6
CONTINUOUS
10
66.2213739999999973
20
-166.9676179999999874
11
66.381976999999992
21
-167.0106509999999957
0
LINE
8
BLACK
6
CONTINUOUS
10
66.381976999999992
20
-167.0106509999999957
11
66.5476129999999984
21
-167.02513399999998
0
LINE
8
BLACK
6
CONTINUOUS
10
66.5476129999999984
20
-167.02513399999998
11
66.7132469999999955
21
-167.0106269999999995
0
LINE
8
BLACK
6
CONTINUOUS
10
66.7132469999999955
20
-167.0106269999999995
11
66.7935449999999946
21
-166.9891010000000051
0
LINE
8
BLACK
6
CONTINUOUS
10
66.7935449999999946
20
-166.9891010000000051
11
66.7937089999999927
21
-166.9891089999999849
0
LINE
8
BLACK
6
CONTINUOUS
10
66.7937089999999927
20
-166.9891089999999849
11
66.7939530000000019
21
-166.9889919999999961
0
LINE
8
BLACK
6
CONTINUOUS
10
66.7939530000000019
20
-166.9889919999999961
11
68.2486799999999931
21
-166.6121799999999951
0
LINE
8
BLACK
6
CONTINUOUS
10
68.2486799999999931
20
-166.6121799999999951
11
69.8407710000000037
21
-166.1865999999999985
0
LINE
8
BLACK
6
CONTINUOUS
10
69.8407710000000037
20
-166.1865999999999985
11
73.4258109999999959
21
-165.2069549999999936
0
LINE
8
BLACK
6
CONTINUOUS
10
73.4258109999999959
20
-165.2069549999999936
11
73.4258150000000001
21
-165.2069539999999961
0
LINE
8
BLACK
6
CONTINUOUS
10
73.4258150000000001
20
-165.2069539999999961
11
75.3250639999999976
21
-164.6859059999999886
0
LINE
8
BLACK
6
CONTINUOUS
10
75.3250639999999976
20
-164.6859059999999886
11
75.3251399999999904
21
-164.6859000000000037
0
LINE
8
BLACK
6
CONTINUOUS
10
75.3251399999999904
20
-164.6859000000000037
11
75.3252119999999934
21
-164.6858649999999784
0
LINE
8
BLACK
6
CONTINUOUS
10
75.3252119999999934
20
-164.6858649999999784
11
79.7092839999999967
21
-163.4975699999999961
0
LINE
8
BLACK
6
CONTINUOUS
10
79.7092839999999967
20
-163.4975699999999961
11
79.7094680000000011
21
-163.4975570000000005
0
LINE
8
BLACK
6
CONTINUOUS
10
79.7094680000000011
20
-163.4975570000000005
11
79.7096329999999966
21
-163.4974770000000035
0
LINE
8
BLACK
6
CONTINUOUS
10
79.7096329999999966
20
-163.4974770000000035
11
83.6384929999999969
21
-162.4630290000000059
0
LINE
8
BLACK
6
CONTINUOUS
10
83.6384929999999969
20
-162.4630290000000059
11
83.6387149999999906
21
-162.4630149999999844
0
LINE
8
BLACK
6
CONTINUOUS
10
83.6387149999999906
20
-162.4630149999999844
11
83.6389179999999897
21
-162.4629189999999994
0
LINE
8
BLACK
6
CONTINUOUS
10
83.6389179999999897
20
-162.4629189999999994
11
87.3548929999999899
21
-161.5193699999999808
0
LINE
8
BLACK
6
CONTINUOUS
10
87.3548929999999899
20
-161.5193699999999808
11
87.3551369999999991
21
-161.5193569999999852
0
LINE
8
BLACK
6
CONTINUOUS
10
87.3551369999999991
20
-161.5193569999999852
11
87.3553589999999929
21
-161.5192539999999894
0
LINE
8
BLACK
6
CONTINUOUS
10
87.3553589999999929
20
-161.5192539999999894
11
90.9447639999999922
21
-160.6445089999999993
0
LINE
8
BLACK
6
CONTINUOUS
10
90.9447639999999922
20
-160.6445089999999993
11
90.945020999999997
21
-160.6444970000000012
0
LINE
8
BLACK
6
CONTINUOUS
10
90.945020999999997
20
-160.6444970000000012
11
90.9452579999999955
21
-160.6443909999999846
0
LINE
8
BLACK
6
CONTINUOUS
10
90.9452579999999955
20
-160.6443909999999846
11
94.448529999999991
21
-159.8282480000000021
0
LINE
8
BLACK
6
CONTINUOUS
10
94.448529999999991
20
-159.8282480000000021
11
94.4487979999999965
21
-159.8282389999999964
0
LINE
8
BLACK
6
CONTINUOUS
10
94.4487979999999965
20
-159.8282389999999964
11
94.4490440000000007
21
-159.8281309999999849
0
LINE
8
BLACK
6
CONTINUOUS
10
94.4490440000000007
20
-159.8281309999999849
11
97.8880879999999962
21
-159.0651119999999992
0
LINE
8
BLACK
6
CONTINUOUS
10
97.8880879999999962
20
-159.0651119999999992
11
97.8883639999999957
21
-159.0651049999999884
0
LINE
8
BLACK
6
CONTINUOUS
10
97.8883639999999957
20
-159.0651049999999884
11
97.8886189999999914
21
-159.0649970000000053
0
LINE
8
BLACK
6
CONTINUOUS
10
97.8886189999999914
20
-159.0649970000000053
11
101.2764329999999973
21
-158.3518449999999973
0
LINE
8
BLACK
6
CONTINUOUS
10
101.2764329999999973
20
-158.3518449999999973
11
101.2767169999999908
21
-158.351840999999979
0
LINE
8
BLACK
6
CONTINUOUS
10
101.2767169999999908
20
-158.351840999999979
11
101.2769779999999997
21
-158.3517339999999933
0
LINE
8
BLACK
6
CONTINUOUS
10
101.2769779999999997
20
-158.3517339999999933
11
104.6217599999999948
21
-157.6863610000000051
0
LINE
8
BLACK
6
CONTINUOUS
10
104.6217599999999948
20
-157.6863610000000051
11
104.6220489999999899
21
-157.6863610000000051
0
LINE
8
BLACK
6
CONTINUOUS
10
104.6220489999999899
20
-157.6863610000000051
11
104.6223159999999979
21
-157.686253999999991
0
LINE
8
BLACK
6
CONTINUOUS
10
104.6223159999999979
20
-157.686253999999991
11
107.9294749999999965
21
-157.0672289999999975
0
LINE
8
BLACK
6
CONTINUOUS
10
107.9294749999999965
20
-157.0672289999999975
11
107.9297699999999907
21
-157.06723199999999
0
LINE
8
BLACK
6
CONTINUOUS
10
107.9297699999999907
20
-157.06723199999999
11
107.9300420000000003
21
-157.0671269999999993
0
LINE
8
BLACK
6
CONTINUOUS
10
107.9300420000000003
20
-157.0671269999999993
11
111.2032689999999917
21
-156.4934120000000064
0
LINE
8
BLACK
6
CONTINUOUS
10
111.2032689999999917
20
-156.4934120000000064
11
111.203565999999995
21
-156.4934179999999913
0
LINE
8
BLACK
6
CONTINUOUS
10
111.203565999999995
20
-156.4934179999999913
11
111.2038459999999986
21
-156.493313999999998
0
LINE
8
BLACK
6
CONTINUOUS
10
111.2038459999999986
20
-156.493313999999998
11
114.4457319999999925
21
-155.9641120000000001
0
LINE
8
BLACK
6
CONTINUOUS
10
114.4457319999999925
20
-155.9641120000000001
11
114.4460349999999949
21
-155.9641220000000033
0
LINE
8
BLACK
6
CONTINUOUS
10
114.4460349999999949
20
-155.9641220000000033
11
114.4463189999999884
21
-155.964020000000005
0
LINE
8
BLACK
6
CONTINUOUS
10
114.4463189999999884
20
-155.964020000000005
11
117.6587239999999923
21
-155.4786919999999952
0
LINE
8
BLACK
6
CONTINUOUS
10
117.6587239999999923
20
-155.4786919999999952
11
117.6590300000000013
21
-155.4787059999999883
0
LINE
8
BLACK
6
CONTINUOUS
10
117.6590300000000013
20
-155.4787059999999883
11
117.6593189999999964
21
-155.478605999999985
0
LINE
8
BLACK
6
CONTINUOUS
10
117.6593189999999964
20
-155.478605999999985
11
120.8427310000000006
21
-155.0367310000000032
0
LINE
8
BLACK
6
CONTINUOUS
10
120.8427310000000006
20
-155.0367310000000032
11
120.9428269999999941
21
-155.0208480000000009
0
LINE
8
BLACK
6
CONTINUOUS
10
120.9428269999999941
20
-155.0208480000000009
11
121.1362749999999977
21
-154.9596029999999871
0
LINE
8
BLACK
6
CONTINUOUS
10
121.1362749999999977
20
-154.9596029999999871
11
121.3184989999999885
21
-154.8703439999999887
0
LINE
8
BLACK
6
CONTINUOUS
10
121.3184989999999885
20
-154.8703439999999887
11
121.4854689999999948
21
-154.7550430000000006
0
LINE
8
BLACK
6
CONTINUOUS
10
121.4854689999999948
20
-154.7550430000000006
11
121.6334889999999973
21
-154.6162520000000029
0
LINE
8
BLACK
6
CONTINUOUS
10
121.6334889999999973
20
-154.6162520000000029
11
121.7592859999999888
21
-154.4570410000000038
0
LINE
8
BLACK
6
CONTINUOUS
10
121.7592859999999888
20
-154.4570410000000038
11
121.8600769999999898
21
-154.2809320000000071
0
LINE
8
BLACK
6
CONTINUOUS
10
121.8600769999999898
20
-154.2809320000000071
11
121.9336319999999887
21
-154.0918219999999792
0
LINE
8
BLACK
6
CONTINUOUS
10
121.9336319999999887
20
-154.0918219999999792
11
121.978322999999989
21
-153.8938929999999914
0
LINE
8
BLACK
6
CONTINUOUS
10
121.978322999999989
20
-153.8938929999999914
11
121.9855699999999956
21
-153.7945629999999824
0
LINE
8
BLACK
6
CONTINUOUS
10
121.9855699999999956
20
-153.7945629999999824
11
121.9724979999999874
21
-137.8175410000000056
0
LINE
8
BLACK
6
CONTINUOUS
10
121.9724979999999874
20
-137.8175410000000056
11
121.9762659999999954
21
-137.7985139999999831
0
LINE
8
BLACK
6
CONTINUOUS
10
121.9762659999999954
20
-137.7985139999999831
11
121.9762659999999954
21
-137.7984579999999823
0
LINE
8
BLACK
6
CONTINUOUS
10
121.9762659999999954
20
-137.7984579999999823
11
121.9762799999999885
21
-137.7984429999999918
0
LINE
8
BLACK
6
CONTINUOUS
10
121.9762799999999885
20
-137.7984429999999918
11
121.9762879999999967
21
-137.798404000000005
0
LINE
8
BLACK
6
CONTINUOUS
10
121.9762879999999967
20
-137.798404000000005
11
121.9897419999999926
21
-137.7849269999999819
0
LINE
8
BLACK
6
CONTINUOUS
10
121.9897419999999926
20
-137.7849269999999819
11
122.0032719999999955
21
-137.7713439999999991
0
LINE
8
BLACK
6
CONTINUOUS
10
122.0032719999999955
20
-137.7713439999999991
11
122.003311999999994
21
-137.7713349999999934
0
LINE
8
BLACK
6
CONTINUOUS
10
122.003311999999994
20
-137.7713349999999934
11
122.0033260000000013
21
-137.7713219999999978
0
LINE
8
BLACK
6
CONTINUOUS
10
122.0033260000000013
20
-137.7713219999999978
11
122.0033809999999903
21
-137.7713210000000004
0
LINE
8
BLACK
6
CONTINUOUS
10
122.0033809999999903
20
-137.7713210000000004
11
122.0223979999999955
21
-137.7674999999999841
0
LINE
8
BLACK
6
CONTINUOUS
10
122.0223979999999955
20
-137.7674999999999841
11
157.037397999999996
21
-137.6974999999999909
0
LINE
8
BLACK
6
CONTINUOUS
10
157.037397999999996
20
-137.6974999999999909
11
157.056539999999984
21
-137.7012679999999989
0
LINE
8
BLACK
6
CONTINUOUS
10
157.056539999999984
20
-137.7012679999999989
11
157.0565809999999942
21
-137.7013079999999832
0
LINE
8
BLACK
6
CONTINUOUS
10
157.0565809999999942
20
-137.7013079999999832
11
157.0566379999999924
21
-137.7013089999999806
0
LINE
8
BLACK
6
CONTINUOUS
10
157.0566379999999924
20
-137.7013089999999806
11
157.0699829999999793
21
-137.7146569999999883
0
LINE
8
BLACK
6
CONTINUOUS
10
157.0699829999999793
20
-137.7146569999999883
11
157.0836539999999957
21
-137.728273999999999
0
LINE
8
BLACK
6
CONTINUOUS
10
157.0836539999999957
20
-137.728273999999999
11
157.0836539999999957
21
-137.7283319999999947
0
LINE
8
BLACK
6
CONTINUOUS
10
157.0836539999999957
20
-137.7283319999999947
11
157.08369399999998
21
-137.7283720000000073
0
LINE
8
BLACK
6
CONTINUOUS
10
157.08369399999998
20
-137.7283720000000073
11
157.0874979999999823
21
-137.7475069999999846
0
LINE
8
BLACK
6
CONTINUOUS
10
157.0874979999999823
20
-137.7475069999999846
11
157.0857450000000028
21
-151.1870769999999879
0
LINE
8
BLACK
6
CONTINUOUS
10
157.0857450000000028
20
-151.1870769999999879
11
157.0855880000000013
21
-151.187862999999993
0
LINE
8
BLACK
6
CONTINUOUS
10
157.0855880000000013
20
-151.187862999999993
11
157.0857289999999864
21
-151.1883359999999925
0
LINE
8
BLACK
6
CONTINUOUS
10
157.0857289999999864
20
-151.1883359999999925
11
157.0829159999999831
21
-151.2952530000000024
0
LINE
8
BLACK
6
CONTINUOUS
10
157.0829159999999831
20
-151.2952530000000024
11
157.1114599999999939
21
-151.5072470000000067
0
LINE
8
BLACK
6
CONTINUOUS
10
157.1114599999999939
20
-151.5072470000000067
11
157.1732419999999877
21
-151.7120380000000068
0
LINE
8
BLACK
6
CONTINUOUS
10
157.1732419999999877
20
-151.7120380000000068
11
157.2667009999999834
21
-151.9044480000000021
0
LINE
8
BLACK
6
CONTINUOUS
10
157.2667009999999834
20
-151.9044480000000021
11
157.389474000000007
21
-152.0796139999999923
0
LINE
8
BLACK
6
CONTINUOUS
10
157.389474000000007
20
-152.0796139999999923
11
157.5384579999999914
21
-152.2331079999999872
0
LINE
8
BLACK
6
CONTINUOUS
10
157.5384579999999914
20
-152.2331079999999872
11
157.7098859999999831
21
-152.3610479999999825
0
LINE
8
BLACK
6
CONTINUOUS
10
157.7098859999999831
20
-152.3610479999999825
11
157.8994249999999795
21
-152.4602019999999811
0
LINE
8
BLACK
6
CONTINUOUS
10
157.8994249999999795
20
-152.4602019999999811
11
158.1022829999999999
21
-152.5280620000000056
0
LINE
8
BLACK
6
CONTINUOUS
10
158.1022829999999999
20
-152.5280620000000056
11
158.3133320000000026
21
-152.5629140000000064
0
LINE
8
BLACK
6
CONTINUOUS
10
158.3133320000000026
20
-152.5629140000000064
11
158.4202850000000069
21
-152.563289999999995
0
LINE
8
BLACK
6
CONTINUOUS
10
158.4202850000000069
20
-152.563289999999995
11
158.4203760000000045
21
-152.5633200000000045
0
LINE
8
BLACK
6
CONTINUOUS
10
158.4203760000000045
20
-152.5633200000000045
11
158.4205319999999801
21
-152.5632909999999924
0
LINE
8
BLACK
6
CONTINUOUS
10
158.4205319999999801
20
-152.5632909999999924
11
161.9230000000000018
21
-152.5963820000000055
0
LINE
8
BLACK
6
CONTINUOUS
10
161.9230000000000018
20
-152.5963820000000055
11
161.9232339999999795
21
-152.596429999999998
0
LINE
8
BLACK
6
CONTINUOUS
10
161.9232339999999795
20
-152.596429999999998
11
161.9234679999999855
21
-152.5963889999999878
0
LINE
8
BLACK
6
CONTINUOUS
10
161.9234679999999855
20
-152.5963889999999878
11
165.142848999999984
21
-152.6569149999999979
0
LINE
8
BLACK
6
CONTINUOUS
10
165.142848999999984
20
-152.6569149999999979
11
165.1431249999999977
21
-152.6569749999999885
0
LINE
8
BLACK
6
CONTINUOUS
10
165.1431249999999977
20
-152.6569749999999885
11
165.1434069999999963
21
-152.6569279999999935
0
LINE
8
BLACK
6
CONTINUOUS
10
165.1434069999999963
20
-152.6569279999999935
11
168.2426049999999975
21
-152.7498310000000004
0
LINE
8
BLACK
6
CONTINUOUS
10
168.2426049999999975
20
-152.7498310000000004
11
168.2429009999999892
21
-152.7498989999999992
0
LINE
8
BLACK
6
CONTINUOUS
10
168.2429009999999892
20
-152.7498989999999992
11
168.2432000000000016
21
-152.7498530000000017
0
LINE
8
BLACK
6
CONTINUOUS
10
168.2432000000000016
20
-152.7498530000000017
11
171.3147649999999942
21
-152.878563999999983
0
LINE
8
BLACK
6
CONTINUOUS
10
171.3147649999999942
20
-152.878563999999983
11
171.3150650000000041
21
-152.8786369999999977
0
LINE
8
BLACK
6
CONTINUOUS
10
171.3150650000000041
20
-152.8786369999999977
11
171.3153729999999939
21
-152.8785929999999951
0
LINE
8
BLACK
6
CONTINUOUS
10
171.3153729999999939
20
-152.8785929999999951
11
174.4082579999999894
21
-153.0459840000000042
0
LINE
8
BLACK
6
CONTINUOUS
10
174.4082579999999894
20
-153.0459840000000042
11
174.4085589999999968
21
-153.0460609999999804
0
LINE
8
BLACK
6
CONTINUOUS
10
174.4085589999999968
20
-153.0460609999999804
11
174.4088669999999865
21
-153.0460209999999961
0
LINE
8
BLACK
6
CONTINUOUS
10
174.4088669999999865
20
-153.0460209999999961
11
177.553543999999988
21
-153.2547490000000039
0
LINE
8
BLACK
6
CONTINUOUS
10
177.553543999999988
20
-153.2547490000000039
11
177.5538389999999822
21
-153.2548280000000034
0
LINE
8
BLACK
6
CONTINUOUS
10
177.5538389999999822
20
-153.2548280000000034
11
177.5541460000000029
21
-153.2547919999999806
0
LINE
8
BLACK
6
CONTINUOUS
10
177.5541460000000029
20
-153.2547919999999806
11
180.7717769999999859
21
-153.5074209999999937
0
LINE
8
BLACK
6
CONTINUOUS
10
180.7717769999999859
20
-153.5074209999999937
11
180.7720669999999927
21
-153.5075019999999881
0
LINE
8
BLACK
6
CONTINUOUS
10
180.7720669999999927
20
-153.5075019999999881
11
180.7723680000000002
21
-153.5074709999999811
0
LINE
8
BLACK
6
CONTINUOUS
10
180.7723680000000002
20
-153.5074709999999811
11
184.0788890000000038
21
-153.8065330000000017
0
LINE
8
BLACK
6
CONTINUOUS
10
184.0788890000000038
20
-153.8065330000000017
11
184.0791719999999998
21
-153.8066159999999911
0
LINE
8
BLACK
6
CONTINUOUS
10
184.0791719999999998
20
-153.8066159999999911
11
184.0794640000000015
21
-153.8065890000000024
0
LINE
8
BLACK
6
CONTINUOUS
10
184.0794640000000015
20
-153.8065890000000024
11
187.4876280000000008
21
-154.1546050000000037
0
LINE
8
BLACK
6
CONTINUOUS
10
187.4876280000000008
20
-154.1546050000000037
11
187.4879009999999937
21
-154.1546879999999931
0
LINE
8
BLACK
6
CONTINUOUS
10
187.4879009999999937
20
-154.1546879999999931
11
187.4881869999999822
21
-154.1546649999999943
0
LINE
8
BLACK
6
CONTINUOUS
10
187.4881869999999822
20
-154.1546649999999943
11
191.0087010000000021
21
-154.5541649999999834
0
LINE
8
BLACK
6
CONTINUOUS
10
191.0087010000000021
20
-154.5541649999999834
11
191.0089639999999918
21
-154.5542489999999987
0
LINE
8
BLACK
6
CONTINUOUS
10
191.0089639999999918
20
-154.5542489999999987
11
191.0092410000000029
21
-154.5542289999999923
0
LINE
8
BLACK
6
CONTINUOUS
10
191.0092410000000029
20
-154.5542289999999923
11
194.6514349999999922
21
-155.0077579999999955
0
LINE
8
BLACK
6
CONTINUOUS
10
194.6514349999999922
20
-155.0077579999999955
11
194.6516900000000021
21
-155.0078419999999824
0
LINE
8
BLACK
6
CONTINUOUS
10
194.6516900000000021
20
-155.0078419999999824
11
194.6519579999999792
21
-155.0078259999999943
0
LINE
8
BLACK
6
CONTINUOUS
10
194.6519579999999792
20
-155.0078259999999943
11
198.4242029999999772
21
-155.5179519999999798
0
LINE
8
BLACK
6
CONTINUOUS
10
198.4242029999999772
20
-155.5179519999999798
11
198.4254660000000001
21
-155.518384999999995
0
LINE
8
BLACK
6
CONTINUOUS
10
198.4254660000000001
20
-155.518384999999995
11
198.4262650000000008
21
-155.5182749999999885
0
LINE
8
BLACK
6
CONTINUOUS
10
198.4262650000000008
20
-155.5182749999999885
11
198.5358659999999986
21
-155.5377679999999998
0
LINE
8
BLACK
6
CONTINUOUS
10
198.5358659999999986
20
-155.5377679999999998
11
198.7584319999999991
21
-155.5435939999999846
0
LINE
8
BLACK
6
CONTINUOUS
10
198.7584319999999991
20
-155.5435939999999846
11
198.9793679999999938
21
-155.5160769999999957
0
LINE
8
BLACK
6
CONTINUOUS
10
198.9793679999999938
20
-155.5160769999999957
11
199.1937049999999942
21
-155.455836000000005
0
LINE
8
BLACK
6
CONTINUOUS
10
199.1937049999999942
20
-155.455836000000005
11
199.3966259999999977
21
-155.3642239999999788
0
LINE
8
BLACK
6
CONTINUOUS
10
199.3966259999999977
20
-155.3642239999999788
11
199.5835679999999854
21
-155.2433019999999999
0
LINE
8
BLACK
6
CONTINUOUS
10
199.5835679999999854
20
-155.2433019999999999
11
199.7503289999999936
21
-155.0957870000000014
0
LINE
8
BLACK
6
CONTINUOUS
10
199.7503289999999936
20
-155.0957870000000014
11
199.8931579999999997
21
-154.9249969999999905
0
LINE
8
BLACK
6
CONTINUOUS
10
199.8931579999999997
20
-154.9249969999999905
11
200.008845999999977
21
-154.734770999999995
0
LINE
8
BLACK
6
CONTINUOUS
10
200.008845999999977
20
-154.734770999999995
11
200.0947909999999865
21
-154.5293859999999881
0
LINE
8
BLACK
6
CONTINUOUS
10
200.0947909999999865
20
-154.5293859999999881
11
200.1219519999999932
21
-154.4214289999999892
0
LINE
8
BLACK
6
CONTINUOUS
10
200.1219519999999932
20
-154.4214289999999892
11
200.1237909999999829
21
-154.4184970000000021
0
LINE
8
BLACK
6
CONTINUOUS
10
200.1237909999999829
20
-154.4184970000000021
11
208.7022389999999916
21
-100.0770899999999983
0
LINE
8
BLACK
6
CONTINUOUS
10
208.7022389999999916
20
-100.0770899999999983
11
208.7022389999999916
21
-100.0770879999999892
0
LINE
8
BLACK
6
CONTINUOUS
10
208.7022389999999916
20
-100.0770879999999892
11
208.7022389999999916
21
-100.0770849999999967
0
LINE
8
BLACK
6
CONTINUOUS
10
208.7022389999999916
20
-100.0770849999999967
11
208.7152059999999949
21
-99.9950070000000011
0
LINE
8
BLACK
6
CONTINUOUS
10
208.7152059999999949
20
-99.9950070000000011
11
208.7122420000000034
21
-99.8288419999999945
0
LINE
8
BLACK
6
CONTINUOUS
10
208.7122420000000034
20
-99.8288419999999945
11
208.6804719999999804
21
-99.6657149999999916
0
LINE
8
BLACK
6
CONTINUOUS
10
208.6804719999999804
20
-99.6657149999999916
11
208.6208599999999933
21
-99.5105829999999969
0
LINE
8
BLACK
6
CONTINUOUS
10
208.6208599999999933
20
-99.5105829999999969
11
208.5352189999999837
21
-99.3681569999999965
0
LINE
8
BLACK
6
CONTINUOUS
10
208.5352189999999837
20
-99.3681569999999965
11
208.426148999999981
21
-99.242763999999994
0
LINE
8
BLACK
6
CONTINUOUS
10
208.426148999999981
20
-99.242763999999994
11
208.2969629999999768
21
-99.1382129999999933
0
LINE
8
BLACK
6
CONTINUOUS
10
208.2969629999999768
20
-99.1382129999999933
11
208.1515869999999779
21
-99.0576810000000023
0
LINE
8
BLACK
6
CONTINUOUS
10
208.1515869999999779
20
-99.0576810000000023
11
207.9944369999999765
21
-99.0036139999999989
0
LINE
8
BLACK
6
CONTINUOUS
10
207.9944369999999765
20
-99.0036139999999989
11
207.9123610000000042
21
-98.990634
0
LINE
8
BLACK
6
CONTINUOUS
10
207.9123610000000042
20
-98.990634
11
207.9123579999999833
21
-98.9906319999999909
0
LINE
8
BLACK
6
CONTINUOUS
10
207.9123579999999833
20
-98.9906319999999909
11
207.9123559999999884
21
-98.9906330000000025
0
LINE
8
BLACK
6
CONTINUOUS
10
207.9123559999999884
20
-98.9906330000000025
11
164.7133759999999825
21
-92.1540799999999933
0
LINE
8
BLACK
6
CONTINUOUS
10
164.7133759999999825
20
-92.1540799999999933
11
164.5335989999999811
21
-92.1090700000000027
0
LINE
8
BLACK
6
CONTINUOUS
10
164.5335989999999811
20
-92.1090700000000027
11
164.3645359999999869
21
-92.0331539999999961
0
LINE
8
BLACK
6
CONTINUOUS
10
164.3645359999999869
20
-92.0331539999999961
11
164.2114530000000059
21
-91.9286969999999997
0
LINE
8
BLACK
6
CONTINUOUS
10
164.2114530000000059
20
-91.9286969999999997
11
164.0791189999999915
21
-91.7989529999999974
0
LINE
8
BLACK
6
CONTINUOUS
10
164.0791189999999915
20
-91.7989529999999974
11
163.9716559999999959
21
-91.6479649999999992
0
LINE
8
BLACK
6
CONTINUOUS
10
163.9716559999999959
20
-91.6479649999999992
11
163.8924130000000048
21
-91.4804349999999999
0
LINE
8
BLACK
6
CONTINUOUS
10
163.8924130000000048
20
-91.4804349999999999
11
163.8438579999999831
21
-91.3015829999999937
0
LINE
8
BLACK
6
CONTINUOUS
10
163.8438579999999831
20
-91.3015829999999937
11
163.8275040000000047
21
-91.1169799999999981
0
LINE
8
BLACK
6
CONTINUOUS
10
163.8275040000000047
20
-91.1169799999999981
11
163.8275720000000035
21
-81.2968999999999937
0
LINE
8
BLACK
6
CONTINUOUS
10
163.8275720000000035
20
-81.2968999999999937
11
163.8275689999999827
21
-81.2138209999999958
0
LINE
8
BLACK
6
CONTINUOUS
10
163.8275689999999827
20
-81.2138209999999958
11
163.7987129999999922
21
-81.0501809999999949
0
LINE
8
BLACK
6
CONTINUOUS
10
163.7987129999999922
20
-81.0501809999999949
11
163.7418899999999837
21
-80.8940339999999907
0
LINE
8
BLACK
6
CONTINUOUS
10
163.7418899999999837
20
-80.8940339999999907
11
163.6588249999999789
21
-80.7501199999999955
0
LINE
8
BLACK
6
CONTINUOUS
10
163.6588249999999789
20
-80.7501199999999955
11
163.5520410000000027
21
-80.6228100000000012
0
LINE
8
BLACK
6
CONTINUOUS
10
163.5520410000000027
20
-80.6228100000000012
11
163.4247780000000034
21
-80.5159680000000009
0
LINE
8
BLACK
6
CONTINUOUS
10
163.4247780000000034
20
-80.5159680000000009
11
163.2809019999999975
21
-80.4328390000000013
0
LINE
8
BLACK
6
CONTINUOUS
10
163.2809019999999975
20
-80.4328390000000013
11
163.1247809999999845
21
-80.375945999999999
0
LINE
8
BLACK
6
CONTINUOUS
10
163.1247809999999845
20
-80.375945999999999
11
162.9611529999999959
21
-80.3470169999999939
0
LINE
8
BLACK
6
CONTINUOUS
10
162.9611529999999959
20
-80.3470169999999939
11
162.8780710000000056
21
-80.346975999999998
0
LINE
8
BLACK
6
CONTINUOUS
10
162.8780710000000056
20
-80.346975999999998
11
162.8780699999999797
21
-80.3469750000000005
0
LINE
8
BLACK
6
CONTINUOUS
10
162.8780699999999797
20
-80.3469750000000005
11
162.8780699999999797
21
-80.346975999999998
0
LINE
8
BLACK
6
CONTINUOUS
10
162.8780699999999797
20
-80.346975999999998
11
145.8171279999999967
21
-80.3380239999999901
0
LINE
8
BLACK
6
CONTINUOUS
10
145.8171279999999967
20
-80.3380239999999901
11
145.8171269999999993
21
-80.3380229999999926
0
LINE
8
BLACK
6
CONTINUOUS
10
145.8171269999999993
20
-80.3380229999999926
11
145.8171269999999993
21
-80.3380239999999901
0
LINE
8
BLACK
6
CONTINUOUS
10
145.8171269999999993
20
-80.3380239999999901
11
145.6348459999999818
21
-80.3219809999999939
0
LINE
8
BLACK
6
CONTINUOUS
10
145.6348459999999818
20
-80.3219809999999939
11
145.4581169999999872
21
-80.2745359999999977
0
LINE
8
BLACK
6
CONTINUOUS
10
145.4581169999999872
20
-80.2745359999999977
11
145.2923099999999863
21
-80.1971300000000014
0
LINE
8
BLACK
6
CONTINUOUS
10
145.2923099999999863
20
-80.1971300000000014
11
145.1424580000000049
21
-80.0921139999999951
0
LINE
8
BLACK
6
CONTINUOUS
10
145.1424580000000049
20
-80.0921139999999951
11
145.0131130000000041
21
-79.9626779999999968
0
LINE
8
BLACK
6
CONTINUOUS
10
145.0131130000000041
20
-79.9626779999999968
11
144.9082029999999861
21
-79.8127520000000032
0
LINE
8
BLACK
6
CONTINUOUS
10
144.9082029999999861
20
-79.8127520000000032
11
144.830914000000007
21
-79.6468899999999991
0
LINE
8
BLACK
6
CONTINUOUS
10
144.830914000000007
20
-79.6468899999999991
11
144.7835939999999937
21
-79.4701280000000025
0
LINE
8
BLACK
6
CONTINUOUS
10
144.7835939999999937
20
-79.4701280000000025
11
144.7676799999999844
21
-79.2878520000000009
0
LINE
8
BLACK
6
CONTINUOUS
10
144.7676799999999844
20
-79.2878520000000009
11
144.7676789999999869
21
-79.2878449999999901
0
LINE
8
BLACK
6
CONTINUOUS
10
144.7676789999999869
20
-79.2878449999999901
11
144.767516999999998
21
-70.5677400000000006
0
LINE
8
BLACK
6
CONTINUOUS
10
144.767516999999998
20
-70.5677400000000006
11
144.767516999999998
21
-70.5677379999999914
0
LINE
8
BLACK
6
CONTINUOUS
10
144.767516999999998
20
-70.5677379999999914
11
144.7675150000000031
21
-70.484612999999996
0
LINE
8
BLACK
6
CONTINUOUS
10
144.7675150000000031
20
-70.484612999999996
11
144.7386379999999804
21
-70.3208860000000016
0
LINE
8
BLACK
6
CONTINUOUS
10
144.7386379999999804
20
-70.3208860000000016
11
144.6817639999999869
21
-70.1646629999999902
0
LINE
8
BLACK
6
CONTINUOUS
10
144.6817639999999869
20
-70.1646629999999902
11
144.5986230000000035
21
-70.0206909999999993
0
LINE
8
BLACK
6
CONTINUOUS
10
144.5986230000000035
20
-70.0206909999999993
11
144.4917409999999904
21
-69.8933469999999915
0
LINE
8
BLACK
6
CONTINUOUS
10
144.4917409999999904
20
-69.8933469999999915
11
144.3643669999999872
21
-69.7865000000000038
0
LINE
8
BLACK
6
CONTINUOUS
10
144.3643669999999872
20
-69.7865000000000038
11
144.220372999999995
21
-69.7033989999999903
0
LINE
8
BLACK
6
CONTINUOUS
10
144.220372999999995
20
-69.7033989999999903
11
144.0641329999999982
21
-69.6465689999999995
0
LINE
8
BLACK
6
CONTINUOUS
10
144.0641329999999982
20
-69.6465689999999995
11
143.9003989999999931
21
-69.6177369999999911
0
LINE
8
BLACK
6
CONTINUOUS
10
143.9003989999999931
20
-69.6177369999999911
11
143.8172720000000027
21
-69.6177579999999949
0
LINE
8
BLACK
6
CONTINUOUS
10
143.8172720000000027
20
-69.6177579999999949
11
143.8164769999999919
21
-69.6174999999999926
0
LINE
8
BLACK
6
CONTINUOUS
10
143.8164769999999919
20
-69.6174999999999926
11
126.5175119999999964
21
-69.6175139999999999
  0
ENDSEC
  0
EOF
